<svg width="156" height="51" viewBox="0 0 156 51" fill="none" xmlns="http://www.w3.org/2000/svg">
<g clip-path="url(#clip0_14_552)">
<g clip-path="url(#clip1_14_552)">
<g clip-path="url(#clip2_14_552)">
<path d="M10.6899 50.3769C10.2979 50.3769 9.90588 50.3769 9.51388 50.3639C8.78188 50.3379 7.91887 50.2989 7.06987 50.1539C6.31485 50.0238 5.58346 49.7819 4.89988 49.4359C4.22158 49.0938 3.6035 48.6436 3.06988 48.1029C2.53217 47.5669 2.08262 46.9493 1.73787 46.2729C1.38878 45.592 1.15046 44.8598 1.03187 44.1039C0.874875 43.2299 0.836875 42.3269 0.809875 41.6469C0.809875 41.3729 0.796875 40.4579 0.796875 40.4579V10.2829C0.796875 10.2829 0.796875 9.37989 0.809875 9.11989C0.822875 8.43989 0.861875 7.53789 1.03187 6.67589C1.17588 5.87889 1.39787 5.15989 1.73787 4.50589C2.0858 3.83148 2.53539 3.2146 3.07087 2.67689C3.6045 2.1362 4.22258 1.68598 4.90088 1.34389C5.57959 1.0006 6.30657 0.762542 7.05688 0.637893C7.94488 0.467893 8.83387 0.429893 9.51388 0.402893H10.6899L144.995 0.389893H146.184C146.85 0.429893 147.752 0.467893 148.615 0.624893C149.399 0.768893 150.117 0.990893 150.797 1.34389C151.468 1.6915 152.081 2.14119 152.614 2.67689C153.149 3.21289 153.594 3.82689 153.947 4.50689C154.286 5.18737 154.523 5.91371 154.652 6.66289C154.809 7.48589 154.848 8.33589 154.874 9.13289V41.6999C154.848 42.4699 154.796 43.3199 154.652 44.1169C154.532 44.8768 154.294 45.6133 153.947 46.2999C153.602 46.9723 153.152 47.5854 152.614 48.1159C152.083 48.6594 151.464 49.1099 150.784 49.4489C150.104 49.7889 149.412 50.0239 148.602 50.1679C147.765 50.3249 146.903 50.3639 146.158 50.3769C145.779 50.3769 145.374 50.3899 144.982 50.3899H10.6769L10.6899 50.3769Z" fill="black"/>
<path d="M32.0309 25.7819C31.9909 22.1879 34.9709 20.4369 35.1149 20.3579C33.4289 17.9009 30.8149 17.5619 29.9009 17.5349C27.7049 17.2999 25.5749 18.8419 24.4639 18.8419C23.3529 18.8419 21.6019 17.5489 19.7459 17.5879C17.3549 17.6269 15.1199 19.0119 13.9049 21.1549C11.3819 25.5329 13.2649 31.9629 15.6819 35.5049C16.8969 37.2429 18.3089 39.1769 20.1639 39.0979C21.9809 39.0199 22.6609 37.9479 24.8429 37.9479C27.0249 37.9479 27.6399 39.0979 29.5349 39.0589C31.4819 39.0329 32.7099 37.3209 33.8729 35.5699C35.2719 33.5839 35.8329 31.6229 35.8599 31.5319C35.8199 31.5189 32.0829 30.0939 32.0439 25.7819H32.0309ZM28.4469 15.2089C29.4269 13.9929 30.0939 12.3339 29.8979 10.6479C28.4869 10.7129 26.7229 11.6279 25.7029 12.8179C24.8019 13.8629 24.0039 15.5879 24.2129 17.2079C25.7949 17.3259 27.4279 16.4109 28.4479 15.2079M54.9409 34.7089H48.7599L47.2699 39.0989H44.6569L50.5119 22.8689H53.2299L59.0849 39.0989H56.4189L54.9289 34.7089H54.9409ZM49.4009 32.6959H54.3009L51.8829 25.5739H51.8179L49.4009 32.6959ZM71.7489 33.1779C71.7489 36.8499 69.7759 39.2149 66.8089 39.2149C65.1229 39.2149 63.7899 38.4569 63.0849 37.1499H63.0319V43.0049H60.6019V27.2579H62.9539V29.2309H62.9939C63.6729 27.9629 65.1099 27.1399 66.7569 27.1399C69.7629 27.1399 71.7359 29.5179 71.7359 33.1779H71.7489ZM69.2529 33.1779C69.2529 30.7859 68.0119 29.2049 66.1299 29.2049C64.2479 29.2049 63.0199 30.8119 63.0199 33.1779C63.0199 35.5439 64.2739 37.1639 66.1299 37.1639C67.9859 37.1639 69.2529 35.5949 69.2529 33.1779ZM84.7649 33.1779C84.7649 36.8499 82.7909 39.2149 79.8249 39.2149C78.1389 39.2149 76.8059 38.4569 76.0999 37.1499H76.0479V43.0049H73.6179V27.2579H75.9699V29.2309H76.0089C76.6889 27.9629 78.1259 27.1399 79.7729 27.1399C82.7779 27.1399 84.7519 29.5179 84.7519 33.1779H84.7649ZM82.2689 33.1779C82.2689 30.7859 81.0269 29.2049 79.1449 29.2049C77.2629 29.2049 76.0349 30.8119 76.0349 33.1779C76.0349 35.5439 77.2899 37.1639 79.1449 37.1639C80.9999 37.1639 82.2689 35.5949 82.2689 33.1779ZM93.3739 34.5769C93.5569 36.1839 95.1119 37.2429 97.2549 37.2429C99.3979 37.2429 100.771 36.1839 100.771 34.7329C100.771 33.4789 99.8809 32.7209 97.7779 32.1979L95.6739 31.6879C92.6939 30.9699 91.3089 29.5719 91.3089 27.3109C91.3089 24.5139 93.7529 22.5929 97.2159 22.5929C100.679 22.5929 102.992 24.5139 103.071 27.3109H100.614C100.47 25.6909 99.1239 24.7109 97.1769 24.7109C95.2299 24.7109 93.8829 25.7029 93.8829 27.1409C93.8829 28.2909 94.7329 28.9579 96.8229 29.4809L98.6139 29.9249C101.947 30.7089 103.332 32.0549 103.332 34.4199C103.332 37.4519 100.914 39.3599 97.0719 39.3599C93.4779 39.3599 91.0479 37.5039 90.8909 34.5639H93.3739V34.5769ZM108.575 24.4619V27.2589H110.823V29.1799H108.575V35.7009C108.575 36.7209 109.02 37.1909 110.013 37.1909C110.261 37.1909 110.653 37.1509 110.81 37.1389V39.0469C110.535 39.1119 110 39.1639 109.464 39.1639C107.072 39.1639 106.131 38.2629 106.131 35.9759V29.1929H104.406V27.2719H106.131V24.4749H108.575V24.4619ZM112.129 33.1789C112.129 29.4539 114.325 27.1149 117.735 27.1149C121.146 27.1149 123.342 29.4539 123.342 33.1789C123.342 36.9039 121.172 39.2419 117.735 39.2419C114.298 39.2419 112.129 36.9159 112.129 33.1789ZM120.885 33.1789C120.885 30.6299 119.709 29.1139 117.748 29.1139C115.788 29.1139 114.612 30.6299 114.612 33.1789C114.612 35.7269 115.775 37.2429 117.748 37.2429C119.721 37.2429 120.885 35.7529 120.885 33.1789ZM125.352 27.2699H127.665V29.2829H127.717C128.083 27.9499 129.168 27.1399 130.566 27.1399C130.919 27.1399 131.206 27.1919 131.402 27.2319V29.5049C131.206 29.4269 130.788 29.3619 130.318 29.3619C128.749 29.3619 127.782 30.4199 127.782 32.0799V39.0979H125.352V27.2699ZM142.603 35.6219C142.276 37.7649 140.185 39.2419 137.506 39.2419C134.069 39.2419 131.926 36.9419 131.926 33.2309C131.926 29.5199 134.069 27.1149 137.402 27.1149C140.734 27.1149 142.734 29.3619 142.734 32.9559V33.7929H134.383V33.9359C134.383 35.9619 135.65 37.2819 137.571 37.2819C138.918 37.2819 139.976 36.6419 140.303 35.6219H142.603ZM134.396 32.0939H140.316C140.264 30.2769 139.101 29.0879 137.415 29.0879C135.729 29.0879 134.527 30.3029 134.396 32.0939ZM49.0849 10.6609C51.3979 10.6609 52.7569 12.0849 52.7569 14.5289C52.7569 16.9729 51.4109 18.4489 49.0849 18.4489H46.2619V10.6479H49.0849V10.6609ZM47.4769 17.3519H48.9409C50.5739 17.3519 51.5149 16.3319 51.5149 14.5419C51.5149 12.7519 50.5609 11.7589 48.9409 11.7589H47.4769V17.3519ZM54.1289 15.5089C54.1289 13.6139 55.1879 12.4509 56.8989 12.4509C58.6119 12.4509 59.6699 13.6009 59.6699 15.5089C59.6699 17.4169 58.6119 18.5669 56.8999 18.5669C55.1879 18.5669 54.1289 17.4169 54.1289 15.5089ZM58.4809 15.5089C58.4809 14.2279 57.9059 13.4829 56.8999 13.4829C55.8939 13.4829 55.3179 14.2279 55.3179 15.5089C55.3179 16.7899 55.8799 17.5339 56.8989 17.5339C57.9189 17.5339 58.4809 16.7889 58.4809 15.5089ZM67.0539 18.4499H65.8519L64.6359 14.1119H64.5449L63.3289 18.4509H62.1399L60.5199 12.5699H61.6959L62.7539 17.0649H62.8459L64.0609 12.5699H65.1719L66.3869 17.0649H66.4789L67.5239 12.5699H68.6869L67.0669 18.4499H67.0539ZM70.0349 12.5689H71.1589V13.5089H71.2509C71.5379 12.8559 72.1259 12.4639 73.0009 12.4639C74.3089 12.4639 75.0409 13.2479 75.0409 14.6469V18.4629H73.8769V14.9469C73.8769 14.0069 73.4719 13.5359 72.6099 13.5359C71.7479 13.5359 71.1979 14.1109 71.1979 15.0259V18.4629H70.0349V12.5819V12.5689ZM76.8829 10.2689H78.0459V18.4489H76.8829V10.2689ZM79.6529 15.5089C79.6529 13.6139 80.7109 12.4509 82.4229 12.4509C84.1349 12.4509 85.1929 13.6009 85.1929 15.5089C85.1929 17.4169 84.1349 18.5669 82.4229 18.5669C80.7109 18.5669 79.6529 17.4169 79.6529 15.5089ZM84.0169 15.5089C84.0169 14.2279 83.4419 13.4829 82.4369 13.4829C81.4299 13.4829 80.8549 14.2279 80.8549 15.5089C80.8549 16.7899 81.4169 17.5339 82.4359 17.5339C83.4559 17.5339 84.0169 16.7889 84.0169 15.5089ZM86.4339 16.7899C86.4339 15.7309 87.2179 15.1169 88.6159 15.0389L90.2109 14.9469V14.4369C90.2109 13.8099 89.8049 13.4709 89.0079 13.4709C88.3549 13.4709 87.9109 13.7059 87.7799 14.1239H86.6559C86.7739 13.1179 87.7279 12.4639 89.0609 12.4639C90.5369 12.4639 91.3739 13.1959 91.3739 14.4379V18.4629H90.2499V17.6389H90.1579C89.8049 18.2279 89.1649 18.5669 88.3939 18.5669C87.2569 18.5669 86.4339 17.8869 86.4339 16.8029V16.7899ZM90.2109 16.2799V15.7839L88.7729 15.8749C87.9629 15.9269 87.5969 16.2019 87.5969 16.7249C87.5969 17.2479 88.0539 17.5609 88.6819 17.5609C89.5569 17.5609 90.2099 16.9989 90.2099 16.2809M92.9029 15.5099C92.9029 13.6539 93.8569 12.4779 95.3459 12.4779C96.1559 12.4779 96.8359 12.8579 97.1499 13.5099H97.2409V10.2839H98.4039V18.4639H97.2939V17.5369H97.2019C96.8489 18.1769 96.1699 18.5689 95.3589 18.5689C93.8569 18.5689 92.9159 17.3929 92.9159 15.5239L92.9029 15.5099ZM94.0919 15.5099C94.0919 16.7649 94.6799 17.5099 95.6599 17.5099C96.6399 17.5099 97.2409 16.7509 97.2409 15.5099C97.2409 14.2689 96.6269 13.5099 95.6599 13.5099C94.6929 13.5099 94.0919 14.2689 94.0919 15.5099ZM103.199 15.5089C103.199 13.6139 104.258 12.4509 105.97 12.4509C107.682 12.4509 108.74 13.6009 108.74 15.5089C108.74 17.4169 107.682 18.5669 105.97 18.5669C104.258 18.5669 103.199 17.4169 103.199 15.5089ZM107.551 15.5089C107.551 14.2279 106.976 13.4829 105.97 13.4829C104.964 13.4829 104.389 14.2279 104.389 15.5089C104.389 16.7899 104.951 17.5339 105.97 17.5339C106.989 17.5339 107.551 16.7889 107.551 15.5089ZM110.309 12.5689H111.433V13.5089H111.524C111.812 12.8559 112.4 12.4639 113.275 12.4639C114.582 12.4639 115.314 13.2479 115.314 14.6469V18.4629H114.151V14.9469C114.151 14.0069 113.746 13.5359 112.883 13.5359C112.021 13.5359 111.472 14.1109 111.472 15.0259V18.4629H110.309V12.5819V12.5689ZM121.863 11.1049V12.5949H123.144V13.5749H121.863V16.6069C121.863 17.2209 122.111 17.4949 122.7 17.4949C122.883 17.4949 122.974 17.4949 123.144 17.4689V18.4359C122.961 18.4619 122.739 18.5019 122.517 18.5019C121.223 18.5019 120.713 18.0439 120.713 16.9069V13.5869H119.785V12.6069H120.713V11.1169H121.876L121.863 11.1049ZM124.727 10.2689H125.877V13.5089H125.968C126.256 12.8559 126.87 12.4509 127.759 12.4509C129.013 12.4509 129.784 13.2479 129.784 14.6469V18.4499H128.621V14.9339C128.621 13.9939 128.19 13.5229 127.367 13.5229C126.413 13.5229 125.89 14.1239 125.89 15.0129V18.4499H124.727V10.2689ZM136.564 16.8689C136.302 17.9269 135.361 18.5669 134.015 18.5669C132.329 18.5669 131.297 17.4169 131.297 15.5349C131.297 13.6529 132.356 12.4649 134.015 12.4649C135.674 12.4649 136.642 13.5879 136.642 15.4309V15.8359H132.486V15.9009C132.525 16.9339 133.127 17.5869 134.054 17.5869C134.76 17.5869 135.244 17.3389 135.453 16.8679H136.577L136.564 16.8689ZM132.473 14.9739H135.44C135.414 14.0459 134.852 13.4439 133.989 13.4439C133.127 13.4439 132.525 14.0459 132.46 14.9739H132.473Z" fill="white"/>
</g>
</g>
</g>
<defs>
<clipPath id="clip0_14_552">
<rect width="155" height="50" fill="white" transform="translate(0.796875 0.389893)"/>
</clipPath>
<clipPath id="clip1_14_552">
<rect width="155" height="50" fill="white" transform="translate(0.796875 0.389893)"/>
</clipPath>
<clipPath id="clip2_14_552">
<rect width="155" height="50" fill="white" transform="translate(0.796875 0.389893)"/>
</clipPath>
</defs>
</svg>
