<svg width="39" height="26" viewBox="0 0 39 26" fill="none" xmlns="http://www.w3.org/2000/svg">
<g clip-path="url(#clip0_14_1417)">
<g clip-path="url(#clip1_14_1417)">
<g clip-path="url(#clip2_14_1417)">
<mask id="mask0_14_1417" style="mask-type:luminance" maskUnits="userSpaceOnUse" x="0" y="0" width="38" height="26">
<path d="M0.199951 0.859863H37.297V25.8599H0.199951V0.859863Z" fill="white"/>
</mask>
<g mask="url(#mask0_14_1417)">
<path d="M33.667 1.27783H3.82805C2.04705 1.27783 0.602051 2.76983 0.602051 4.61083V22.1108C0.602051 23.9518 2.04705 25.4448 3.82805 25.4448H33.667C35.448 25.4448 36.8931 23.9518 36.8931 22.1108V4.61083C36.8931 2.77083 35.448 1.27783 33.667 1.27783Z" fill="white" stroke="#D3D3D4"/>
<path d="M36.4909 14.8398C36.4909 14.8398 26.8409 21.8768 9.16895 25.0258H35.2059C35.7538 24.7168 36.2001 24.2555 36.4909 23.6978V14.8398Z" fill="#F46F1B"/>
<path d="M5.45999 12.972C5.14499 13.266 4.73399 13.394 4.08599 13.394H3.81599V9.87796H4.08599C4.73399 9.87796 5.12799 9.99796 5.45899 10.308C5.80599 10.627 6.01599 11.122 6.01599 11.632C6.01599 12.142 5.80599 12.652 5.45899 12.972M4.28599 8.97596H2.81299V14.294H4.27999C5.05999 14.294 5.62199 14.104 6.11599 13.68C6.40599 13.431 6.64099 13.12 6.80299 12.767C6.96399 12.414 7.04899 12.029 7.05099 11.639C7.05099 10.069 5.91599 8.97596 4.28799 8.97596M7.51299 14.294H8.51699V8.97696H7.51199L7.51299 14.294ZM10.971 11.018C10.368 10.787 10.191 10.634 10.191 10.348C10.191 10.013 10.507 9.75796 10.941 9.75796C11.241 9.75796 11.489 9.88596 11.749 10.188L12.275 9.47796C11.8644 9.09553 11.3231 8.88447 10.762 8.88796C9.85199 8.88796 9.15699 9.54196 9.15699 10.413C9.15699 11.145 9.47999 11.52 10.423 11.871C10.816 12.014 11.016 12.109 11.117 12.174C11.2095 12.2312 11.2857 12.3115 11.338 12.407C11.3908 12.5042 11.4183 12.6133 11.418 12.724C11.418 13.155 11.087 13.474 10.638 13.474C10.16 13.474 9.77399 13.227 9.54299 12.765L8.89399 13.41C9.35699 14.112 9.91299 14.423 10.676 14.423C11.72 14.423 12.451 13.706 12.451 12.677C12.451 11.831 12.113 11.449 10.971 11.017M12.768 11.638C12.768 13.202 13.956 14.413 15.484 14.413C15.917 14.413 16.287 14.326 16.744 14.103V12.883C16.343 13.298 15.987 13.466 15.531 13.466C14.521 13.466 13.803 12.708 13.803 11.631C13.803 10.609 14.543 9.80396 15.484 9.80396C15.964 9.80396 16.326 9.98096 16.744 10.403V9.18296C16.303 8.95196 15.941 8.85596 15.509 8.85596C13.988 8.85596 12.769 10.093 12.769 11.639M24.704 12.549L23.33 8.97696H22.233L24.417 14.432H24.957L27.181 8.97696H26.092M27.635 14.294H30.482V13.394H28.638V11.96H30.414V11.06H28.638V9.87696H30.482V8.97696H27.635M32.442 11.424H32.15V9.81396H32.458C33.084 9.81396 33.424 10.084 33.424 10.603C33.424 11.137 33.084 11.424 32.442 11.424ZM34.457 10.546C34.457 9.55096 33.793 8.97596 32.636 8.97596H31.147V14.294H32.15V12.158H32.28L33.67 14.294H34.904L33.284 12.054C34.041 11.896 34.457 11.361 34.457 10.546Z" fill="#231420"/>
<path d="M22.5321 11.639C22.5321 12.01 22.4621 12.378 22.3241 12.721C22.1861 13.064 21.9841 13.376 21.7311 13.638C21.4776 13.898 21.176 14.1062 20.8431 14.251C20.5125 14.3939 20.1562 14.4675 19.7961 14.4675C19.436 14.4675 19.0797 14.3939 18.7491 14.251C18.4149 14.1085 18.1128 13.9 17.8611 13.638C17.6051 13.3743 17.4037 13.0627 17.2681 12.721C17.1299 12.377 17.059 12.0097 17.0591 11.639C17.0591 10.889 17.3481 10.169 17.8611 9.63904C18.3741 9.10904 19.0701 8.81104 19.7961 8.81104C20.5221 8.81104 21.2171 9.10904 21.7311 9.63904C22.2441 10.169 22.5321 10.889 22.5321 11.639Z" fill="#F46F1B"/>
<path d="M34.803 9.14599H34.785V9.02399H34.804C34.8573 9.02399 34.884 9.04399 34.884 9.08399C34.8833 9.12599 34.8556 9.14666 34.803 9.14599ZM34.994 9.08199C34.994 8.98899 34.932 8.93799 34.823 8.93799H34.678V9.40599H34.786V9.22399L34.912 9.40599H35.044L34.895 9.21299C34.924 9.20611 34.9499 9.18942 34.9681 9.16575C34.9863 9.14207 34.9958 9.11285 34.995 9.08299" fill="#231420"/>
<path d="M34.8429 9.5047C34.8007 9.50475 34.7588 9.49587 34.7202 9.47864C34.6816 9.4614 34.6471 9.43621 34.6189 9.4047C34.5596 9.34182 34.5272 9.25815 34.5289 9.1717C34.5289 8.9847 34.6689 8.8357 34.8429 8.8357C35.0149 8.8357 35.1549 8.9877 35.1549 9.1707C35.1549 9.3537 35.0149 9.5047 34.8429 9.5047ZM34.8439 8.7627C34.7918 8.76302 34.7402 8.77381 34.6923 8.79442C34.6443 8.81503 34.601 8.84505 34.5649 8.8827C34.4904 8.96004 34.4487 9.06327 34.4487 9.1707C34.4487 9.27812 34.4904 9.38135 34.5649 9.4587C34.6389 9.5347 34.7399 9.5787 34.8449 9.5787C34.9509 9.57582 35.0513 9.53103 35.1242 9.45416C35.1972 9.37729 35.2366 9.27462 35.2339 9.1687C35.2348 9.11586 35.2251 9.06338 35.2056 9.01429C35.186 8.9652 35.1569 8.92047 35.1199 8.8827C35.0471 8.80829 34.948 8.76524 34.8439 8.7627Z" fill="#231420"/>
<path d="M33.667 1.27783H3.82805C2.04705 1.27783 0.602051 2.76983 0.602051 4.61083V22.1108C0.602051 23.9518 2.04705 25.4448 3.82805 25.4448H33.667C35.448 25.4448 36.8931 23.9518 36.8931 22.1108V4.61083C36.8931 2.77083 35.448 1.27783 33.667 1.27783Z" stroke="#D3D3D4"/>
</g>
</g>
</g>
</g>
<defs>
<clipPath id="clip0_14_1417">
<rect width="38" height="25" fill="white" transform="translate(0.199951 0.859863)"/>
</clipPath>
<clipPath id="clip1_14_1417">
<rect width="38" height="25" fill="white" transform="translate(0.199951 0.859863)"/>
</clipPath>
<clipPath id="clip2_14_1417">
<rect width="38" height="25" fill="white" transform="translate(0.199951 0.859863)"/>
</clipPath>
</defs>
</svg>
