<svg width="22" height="21" viewBox="0 0 22 21" fill="none" xmlns="http://www.w3.org/2000/svg">
<g clip-path="url(#clip0_14_1282)">
<path d="M19.4349 0.859863H1.63491C1.34317 0.859863 1.06338 0.975756 0.857095 1.18205C0.650805 1.38834 0.534912 1.66813 0.534912 1.95986V19.7599C0.534912 20.0516 0.650805 20.3314 0.857095 20.5377C1.06338 20.744 1.34317 20.8599 1.63491 20.8599H11.2149V13.1099H8.61491V10.1099H11.2149V7.85986C11.1611 7.33162 11.2234 6.79799 11.3976 6.2964C11.5718 5.79481 11.8537 5.33741 12.2234 4.95627C12.5931 4.57514 13.0417 4.2795 13.5377 4.0901C14.0338 3.9007 14.5653 3.82211 15.0949 3.85986C15.8762 3.85453 16.6542 3.89453 17.4289 3.97986V6.67986H15.8359C14.5759 6.67986 14.3359 7.27986 14.3359 8.14686V10.0799H17.3359L16.9459 13.0799H14.3359V20.8599H19.4359C19.7277 20.8599 20.0074 20.744 20.2137 20.5377C20.42 20.3314 20.5359 20.0516 20.5359 19.7599V1.95986C20.5359 1.66813 20.42 1.38834 20.2137 1.18205C20.0074 0.975756 19.7267 0.859863 19.4349 0.859863Z" fill="#4F4F4F"/>
</g>
<defs>
<clipPath id="clip0_14_1282">
<rect width="21" height="20" fill="white" transform="translate(0.0749512 0.859863)"/>
</clipPath>
</defs>
</svg>
