<svg width="50" height="45" viewBox="0 0 50 45" fill="none" xmlns="http://www.w3.org/2000/svg">
<g clip-path="url(#clip0_14_604)">
<g clip-path="url(#clip1_14_604)">
<path d="M49.42 14.4259C49.42 6.96386 43.387 0.893862 35.918 0.893862C33.7668 0.894145 31.6467 1.40774 29.7339 2.39197C27.8211 3.37621 26.1708 4.80267 24.92 6.55286C20.6 0.468862 12.18 -0.967138 6.10299 3.35686C3.9105 4.91564 2.23329 7.09346 1.28621 9.61136C0.339127 12.1293 0.165297 14.8726 0.786988 17.4899C2.65999 29.1729 15.637 41.4879 24.92 44.8599C34.22 41.4739 47.18 29.1589 49.054 17.4899C49.288 16.4779 49.42 15.4519 49.42 14.4099" fill="#F0034E"/>
</g>
</g>
<defs>
<clipPath id="clip0_14_604">
<rect width="49" height="44" fill="white" transform="translate(0.419983 0.859863)"/>
</clipPath>
<clipPath id="clip1_14_604">
<rect width="49" height="44" fill="white" transform="translate(0.419983 0.859863)"/>
</clipPath>
</defs>
</svg>
