<svg width="21" height="21" viewBox="0 0 21 21" fill="none" xmlns="http://www.w3.org/2000/svg">
<g clip-path="url(#clip0_14_1274)">
<path d="M15.787 1.85986H4.36295C3.49108 1.86039 2.65507 2.20698 2.03857 2.82348C1.42206 3.43999 1.07548 4.27599 1.07495 5.14786V16.5719C1.07548 17.4437 1.42206 18.2797 2.03857 18.8962C2.65507 19.5128 3.49108 19.8593 4.36295 19.8599H15.787C16.6588 19.8593 17.4948 19.5128 18.1113 18.8962C18.7278 18.2797 19.0744 17.4437 19.075 16.5719V5.14786C19.0744 4.27599 18.7278 3.43999 18.1113 2.82348C17.4948 2.20698 16.6588 1.86039 15.787 1.85986Z" stroke="#4F4F4F" stroke-width="2" stroke-linecap="round" stroke-linejoin="round"/>
<path d="M10.075 15.5738C11.3253 15.5738 12.5245 15.0771 13.4086 14.1929C14.2928 13.3088 14.7895 12.1096 14.7895 10.8593C14.7895 9.60891 14.2928 8.40976 13.4086 7.52562C12.5245 6.64148 11.3253 6.14478 10.075 6.14478C8.82461 6.14478 7.62546 6.64148 6.74132 7.52562C5.85718 8.40976 5.36047 9.60891 5.36047 10.8593C5.36047 12.1096 5.85718 13.3088 6.74132 14.1929C7.62546 15.0771 8.82461 15.5738 10.075 15.5738Z" stroke="#4F4F4F" stroke-width="2" stroke-linecap="round" stroke-linejoin="round"/>
<path d="M15.388 6.22983C15.7062 6.22983 16.0115 6.10341 16.2365 5.87836C16.4616 5.65332 16.588 5.34809 16.588 5.02983C16.588 4.71157 16.4616 4.40635 16.2365 4.18131C16.0115 3.95626 15.7062 3.82983 15.388 3.82983C15.0697 3.82983 14.7645 3.95626 14.5395 4.18131C14.3144 4.40635 14.188 4.71157 14.188 5.02983C14.188 5.34809 14.3144 5.65332 14.5395 5.87836C14.7645 6.10341 15.0697 6.22983 15.388 6.22983Z" fill="#4F4F4F"/>
</g>
<defs>
<clipPath id="clip0_14_1274">
<rect width="20" height="20" fill="white" transform="translate(0.0749512 0.859863)"/>
</clipPath>
</defs>
</svg>
