<svg width="194" height="50" viewBox="0 0 194 50" fill="none" xmlns="http://www.w3.org/2000/svg">
<g clip-path="url(#clip0_14_9)">
<mask id="mask0_14_9" style="mask-type:luminance" maskUnits="userSpaceOnUse" x="0" y="0" width="194" height="50">
<path d="M0.799988 0.875H193.8V49.125H0.799988V0.875Z" fill="white"/>
</mask>
<g mask="url(#mask0_14_9)">
<path d="M193.8 5.24968C193.803 5.66287 193.723 6.07247 193.567 6.45489C193.41 6.8373 193.18 7.18497 192.888 7.47785C192.597 7.77073 192.25 8.00303 191.869 8.16137C191.487 8.31971 191.078 8.40095 190.665 8.40041C188.92 8.40041 187.511 6.98025 187.511 5.24888C187.511 3.51751 188.914 2.11584 190.665 2.11584C192.415 2.11584 193.8 3.50625 193.8 5.24968ZM193.211 5.24888C193.211 3.84319 192.068 2.71977 190.665 2.71977C189.261 2.71977 188.101 3.84319 188.101 5.24807C188.101 6.65295 189.244 7.79487 190.665 7.79487C192.086 7.79487 193.211 6.66984 193.211 5.24888ZM191.332 5.59467L192.065 6.83872H191.429L190.749 5.66302H190.184V6.83872H189.578V3.58908H190.91C191.528 3.58908 191.984 4.04182 191.984 4.65621C191.984 5.12182 191.724 5.46037 191.329 5.59708L191.332 5.59467ZM190.184 5.11699H190.866C191.19 5.11699 191.397 4.92802 191.397 4.63932C191.397 4.35062 191.19 4.14637 190.866 4.14637H190.184V5.11699Z" fill="#3EB0DE"/>
<path fill-rule="evenodd" clip-rule="evenodd" d="M66.4843 9.00506C66.4843 7.89773 65.5869 7.05737 64.4417 7.05737H60.9436V10.9592H64.4538C65.6118 10.9592 66.4843 10.0907 66.4843 9.00506ZM34.55 13.8711H39.5906L37.0494 7.70714L34.55 13.8711ZM64.5342 12.5571H60.9436V16.869H64.5262C65.8289 16.869 66.8076 15.9603 66.8076 14.7138C66.8076 13.4674 65.8289 12.5571 64.5342 12.5571Z" fill="#F0034E"/>
<path fill-rule="evenodd" clip-rule="evenodd" d="M95.2888 0.875H0.799988V23.1199H95.2888L106.463 11.999L95.2888 0.875ZM8.7741 18.4862H7.14165V5.45634H8.7741V18.4862ZM16.2207 18.6535C13.3498 18.6535 11.4094 17.0404 11.4094 14.4719H13.0764C13.0764 16.0906 14.3952 17.0524 16.2022 17.0524C17.8387 17.0524 19.1326 16.1839 19.1326 14.8032C19.1326 13.2801 17.587 12.9206 15.895 12.5266C13.8838 12.0489 11.6546 11.5149 11.6546 8.91586C11.6546 6.66661 13.3932 5.29229 16.0904 5.29229C18.7876 5.29229 20.4458 6.79045 20.4458 9.15148H18.8286C18.8286 7.70237 17.6465 6.85559 16.0566 6.85559C14.4676 6.85559 13.2879 7.6099 13.2879 8.84751C13.2879 10.2773 14.7869 10.6376 16.4563 11.0308C18.5053 11.5278 20.8149 12.0795 20.8149 14.7879C20.8149 17.2478 18.8125 18.6535 16.2183 18.6535H16.2207ZM27.4637 18.4854H25.8313V6.98908H21.8643V5.45714H31.4315V6.98908H27.4637V18.4854ZM41.5045 18.4854L40.2098 15.3653H33.9453L32.6699 18.4854H30.9313L36.2645 5.45714H37.7884L43.2704 18.4854H41.4981H41.5045ZM55.7736 18.4854H54.3953L46.9752 8.31676V18.4862H45.3774V5.45714H46.857L54.1741 15.5044V5.45714H55.7728L55.7736 18.4854ZM64.5455 18.4854H59.3272V5.45714H64.4771C66.6098 5.45714 68.1522 6.88373 68.1522 8.78559C68.1522 9.95163 67.5289 11.1523 66.5479 11.7288C67.7549 12.2435 68.4939 13.4755 68.4939 14.9029C68.4939 16.9221 66.7867 18.4887 64.5455 18.4887V18.4854ZM81.4225 13.6339C81.4225 16.6029 79.24 18.7026 76.3137 18.7026C73.3865 18.7026 71.1887 16.6029 71.1887 13.6339V5.45714H72.8397V13.5157C72.8397 15.6564 74.2799 17.1055 76.3161 17.1055C78.3522 17.1055 79.774 15.6596 79.774 13.5157V5.45714H81.4257V13.6339H81.4225ZM92.1847 18.4854H84.8217V5.45714H86.4542V16.9535H92.1815V18.4854H92.1847Z" fill="#F0034E"/>
<path d="M15.9923 33.0835H10.5545V48.702H6.32462V33.0835H0.886841V29.1592H15.9915L15.9923 33.0835ZM17.0594 38.925C17.0594 33.1245 21.5258 28.7281 27.4951 28.7281C33.4644 28.7281 37.8849 33.1028 37.8849 38.925C37.8849 44.7471 33.4395 49.1218 27.4951 49.1218C21.5507 49.1218 17.0594 44.7262 17.0594 38.925ZM33.5987 38.925C33.5987 35.3794 30.9788 32.7176 27.4959 32.7176C24.0131 32.7176 21.3464 35.4076 21.3464 38.9258C21.3464 42.4432 24.0098 45.1323 27.4959 45.1323C30.982 45.1323 33.5987 42.4706 33.5987 38.925ZM41.0083 41.3407V29.1527H45.2455V41.1453C45.2455 43.5867 46.8377 45.1315 49.0918 45.1315C51.3451 45.1315 52.9309 43.5875 52.9309 41.1453V29.1527H57.1689V41.3407C57.1689 45.9228 53.7109 49.121 49.0918 49.121C44.4727 49.121 41.0115 45.9196 41.0115 41.3407H41.0083ZM68.3765 42.0299H65.6641V48.6988H61.4326V29.156H69.3262C73.2441 29.156 76.1617 31.8515 76.1617 35.6215C76.1617 38.1771 74.7624 40.2679 72.5984 41.3101L76.9248 48.6988H72.1979L68.3765 42.0299ZM65.6641 38.124H69.0496C70.8196 38.124 71.8779 37.0601 71.8779 35.5925C71.8779 34.1257 70.8228 33.0618 69.0504 33.0618H65.6641V38.1208V38.124ZM79.8978 29.1592H84.1285V48.702H79.897L79.8978 29.1592ZM87.5181 42.366H91.7834C91.7834 44.2558 93.3443 45.1645 95.0733 45.1645C96.6655 45.1645 98.224 44.3234 98.224 42.8686C98.224 41.4139 96.4419 40.9362 94.3189 40.4432C91.3701 39.7171 87.7915 38.8606 87.7915 34.6516C87.7915 30.9042 90.5538 28.7917 94.8843 28.7917C99.2147 28.7917 101.934 31.1897 101.934 35.0827H97.7519C97.7519 33.402 96.3615 32.6107 94.7813 32.6107C93.4094 32.6107 92.0222 33.1897 92.0222 34.4715C92.0222 35.8458 93.7198 36.2648 95.7906 36.7578C98.77 37.5113 102.514 38.4385 102.514 42.8196C102.514 47.2007 99.1488 49.0888 95.1014 49.0888C90.6101 49.0888 87.5181 46.5694 87.5181 42.366ZM119.023 33.0835H113.584V48.702H109.354V33.0835H103.916V29.1592H119.02V33.0835H119.023Z" fill="#FE7711"/>
<path d="M136.286 35.8747C136.286 39.7275 133.31 42.5943 129.383 42.5943H126.089V48.6956H121.858V29.1535H129.383C133.303 29.1535 136.286 32.0163 136.286 35.8763M132 35.8763C132 34.2511 130.876 33.0722 129.2 33.0722H126.092V38.6805H129.2C130.879 38.6805 132 37.5024 132 35.8763ZM149.32 44.9956H141.538L140.197 48.6988H135.705L143.369 29.1559H147.364L155.276 48.6988H150.685L149.32 44.9956ZM142.857 41.3101H147.988L145.408 34.3211L142.857 41.3101ZM155.904 42.366H160.169C160.169 44.2558 161.73 45.1645 163.459 45.1645C165.051 45.1645 166.609 44.3233 166.609 42.8686C166.609 41.4138 164.828 40.9361 162.704 40.4432C159.756 39.717 156.177 38.8606 156.177 34.6516C156.177 30.9042 158.939 28.7916 163.27 28.7916C167.6 28.7916 170.319 31.1896 170.319 35.0826H166.137C166.137 33.4019 164.747 32.6106 163.167 32.6106C161.795 32.6106 160.408 33.1896 160.408 34.4715C160.408 35.8458 162.105 36.2647 164.176 36.7577C167.156 37.5112 170.9 38.4384 170.9 42.8195C170.9 47.2006 167.534 49.0888 163.487 49.0888C158.996 49.0888 155.904 46.5693 155.904 42.366ZM173.2 42.366H177.464C177.464 44.2558 179.026 45.1645 180.755 45.1645C182.347 45.1645 183.905 44.3233 183.905 42.8686C183.905 41.4138 182.123 40.9361 180 40.4432C177.052 39.717 173.472 38.8606 173.472 34.6516C173.472 30.9042 176.235 28.7916 180.566 28.7916C184.896 28.7916 187.615 31.1896 187.615 35.0826H183.433C183.433 33.4019 182.043 32.6106 180.463 32.6106C179.091 32.6106 177.704 33.1896 177.704 34.4715C177.704 35.8458 179.401 36.2647 181.472 36.7577C184.452 37.5112 188.196 38.4384 188.196 42.8195C188.196 47.2006 184.83 49.0888 180.783 49.0888C176.291 49.0888 173.2 46.5693 173.2 42.366Z" fill="#3EB0DE"/>
<path fill-rule="evenodd" clip-rule="evenodd" d="M186.907 10.7864C186.907 10.7864 186.81 10.5749 186.643 10.1133V9.92672H186.575C186.416 9.47639 186.209 8.8411 185.966 7.99109C185.091 4.93204 185.113 3.64859 185.113 3.64859C185.113 3.64859 185.103 3.69443 185.091 3.77565L185.069 3.64779C185.069 3.64779 185.091 4.93204 184.215 7.99109C183.654 9.95487 183.278 10.7896 183.278 10.7896L183.632 10.8604V15.0107C183.247 14.5523 181.441 12.6319 177.985 12.4832V11.9339H177.017V12.4856C173.888 12.5821 172.289 13.9974 171.445 14.7565V10.8419L171.706 10.7888C171.706 10.7888 171.33 9.95487 170.769 7.99109C169.893 4.93204 169.915 3.64859 169.915 3.64859L169.893 3.77243C169.881 3.69443 169.871 3.64779 169.871 3.64779C169.871 3.64779 169.893 4.93204 169.018 7.99109C168.456 9.95487 168.08 10.7896 168.08 10.7896L168.434 10.8604V20.2193C168.121 20.0488 167.326 19.6612 166.1 19.4223C165.116 19.2293 163.97 19.202 162.154 19.5373L165.258 2.23326L164.309 2.06278L164.2 2.67394L162.301 2.33298L162.409 1.72181L161.46 1.55133L161.292 2.48175C159.709 4.39245 153.501 11.1708 145.088 11.1708C136.676 11.1708 130.372 4.52031 128.733 2.52196L128.525 1.35913L127.575 1.52961L127.684 2.14078L125.784 2.48175L125.675 1.8738L124.725 2.04428L127.879 19.6394C127.544 19.6676 127.2 19.6861 126.843 19.6861C124.201 19.6861 122.065 18.8393 120.83 18.2153L120.823 12.2805H120.414V9.87686L120.441 9.90823L121.125 9.5359C121.125 9.5359 119.986 8.46636 119.141 7.05102C118.582 6.11738 118.263 5.16847 118.113 4.65943V4.65621C118.077 4.533 118.044 4.40885 118.014 4.28389L117.723 4.44231L117.431 4.28389C117.431 4.28389 117.4 4.42381 117.332 4.65621V4.65943C117.182 5.16847 116.863 6.11738 116.304 7.05102C115.46 8.46636 114.32 9.5359 114.32 9.5359L114.932 9.86802V12.2805H114.622V17.2631C112.297 17.7537 111.105 18.5289 110.099 19.3636C108.612 20.598 107.861 22.0375 107.861 22.0375L107.886 23.6161C107.886 23.6161 110.487 18.8176 114.762 18.5168V18.5072H115.395V12.5885H115.705L115.711 9.62275H115.286C115.674 9.21986 116.397 8.41328 116.978 7.43863C117.3 6.89582 117.546 6.34979 117.723 5.88498C117.903 6.34979 118.145 6.89582 118.467 7.43863C119.048 8.41328 119.768 9.21986 120.159 9.62275H119.628L119.635 12.5885H120.044V18.0416C120.032 18.2683 120.044 18.5884 120.035 18.6005C120.938 19.1714 122.789 20.4581 126.843 20.4581C127.252 20.4576 127.643 20.4401 128.016 20.4058L128.435 22.7443L129.385 22.5739L128.975 20.2876C129.701 20.1734 130.334 20.0142 130.859 19.8469L131.287 22.2329L132.237 22.0624L131.781 19.5124C132.014 19.4159 132.2 19.329 132.33 19.2639C135.22 18.5289 139.638 17.7199 145.088 17.7199C150.539 17.7199 155.387 18.6495 158.256 19.4167L157.747 22.2578L158.696 22.4283L159.19 19.6764C159.815 19.8582 160.433 20.058 161.046 20.2755L160.599 22.7693L161.55 22.9397L161.996 20.4525C164.762 19.6515 167.314 20.6599 168.434 21.2277V22.3447H169.4L169.406 10.1157H169.279C169.446 9.49247 169.673 8.57733 169.871 7.50698C169.881 7.45445 169.889 7.40164 169.896 7.34856C169.906 7.40164 169.911 7.45471 169.921 7.50698C170.123 8.57733 170.35 9.49247 170.514 10.1157H170.48L170.486 22.3447H171.451V15.8486C172.485 14.8965 174.245 13.4385 177.421 13.4385C180.916 13.4506 183.113 15.424 183.635 15.9475V22.3447H184.597L184.604 9.92994H184.526C184.687 9.31556 184.889 8.4744 185.069 7.50698C185.079 7.45445 185.087 7.40164 185.094 7.34856L185.119 7.50698C185.276 8.33941 185.462 9.16607 185.677 9.98543L185.684 22.3447H186.649L186.643 10.8419L186.903 10.7896L186.907 10.7864ZM162.331 13.1064L160.432 12.7654L161.67 5.85684C162.461 5.15322 163.202 4.39663 163.89 3.5923L164.035 3.61643L162.335 13.1032L162.331 13.1064ZM163.424 3.50867C162.908 4.0405 162.371 4.55285 161.817 5.04463L162.133 3.27868L163.424 3.51189V3.50867ZM145.092 11.6171C153.715 11.6171 159.401 5.45958 161.155 3.2634L160.662 6.01847C157.356 8.68026 151.821 12.0578 145.03 12.0578C138.238 12.0578 132.722 8.84753 129.403 6.2163L128.864 3.19826C130.514 5.36388 136.062 11.6179 145.095 11.6179L145.092 11.6171ZM128.246 5.25532C127.56 4.6594 126.905 4.02864 126.284 3.36553L127.854 3.08407L128.243 5.25532H128.246ZM128.817 19.3821L127.826 13.8631L129.726 13.5222L130.658 18.7147C129.717 19.0122 129.102 19.2615 128.817 19.3821ZM127.656 12.9142L125.967 3.4958C126.237 3.8432 127.05 4.83072 128.382 6.03054L129.555 12.5732L127.656 12.9142ZM145.088 16.7517C138.849 16.7517 134.301 17.6692 131.589 18.4356L129.54 7.01403C132.725 9.56083 137.936 12.5081 145.023 12.5081C152.11 12.5081 157.296 9.4209 160.509 6.84033L158.43 18.4324C155.674 17.6692 151.11 16.7517 145.088 16.7517ZM159.361 18.7026L160.255 13.7143L162.154 14.0553L161.205 19.3451C160.598 19.1061 159.982 18.8917 159.358 18.7026H159.361Z" fill="#3EB0DE"/>
</g>
</g>
<defs>
<clipPath id="clip0_14_9">
<rect width="193" height="48.25" fill="white" transform="translate(0.799988 0.875)"/>
</clipPath>
</defs>
</svg>
