<svg width="18" height="22" viewBox="0 0 18 22" fill="none" xmlns="http://www.w3.org/2000/svg">
<g clip-path="url(#clip0_14_1322)">
<g clip-path="url(#clip1_14_1322)">
<mask id="mask0_14_1322" style="mask-type:luminance" maskUnits="userSpaceOnUse" x="0" y="0" width="18" height="22">
<path d="M0.199951 0.859863H17.2V21.8599H0.199951V0.859863Z" fill="white"/>
</mask>
<g mask="url(#mask0_14_1322)">
<path d="M14.976 7.99784C15.536 7.99784 16.022 8.18984 16.434 8.57384C17.052 9.14984 17.052 9.40984 17.052 9.93184V19.7878C17.052 20.3092 16.846 20.7618 16.434 21.1458C16.0423 21.5216 15.5187 21.7284 14.976 21.7218H2.32495C1.73162 21.7218 1.22928 21.5298 0.817951 21.1458C0.405951 20.7618 0.199951 20.3092 0.199951 19.7878V9.93184C0.199951 9.41051 0.405951 8.95784 0.817951 8.57384C1.22995 8.18984 1.73228 7.99784 2.32495 7.99784H3.36295V6.01784C3.36295 4.66718 3.88162 3.50818 4.91895 2.54084C5.95628 1.57351 7.20028 1.08984 8.65095 1.08984C10.826 1.08984 11.336 1.57284 12.357 2.53984C13.3783 3.50651 13.889 4.66551 13.889 6.01684V7.99684L14.976 7.99784ZM8.62595 16.8398C9.20195 16.8398 9.69595 16.6482 10.108 16.2648C10.52 15.8808 10.726 15.4125 10.726 14.8598C10.726 14.3072 10.52 13.8388 10.108 13.4548C9.69662 13.0715 9.20262 12.8798 8.62595 12.8798C7.76095 12.8798 7.55595 13.0718 7.14295 13.4548C6.94557 13.6313 6.78835 13.848 6.68191 14.0904C6.57547 14.3327 6.52228 14.5951 6.52595 14.8598C6.52595 15.4125 6.73162 15.8808 7.14295 16.2648C7.55495 16.6482 8.04928 16.8398 8.62595 16.8398ZM11.912 7.99784V6.01784C11.912 5.18851 11.5906 4.47451 10.948 3.87584C10.306 3.27784 9.53195 2.97851 8.62595 2.97784C7.26595 2.97784 6.95395 3.27784 6.32795 3.87584C5.70128 4.47584 5.38795 5.18984 5.38795 6.01784V7.99784H11.912Z" fill="white"/>
</g>
</g>
</g>
<defs>
<clipPath id="clip0_14_1322">
<rect width="17" height="21" fill="white" transform="translate(0.199951 0.859863)"/>
</clipPath>
<clipPath id="clip1_14_1322">
<rect width="17" height="21" fill="white" transform="translate(0.199951 0.859863)"/>
</clipPath>
</defs>
</svg>
