<svg width="41" height="41" viewBox="0 0 41 41" fill="none" xmlns="http://www.w3.org/2000/svg">
<g clip-path="url(#clip0_14_151)">
<path d="M20.7969 11.171C20.8994 11.171 21.001 11.1508 21.0957 11.1116C21.1905 11.0723 21.2766 11.0148 21.3491 10.9423C21.4216 10.8697 21.4792 10.7836 21.5184 10.6889C21.5577 10.5941 21.5779 10.4926 21.5779 10.39C21.5779 10.2874 21.5577 10.1859 21.5184 10.0911C21.4792 9.99638 21.4216 9.91028 21.3491 9.83776C21.2766 9.76524 21.1905 9.70771 21.0957 9.66846C21.001 9.62921 20.8994 9.60901 20.7969 9.60901C20.5897 9.60901 20.3911 9.69129 20.2446 9.83776C20.0982 9.98422 20.0159 10.1829 20.0159 10.39C20.0159 10.5971 20.0982 10.7958 20.2446 10.9423C20.3911 11.0887 20.5897 11.171 20.7969 11.171Z" fill="#00B2E3"/>
<path d="M40.0159 35.703H39.0779V33.359C39.0781 33.2563 39.0581 33.1546 39.019 33.0597C38.9799 32.9648 38.9223 32.8785 38.8498 32.8058C38.7772 32.7332 38.691 32.6756 38.5961 32.6363C38.5013 32.597 38.3996 32.5769 38.2969 32.577H37.8279V31.34C37.8272 30.938 37.7084 30.5451 37.4861 30.2101C37.2638 29.8751 36.948 29.6129 36.5779 29.456V26.824C36.5779 26.6169 36.4956 26.4182 36.3491 26.2718C36.2027 26.1253 36.004 26.043 35.7969 26.043C35.5898 26.043 35.3911 26.1253 35.2446 26.2718C35.0982 26.4182 35.0159 26.6169 35.0159 26.824V29.301H33.4529V18.202H35.0159V20.73C35.0159 20.8326 35.0361 20.9341 35.0753 21.0289C35.1146 21.1237 35.1721 21.2098 35.2446 21.2823C35.3172 21.3548 35.4033 21.4123 35.498 21.4516C35.5928 21.4908 35.6943 21.511 35.7969 21.511C35.8994 21.511 36.001 21.4908 36.0958 21.4516C36.1905 21.4123 36.2766 21.3548 36.3491 21.2823C36.4217 21.2098 36.4792 21.1237 36.5184 21.0289C36.5577 20.9341 36.5779 20.8326 36.5779 20.73V18.042C36.9479 17.8852 37.2636 17.6231 37.4858 17.2883C37.7081 16.9536 37.827 16.5609 37.8279 16.159V14.92H38.2969C38.3995 14.9202 38.5011 14.9 38.5959 14.8608C38.6907 14.8216 38.7769 14.7641 38.8494 14.6916C38.922 14.619 38.9795 14.5329 39.0187 14.4381C39.0579 14.3432 39.078 14.2416 39.0779 14.139V11.172H39.1559C39.3329 11.1743 39.5054 11.1163 39.6451 11.0075C39.7848 10.8988 39.8833 10.7457 39.9245 10.5735C39.9657 10.4014 39.9471 10.2203 39.8717 10.0601C39.7964 9.89989 39.6688 9.77009 39.5099 9.69203L21.1449 0.473025C21.036 0.418164 20.9158 0.389587 20.7939 0.389587C20.672 0.389587 20.5518 0.418164 20.4429 0.473025L2.08689 9.69203C1.92946 9.77104 1.80336 9.90096 1.72908 10.0607C1.6548 10.2204 1.63669 10.4005 1.67769 10.5718C1.71869 10.7431 1.8164 10.8956 1.95495 11.0043C2.09349 11.1131 2.26474 11.1718 2.44089 11.171H2.51889V14.14C2.51889 14.3469 2.60106 14.5453 2.74734 14.6916C2.89362 14.8378 3.09202 14.92 3.29889 14.92H3.76889V16.16C3.76976 16.5619 3.88871 16.9546 4.11095 17.2893C4.33319 17.6241 4.64891 17.8862 5.01889 18.043V29.455C4.64876 29.6119 4.33292 29.8741 4.11067 30.2091C3.88842 30.5441 3.76956 30.937 3.76889 31.339V32.577H3.29889C3.19629 32.577 3.09469 32.5973 2.99993 32.6366C2.90516 32.6759 2.81909 32.7335 2.74663 32.8062C2.67418 32.8788 2.61677 32.9651 2.57768 33.0599C2.5386 33.1548 2.51862 33.2564 2.51889 33.359V35.702H1.57889C1.47595 35.7018 1.37398 35.7219 1.27885 35.7612C1.18372 35.8005 1.09732 35.8583 1.02463 35.9312C0.951933 36.0041 0.894384 36.0906 0.855296 36.1858C0.816209 36.2811 0.796357 36.3831 0.796885 36.486V39.609C0.796754 39.7116 0.816865 39.8132 0.856067 39.9081C0.89527 40.0029 0.952793 40.089 1.02534 40.1616C1.09789 40.2341 1.18404 40.2916 1.27885 40.3308C1.37367 40.37 1.47529 40.3902 1.57789 40.39H40.0169C40.2239 40.3895 40.4222 40.307 40.5686 40.1607C40.7149 40.0143 40.7974 39.816 40.7979 39.609V36.486C40.7983 36.3833 40.7784 36.2814 40.7393 36.1864C40.7002 36.0913 40.6427 36.0049 40.5701 35.9322C40.4976 35.8594 40.4113 35.8017 40.3164 35.7624C40.2214 35.7231 40.1187 35.7029 40.0159 35.703ZM35.7849 30.859C35.8483 30.8588 35.9112 30.8711 35.9699 30.8953C36.0285 30.9195 36.0818 30.955 36.1267 31C36.1715 31.0449 36.207 31.0982 36.231 31.1569C36.2551 31.2157 36.2673 31.2786 36.2669 31.342V32.58H32.2039V31.342C32.2035 31.2786 32.2157 31.2157 32.2397 31.1569C32.2638 31.0982 32.2993 31.0449 32.3441 31C32.3889 30.955 32.4422 30.9195 32.5009 30.8953C32.5595 30.8711 32.6224 30.8588 32.6859 30.859H35.7849ZM28.8719 32.579V31.339C28.871 30.9372 28.7521 30.5445 28.5298 30.2097C28.3076 29.8749 27.9919 29.6128 27.6219 29.456V18.044C27.992 17.8871 28.3078 17.6249 28.5301 17.2899C28.7523 16.955 28.8712 16.562 28.8719 16.16V14.922H30.6409V16.16C30.6416 16.562 30.7604 16.955 30.9827 17.2899C31.2049 17.6249 31.5208 17.8871 31.8909 18.044V29.456C31.5208 29.6129 31.2049 29.8751 30.9827 30.2101C30.7604 30.5451 30.6416 30.938 30.6409 31.34V32.578L28.8719 32.579ZM19.9129 32.579V31.339C19.912 30.9372 19.7931 30.5445 19.5708 30.2097C19.3486 29.8749 19.0329 29.6128 18.6629 29.456V18.044C19.033 17.8871 19.3488 17.6249 19.5711 17.2899C19.7933 16.955 19.9122 16.562 19.9129 16.16V14.922H21.6829V16.16C21.6836 16.562 21.8024 16.955 22.0247 17.2899C22.2469 17.6249 22.5628 17.8871 22.9329 18.044V29.456C22.5628 29.6129 22.2469 29.8751 22.0247 30.2101C21.8024 30.5451 21.6836 30.938 21.6829 31.34V32.578L19.9129 32.579ZM10.9549 32.579V31.339C10.954 30.9372 10.8351 30.5445 10.6128 30.2097C10.3906 29.8749 10.0749 29.6128 9.70489 29.456V18.044C10.075 17.8871 10.3908 17.6249 10.6131 17.2899C10.8353 16.955 10.9542 16.562 10.9549 16.16V14.922H12.7249V16.16C12.7256 16.562 12.8444 16.955 13.0667 17.2899C13.2889 17.6249 13.6048 17.8871 13.9749 18.044V29.456C13.6048 29.6129 13.2889 29.8751 13.0667 30.2101C12.8444 30.5451 12.7256 30.938 12.7249 31.34V32.578L10.9549 32.579ZM6.57789 18.201H8.13989V29.295H6.57689L6.57789 18.201ZM15.5369 18.201H17.0989V29.295H15.5369V18.201ZM18.3489 16.157C18.3491 16.2204 18.3369 16.2832 18.3127 16.3418C18.2886 16.4004 18.2531 16.4536 18.2083 16.4984C18.1635 16.5433 18.1102 16.5787 18.0517 16.6029C17.9931 16.627 17.9303 16.6393 17.8669 16.639H14.7699C14.7065 16.6393 14.6437 16.627 14.5851 16.6029C14.5265 16.5787 14.4733 16.5433 14.4285 16.4984C14.3837 16.4536 14.3482 16.4004 14.324 16.3418C14.2999 16.2832 14.2876 16.2204 14.2879 16.157V14.918H18.3489V16.157ZM14.2869 31.34C14.2866 31.2767 14.2989 31.2139 14.323 31.1553C14.3472 31.0967 14.3827 31.0434 14.4275 30.9986C14.4723 30.9538 14.5255 30.9183 14.5841 30.8942C14.6427 30.87 14.7055 30.8578 14.7689 30.858H17.8649C17.9283 30.8578 17.9911 30.87 18.0497 30.8942C18.1082 30.9183 18.1615 30.9538 18.2063 30.9986C18.2511 31.0434 18.2866 31.0967 18.3107 31.1553C18.3349 31.2139 18.3471 31.2767 18.3469 31.34V32.578H14.2869V31.34ZM24.4949 18.201H26.0569V29.295H24.4949V18.201ZM27.3069 16.157C27.3071 16.2204 27.2949 16.2832 27.2707 16.3418C27.2466 16.4004 27.2111 16.4536 27.1663 16.4984C27.1215 16.5433 27.0682 16.5787 27.0097 16.6029C26.9511 16.627 26.8883 16.6393 26.8249 16.639H23.7289C23.6655 16.6393 23.6027 16.627 23.5441 16.6029C23.4855 16.5787 23.4323 16.5433 23.3875 16.4984C23.3427 16.4536 23.3072 16.4004 23.283 16.3418C23.2589 16.2832 23.2466 16.2204 23.2469 16.157V14.918H27.3089L27.3069 16.157ZM23.2449 31.34C23.2446 31.2767 23.2569 31.2139 23.281 31.1553C23.3052 31.0967 23.3407 31.0434 23.3855 30.9986C23.4303 30.9538 23.4835 30.9183 23.5421 30.8942C23.6007 30.87 23.6635 30.8578 23.7269 30.858H26.8229C26.8863 30.8576 26.9492 30.8698 27.008 30.8939C27.0667 30.918 27.12 30.9534 27.1649 30.9983C27.2099 31.0431 27.2454 31.0964 27.2696 31.155C27.2938 31.2137 27.3062 31.2766 27.3059 31.34V32.578H23.2449V31.34ZM36.2649 16.158C36.2651 16.2214 36.2529 16.2842 36.2287 16.3428C36.2046 16.4014 36.1691 16.4546 36.1243 16.4994C36.0795 16.5443 36.0262 16.5797 35.9677 16.6039C35.9091 16.628 35.8463 16.6403 35.7829 16.64H32.6869C32.6236 16.6402 32.5609 16.6278 32.5024 16.6036C32.4439 16.5794 32.3908 16.5439 32.3461 16.4991C32.3014 16.4543 32.266 16.4011 32.2419 16.3426C32.2179 16.284 32.2056 16.2213 32.2059 16.158V14.92H36.2679L36.2649 16.158ZM16.9169 11.172C17.1242 11.172 17.3229 11.0897 17.4695 10.9431C17.616 10.7966 17.6984 10.5978 17.6984 10.3905C17.6984 10.1833 17.616 9.98448 17.4695 9.83792C17.3229 9.69136 17.1242 9.60903 16.9169 9.60903H5.73389L20.7969 2.04503L35.8599 9.61003H24.9369C24.7296 9.61003 24.5308 9.69236 24.3843 9.83892C24.2377 9.98548 24.1554 10.1843 24.1554 10.3915C24.1554 10.5988 24.2377 10.7976 24.3843 10.9441C24.5308 11.0907 24.7296 11.173 24.9369 11.173H37.5169V13.361H4.07689V11.173L16.9169 11.172ZM9.39089 14.922V16.16C9.39128 16.2235 9.37909 16.2864 9.35502 16.3451C9.33095 16.4038 9.29548 16.4572 9.25066 16.5021C9.20583 16.547 9.15255 16.5826 9.09388 16.6068C9.03522 16.631 8.97234 16.6433 8.90889 16.643H5.81189C5.74843 16.6433 5.68555 16.631 5.62689 16.6068C5.56822 16.5826 5.51494 16.547 5.47011 16.5021C5.42529 16.4572 5.38982 16.4038 5.36575 16.3451C5.34168 16.2864 5.32949 16.2235 5.32989 16.16V14.922H9.39089ZM5.32689 31.34C5.32662 31.2767 5.33891 31.2139 5.36304 31.1553C5.38717 31.0967 5.42266 31.0434 5.46747 30.9986C5.51228 30.9538 5.56552 30.9183 5.62412 30.8942C5.68272 30.87 5.74551 30.8578 5.80889 30.858H8.90689C8.97017 30.8579 9.03286 30.8703 9.09134 30.8945C9.14983 30.9187 9.20295 30.9542 9.24765 30.999C9.29236 31.0438 9.32776 31.097 9.35183 31.1555C9.3759 31.214 9.38815 31.2767 9.38789 31.34V32.578H5.32789L5.32689 31.34ZM4.07689 34.139H37.5179V35.701H4.07889L4.07689 34.139ZM39.2339 38.828H2.35889V37.264H39.2349L39.2339 38.828Z" fill="#00B2E3"/>
<path d="M35.7969 22.968C35.5895 22.968 35.3906 23.0504 35.2439 23.1971C35.0973 23.3437 35.0149 23.5426 35.0149 23.75C35.0149 23.9574 35.0973 24.1563 35.2439 24.303C35.3906 24.4496 35.5895 24.532 35.7969 24.532C36.0043 24.532 36.2032 24.4496 36.3498 24.303C36.4965 24.1563 36.5789 23.9574 36.5789 23.75C36.5789 23.5426 36.4965 23.3437 36.3498 23.1971C36.2032 23.0504 36.0043 22.968 35.7969 22.968Z" fill="#00B2E3"/>
</g>
<defs>
<clipPath id="clip0_14_151">
<rect width="40" height="40" fill="white" transform="translate(0.796875 0.390015)"/>
</clipPath>
</defs>
</svg>
