<svg width="30" height="17" viewBox="0 0 30 17" fill="none" xmlns="http://www.w3.org/2000/svg">
<g clip-path="url(#clip0_14_1182)">
<g clip-path="url(#clip1_14_1182)">
<path d="M0.908936 0.359863V4.25586C1.42786 4.2441 1.9439 4.33616 2.42676 4.52661C2.90961 4.71707 3.34954 5.00209 3.7207 5.36494C4.09187 5.72779 4.38679 6.16115 4.58813 6.63956C4.78948 7.11798 4.8932 7.6318 4.8932 8.15086C4.8932 8.66992 4.78948 9.18375 4.58813 9.66216C4.38679 10.1406 4.09187 10.5739 3.7207 10.9368C3.34954 11.2996 2.90961 11.5847 2.42676 11.7751C1.9439 11.9656 1.42786 12.0576 0.908936 12.0459L0.908936 15.9409H19.6769V13.1079H21.0939V15.9409H29.2389V12.0449C28.72 12.0566 28.204 11.9646 27.7211 11.7741C27.2383 11.5837 26.7983 11.2986 26.4272 10.9358C26.056 10.5729 25.7611 10.1396 25.5597 9.66116C25.3584 9.18275 25.2547 8.66892 25.2547 8.14986C25.2547 7.6308 25.3584 7.11698 25.5597 6.63856C25.7611 6.16015 26.056 5.72679 26.4272 5.36394C26.7983 5.00109 27.2383 4.71607 27.7211 4.52561C28.204 4.33516 28.72 4.2431 29.2389 4.25486V0.359863H21.0939V3.19286H19.6769V0.359863H0.908936ZM12.2399 3.19286L13.5679 6.49486L17.1979 6.71586L14.3979 8.97386L15.3089 12.4039L12.2439 10.5009L9.17794 12.4039L10.0889 8.97386L7.28594 6.71186L10.9159 6.49086L12.2399 3.19286ZM19.6769 4.60986H21.0939V7.44286H19.6769V4.60986ZM19.6769 8.85986H21.0939V11.6919H19.6769V8.85986Z" fill="white"/>
<mask id="mask0_14_1182" style="mask-type:luminance" maskUnits="userSpaceOnUse" x="19" y="0" width="11" height="17">
<path d="M29.9089 0.418945H19.5099V16.3599H29.9069L29.9089 0.418945Z" fill="white"/>
</mask>
<g mask="url(#mask0_14_1182)">
<path d="M0.912842 0.359863V4.25586C1.94586 4.25586 2.93657 4.66623 3.66702 5.39668C4.39748 6.12714 4.80784 7.11785 4.80784 8.15086C4.80784 9.18388 4.39748 10.1746 3.66702 10.905C2.93657 11.6355 1.94586 12.0459 0.912842 12.0459V15.9409H19.6808V13.1079H21.0978V15.9409H29.2428V12.0449C28.7239 12.0566 28.2079 11.9646 27.725 11.7741C27.2422 11.5837 26.8022 11.2986 26.4311 10.9358C26.0599 10.5729 25.765 10.1396 25.5636 9.66116C25.3623 9.18275 25.2586 8.66892 25.2586 8.14986C25.2586 7.6308 25.3623 7.11698 25.5636 6.63856C25.765 6.16015 26.0599 5.72679 26.4311 5.36394C26.8022 5.00109 27.2422 4.71607 27.725 4.52561C28.2079 4.33516 28.7239 4.2431 29.2428 4.25486V0.359863H21.0978V3.19286H19.6808V0.359863H0.912842ZM12.2438 3.19286L13.5718 6.49486L17.2018 6.71586L14.4018 8.97386L15.3128 12.4039L12.2478 10.5009L9.18184 12.4039L10.0928 8.97386L7.28984 6.71186L10.9198 6.49086L12.2438 3.19286ZM19.6808 4.60986H21.0978V7.44286H19.6808V4.60986ZM19.6808 8.85986H21.0978V11.6919H19.6808V8.85986Z" fill="#00B2E3"/>
</g>
</g>
</g>
<defs>
<clipPath id="clip0_14_1182">
<rect width="29" height="16" fill="white" transform="translate(0.908936 0.359863)"/>
</clipPath>
<clipPath id="clip1_14_1182">
<rect width="29" height="16" fill="white" transform="translate(0.908936 0.359863)"/>
</clipPath>
</defs>
</svg>
