<svg width="39" height="26" viewBox="0 0 39 26" fill="none" xmlns="http://www.w3.org/2000/svg">
<g clip-path="url(#clip0_14_1379)">
<g clip-path="url(#clip1_14_1379)">
<g clip-path="url(#clip2_14_1379)">
<mask id="mask0_14_1379" style="mask-type:luminance" maskUnits="userSpaceOnUse" x="0" y="0" width="38" height="26">
<path d="M0.199951 0.859863H37.297V25.8599H0.199951V0.859863Z" fill="white"/>
</mask>
<g mask="url(#mask0_14_1379)">
<mask id="mask1_14_1379" style="mask-type:luminance" maskUnits="userSpaceOnUse" x="0" y="0" width="38" height="26">
<path d="M34.0709 0.859863H3.42595C1.64395 0.859863 0.199951 2.35186 0.199951 4.19286V22.5269C0.199951 24.3669 1.64395 25.8599 3.42595 25.8599H34.07C35.852 25.8599 37.296 24.3679 37.296 22.5269V4.19286C37.297 2.35286 35.854 0.859863 34.0709 0.859863Z" fill="white"/>
</mask>
<g mask="url(#mask1_14_1379)">
<path d="M34.0709 0.859863H3.42595C1.64395 0.859863 0.199951 2.35186 0.199951 4.19286V22.5269C0.199951 24.3669 1.64395 25.8599 3.42595 25.8599H34.07C35.852 25.8599 37.296 24.3679 37.296 22.5269V4.19286C37.297 2.35286 35.854 0.859863 34.0709 0.859863Z" fill="white" stroke="#DADBD2" stroke-width="2"/>
</g>
<path fill-rule="evenodd" clip-rule="evenodd" d="M6.66097 9.98682H4.22797C4.14725 9.98909 4.0698 10.0192 4.00874 10.0721C3.94769 10.1249 3.90679 10.1973 3.89297 10.2768L2.90897 16.5518C2.89297 16.6768 2.98897 16.7938 3.10997 16.7938H4.27997C4.44997 16.7938 4.59397 16.6768 4.61797 16.5098L4.87697 14.8098C4.89398 14.7319 4.93641 14.6618 4.99759 14.6105C5.05877 14.5593 5.13524 14.5299 5.21497 14.5268H5.98897C7.59397 14.5268 8.52197 13.7438 8.76397 12.2018C8.86797 11.5268 8.77197 11.0018 8.45697 10.6268C8.10997 10.2188 7.49697 10.0018 6.68297 10.0018M6.97297 12.2938C6.83597 13.1768 6.16697 13.1768 5.52197 13.1768H5.14997L5.40797 11.5438C5.41588 11.4965 5.44053 11.4536 5.47743 11.4229C5.51432 11.3923 5.56101 11.3759 5.60897 11.3768H5.77097C6.21397 11.3768 6.62597 11.3768 6.84297 11.6328C6.96997 11.7828 7.01097 12.0058 6.96397 12.3128M13.956 12.2888H12.78C12.731 12.2878 12.684 12.3048 12.647 12.3368C12.61 12.3688 12.584 12.4138 12.576 12.4638L12.526 12.7928L12.442 12.6728C12.192 12.3058 11.636 12.1858 11.072 12.1858C9.78897 12.1858 8.68397 13.1608 8.47397 14.5358C8.36097 15.2258 8.52297 15.8778 8.90997 16.3408C9.26497 16.7578 9.77297 16.9328 10.377 16.9328C11.417 16.9328 11.99 16.2578 11.99 16.2578L11.942 16.5828C11.9371 16.6119 11.9387 16.6416 11.9467 16.67C11.9547 16.6984 11.9688 16.7246 11.9881 16.7469C12.0074 16.7691 12.0314 16.7869 12.0583 16.7988C12.0853 16.8107 12.1145 16.8165 12.144 16.8158H13.192C13.362 16.8158 13.507 16.6988 13.531 16.5328L14.16 12.5238C14.1655 12.4953 14.1645 12.466 14.1573 12.4379C14.1501 12.4098 14.1367 12.3837 14.1181 12.3614C14.0996 12.3391 14.0763 12.3212 14.05 12.309C14.0237 12.2968 13.995 12.2906 13.966 12.2908M12.329 14.5578C12.2831 14.8718 12.1243 15.1583 11.8825 15.3637C11.6406 15.5691 11.3322 15.6793 11.015 15.6738C10.675 15.6738 10.41 15.5628 10.232 15.3578C10.063 15.1488 9.99797 14.8578 10.055 14.5368C10.0987 14.2226 10.2554 13.9351 10.4958 13.728C10.7362 13.5209 11.0437 13.4085 11.361 13.4118C11.692 13.4118 11.958 13.5198 12.136 13.7288C12.313 13.9368 12.386 14.2368 12.337 14.5538M20.167 12.2788C20.337 12.2788 20.434 12.4698 20.337 12.5948L16.442 18.2448C16.4108 18.2896 16.3697 18.3265 16.3217 18.3525C16.2738 18.3786 16.2205 18.393 16.166 18.3948H14.989C14.9522 18.3948 14.9162 18.3847 14.8849 18.3656C14.8535 18.3465 14.828 18.3191 14.8112 18.2865C14.7943 18.2539 14.7868 18.2172 14.7894 18.1806C14.792 18.1439 14.8047 18.1087 14.826 18.0788L16.041 16.3578L14.751 12.5488C14.7406 12.5177 14.7376 12.4846 14.7423 12.4521C14.7469 12.4196 14.7592 12.3887 14.778 12.3618C14.7963 12.3355 14.8206 12.3139 14.849 12.2989C14.8773 12.284 14.9089 12.276 14.941 12.2758H16.094C16.244 12.2758 16.377 12.3758 16.417 12.5178L17.102 14.8178L18.715 12.4258C18.7468 12.3801 18.7891 12.3426 18.8383 12.3165C18.8875 12.2905 18.9423 12.2765 18.998 12.2758H20.168" fill="#003087"/>
<path fill-rule="evenodd" clip-rule="evenodd" d="M24.024 9.98682H21.589C21.5084 9.98808 21.4308 10.0179 21.3702 10.071C21.3096 10.1242 21.2698 10.1971 21.258 10.2768L20.274 16.5518C20.2686 16.5806 20.2697 16.6102 20.2773 16.6385C20.2848 16.6668 20.2985 16.6931 20.3175 16.7154C20.3365 16.7378 20.3602 16.7556 20.3869 16.7676C20.4136 16.7796 20.4427 16.7855 20.472 16.7848H21.721C21.7776 16.7854 21.8324 16.7655 21.8755 16.7287C21.9185 16.6919 21.9467 16.6408 21.955 16.5848L22.234 14.8098C22.2481 14.7312 22.2892 14.66 22.3501 14.6083C22.4111 14.5567 22.4881 14.5279 22.568 14.5268H23.339C24.944 14.5268 25.872 13.7438 26.114 12.2018C26.2266 11.5265 26.1216 11.0015 25.799 10.6268C25.46 10.2188 24.847 10.0018 24.033 10.0018M24.315 12.2938C24.178 13.1768 23.517 13.1768 22.872 13.1768H22.509L22.767 11.5438C22.7767 11.4974 22.8018 11.4556 22.8383 11.4252C22.8748 11.3949 22.9205 11.3778 22.968 11.3768H23.138C23.581 11.3768 23.993 11.3768 24.202 11.6328C24.332 11.7828 24.372 12.0078 24.323 12.3158M31.315 12.2908H30.145C30.0966 12.2924 30.0502 12.3108 30.0138 12.3427C29.9773 12.3745 29.953 12.4181 29.945 12.4658L29.895 12.7938L29.815 12.6738C29.565 12.3068 29.001 12.1868 28.445 12.1868C27.154 12.1868 26.057 13.1618 25.839 14.5368C25.726 15.2288 25.888 15.8788 26.275 16.3438C26.63 16.7598 27.138 16.9348 27.743 16.9348C28.781 16.9348 29.355 16.2658 29.355 16.2658L29.307 16.5908C29.3021 16.6199 29.3037 16.6496 29.3117 16.678C29.3196 16.7064 29.3338 16.7326 29.3531 16.7549C29.3724 16.7771 29.3964 16.7949 29.4233 16.8068C29.4503 16.8187 29.4795 16.8245 29.509 16.8238H30.557C30.727 16.8238 30.867 16.6988 30.891 16.5408L31.52 12.5238C31.544 12.3988 31.44 12.2908 31.318 12.2908M29.698 14.5658C29.584 15.2388 29.052 15.6888 28.383 15.6888C28.044 15.6888 27.773 15.5778 27.597 15.3718C27.422 15.1638 27.356 14.8718 27.414 14.5468C27.4574 14.2332 27.6135 13.9461 27.8531 13.7391C28.0926 13.5321 28.3993 13.4193 28.716 13.4218C29.046 13.4218 29.316 13.5298 29.493 13.7388C29.676 13.9468 29.743 14.2468 29.695 14.5638M32.692 10.1968C32.7017 10.1504 32.7268 10.1086 32.7633 10.0782C32.7998 10.0479 32.8455 10.0308 32.893 10.0298H34.018C34.0474 10.0308 34.0763 10.038 34.1028 10.0508C34.1293 10.0637 34.1527 10.082 34.1717 10.1045C34.1907 10.1271 34.2047 10.1533 34.2128 10.1817C34.2209 10.21 34.223 10.2397 34.219 10.2688L33.226 16.5258C33.2124 16.6058 33.1706 16.6783 33.1083 16.7302C33.0459 16.7821 32.9671 16.81 32.886 16.8088H31.886C31.8573 16.8088 31.829 16.8026 31.803 16.7907C31.7769 16.7788 31.7537 16.7615 31.735 16.7398C31.715 16.7179 31.7001 16.6918 31.6915 16.6634C31.6828 16.6351 31.6806 16.6051 31.685 16.5758L32.681 10.1878" fill="#009CDE"/>
</g>
</g>
</g>
</g>
<defs>
<clipPath id="clip0_14_1379">
<rect width="38" height="25" fill="white" transform="translate(0.199951 0.859863)"/>
</clipPath>
<clipPath id="clip1_14_1379">
<rect width="38" height="25" fill="white" transform="translate(0.199951 0.859863)"/>
</clipPath>
<clipPath id="clip2_14_1379">
<rect width="38" height="25" fill="white" transform="translate(0.199951 0.859863)"/>
</clipPath>
</defs>
</svg>
