<svg width="41" height="39" viewBox="0 0 41 39" fill="none" xmlns="http://www.w3.org/2000/svg">
<g clip-path="url(#clip0_14_349)">
<path d="M17.6355 18.6605L18.1517 17.9233C18.4393 17.5348 18.7079 17.209 18.9898 16.869C19.6673 16.0451 20.3325 15.211 20.985 14.3671C21.1926 14.1005 21.3755 13.8662 21.525 13.6776L21.546 13.6509L22.0888 12.9319L22.2317 12.7433L22.2679 12.6948L22.2774 12.6824L22.2793 12.6795V12.6786C22.4891 12.4002 22.5908 12.0548 22.5636 11.7073C22.5364 11.3599 22.3831 11.0344 22.1326 10.792C21.8821 10.5497 21.5516 10.4073 21.2034 10.3917C20.8553 10.3761 20.5134 10.4883 20.2422 10.7071L20.2384 10.709L20.2269 10.7186L20.1793 10.7567L19.9974 10.9043L19.3031 11.4624L19.2822 11.4795C19.1095 11.623 18.9069 11.79 18.6745 11.9805C18.1507 12.4109 17.4879 12.9548 16.7679 13.5738L16.7488 13.5919C16.5877 13.7339 16.4252 13.8742 16.2612 14.0129C15.8321 14.374 15.4142 14.7482 15.0079 15.1348C14.6269 15.5246 14.2298 15.9284 13.8165 16.3462L13.226 16.9443L13.2145 16.9567L12.4907 17.709L11.2517 18.9967C10.7974 19.49 10.3355 20.0652 9.90883 20.5967C9.6955 20.8605 9.49169 21.1138 9.30121 21.3414L9.29359 21.3519C8.61706 22.1722 7.95474 23.004 7.30693 23.8471C6.70407 24.7109 6.11169 25.5738 5.5374 26.4186L5.53264 26.4252C5.39486 26.6303 5.25518 26.8367 5.11359 27.0443L5.10788 27.0519C4.96375 27.2621 4.8209 27.4732 4.67931 27.6852L4.66978 27.6976C4.46407 28.0119 4.2574 28.3738 4.08312 28.6786C4.00693 28.8109 3.9374 28.9329 3.87645 29.0348L3.86693 29.0529L2.44216 31.529L2.40216 31.6062C1.70788 27.3567 1.55169 21.4167 4.37359 15.9967C7.91931 9.18905 16.4631 2.6919 36.1736 1.86047C35.9412 2.10301 35.7031 2.36651 35.4593 2.65095C32.9355 5.58238 29.7593 10.7786 26.8012 19.9509C23.8555 29.0919 19.4298 33.4186 15.3326 35.4071C12.1193 36.9662 8.96978 37.1538 6.6374 36.9338L6.66788 36.8719L6.67455 36.8586C7.01279 36.1721 7.34139 35.4809 7.66026 34.7852L7.68121 34.7395C8.03169 34.0767 8.40693 33.3709 8.80026 32.6309L8.93359 32.3814L8.94597 32.3567C9.35074 31.5567 9.82026 30.7376 10.3307 29.8795L10.3355 29.8709C10.8384 29.0129 11.345 28.1262 11.846 27.2367L13.4707 24.709C13.7012 24.3567 13.9079 24.03 14.105 23.7167C14.4241 23.2119 14.7184 22.7433 15.0526 22.27L15.7888 21.2538L16.6831 20.0157L16.6907 20.0062C17.0145 19.5471 17.3317 19.0948 17.6355 18.6605Z" fill="white"/>
<path d="M22.2793 12.6786V12.6795L22.2774 12.6824L22.2679 12.6948L22.2317 12.7433L22.0888 12.9319L21.546 13.6509L21.525 13.6776C21.3755 13.8662 21.1926 14.1005 20.985 14.3671C20.3325 15.211 19.6673 16.0451 18.9898 16.869C18.7079 17.209 18.4393 17.5348 18.1517 17.9233L17.6355 18.6605C17.3317 19.0948 17.0145 19.5471 16.6907 20.0062L16.6831 20.0157L15.7888 21.2538L15.0526 22.27C14.7184 22.7433 14.4241 23.2119 14.105 23.7167C13.9079 24.03 13.7012 24.3567 13.4707 24.709L11.846 27.2367C11.345 28.1262 10.8384 29.0129 10.3355 29.8709L10.3307 29.8795C9.82026 30.7376 9.35074 31.5567 8.94597 32.3567L8.93359 32.3814L8.80026 32.6309C8.40693 33.3709 8.03169 34.0767 7.68121 34.7395L7.66026 34.7852C7.34139 35.4809 7.01279 36.1721 6.67455 36.8586L6.66788 36.8719L6.6374 36.9338C8.96978 37.1538 12.1193 36.9662 15.3326 35.4071C19.4298 33.4186 23.8555 29.0919 26.8012 19.9509C29.7593 10.7786 32.9355 5.58238 35.4593 2.65095C35.7031 2.36651 35.9412 2.10301 36.1736 1.86047C16.4631 2.6919 7.91931 9.18905 4.37359 15.9967C1.55169 21.4167 1.70788 27.3567 2.40216 31.6062L2.44216 31.529L3.86693 29.0529L3.87645 29.0348C3.9374 28.9329 4.00693 28.8109 4.08312 28.6786C4.2574 28.3738 4.46407 28.0119 4.66978 27.6976L4.67931 27.6852C4.8209 27.4732 4.96375 27.2621 5.10788 27.0519L5.11359 27.0443C5.25518 26.8367 5.39486 26.6303 5.53264 26.4252L5.5374 26.4186C6.11169 25.5738 6.70407 24.7109 7.30693 23.8471C7.95474 23.004 8.61706 22.1722 9.29359 21.3519L9.30121 21.3414C9.49169 21.1138 9.6955 20.8605 9.90883 20.5967C10.3355 20.0652 10.7974 19.49 11.2517 18.9967L12.4907 17.709L13.2145 16.9567L13.226 16.9443L13.8165 16.3462C14.2298 15.9284 14.6269 15.5246 15.0079 15.1348C15.4142 14.7482 15.8321 14.374 16.2612 14.0129C16.4252 13.8742 16.5877 13.7339 16.7488 13.5919L16.7679 13.5738C17.4879 12.9548 18.1507 12.4109 18.6745 11.9805C18.9069 11.79 19.1095 11.623 19.2822 11.4795L19.3031 11.4624L19.9974 10.9043L20.1793 10.7567L20.2269 10.7186L20.2384 10.709L20.2422 10.7071C20.5134 10.4883 20.8553 10.3761 21.2034 10.3917C21.5516 10.4073 21.8821 10.5497 22.1326 10.792C22.3831 11.0344 22.5364 11.3599 22.5636 11.7073C22.5908 12.0548 22.4891 12.4002 22.2793 12.6786ZM22.2793 12.6786L21.1403 11.8176" stroke="#3EB0DE" stroke-width="2.85714" stroke-linejoin="round"/>
</g>
<defs>
<clipPath id="clip0_14_349">
<rect width="40" height="38.0952" fill="white" transform="translate(0.546875 0.342407)"/>
</clipPath>
</defs>
</svg>
