<svg width="172" height="51" viewBox="0 0 172 51" fill="none" xmlns="http://www.w3.org/2000/svg">
<g clip-path="url(#clip0_14_558)">
<g clip-path="url(#clip1_14_558)">
<g clip-path="url(#clip2_14_558)">
<mask id="mask0_14_558" style="mask-type:luminance" maskUnits="userSpaceOnUse" x="0" y="0" width="171" height="51">
<path d="M170.872 0.389893H0.796875V50.3899H170.872V0.389893Z" fill="white"/>
</mask>
<g mask="url(#mask0_14_558)">
<path d="M164.597 50.3899H7.09688C3.62188 50.3899 0.796875 47.5649 0.796875 44.1399V6.63989C0.796875 3.21489 3.62188 0.389893 7.09688 0.389893H164.597C168.072 0.389893 170.897 3.21489 170.897 6.63989V44.1399C170.897 47.5899 168.072 50.3899 164.597 50.3899Z" fill="black"/>
<path d="M26.8969 24.6649L13.4739 38.7899C13.8739 40.3149 15.2989 41.4649 16.9739 41.4649C17.6489 41.4649 18.2739 41.2899 18.8239 40.9649H18.8739L33.9739 32.2899L26.8969 24.6649Z" fill="#D75532"/>
<path d="M40.4729 22.2649L33.9479 18.5149L26.5969 24.9899L33.9719 32.2899L40.4469 28.5649C41.5719 27.9649 42.3469 26.7649 42.3469 25.3899C42.3469 24.0149 41.5969 22.8399 40.4469 22.2399" fill="#FFCC32"/>
<path d="M13.4729 11.9899C13.3979 12.2899 13.3479 12.5899 13.3479 12.9149V37.8649C13.3479 38.1899 13.3979 38.4899 13.4729 38.7899L27.3469 25.0399L13.4729 11.9899Z" fill="#0075BC"/>
<path d="M26.9969 25.3899L33.9469 18.5159L18.8699 9.83994C18.303 9.50068 17.6555 9.3194 16.9949 9.31494C15.3199 9.31494 13.8949 10.4399 13.4949 11.9899L27.0209 25.3899H26.9969Z" fill="#00A176"/>
<path d="M60.4469 13.1899C60.4469 14.2159 60.1469 15.0399 59.5229 15.6399C58.8229 16.3659 57.9229 16.7159 56.8229 16.7159C55.7229 16.7159 54.8479 16.3409 54.0979 15.6159C53.3479 14.8909 52.9729 13.9659 52.9729 12.8909C52.9729 11.8159 53.3479 10.8909 54.0979 10.1659C54.8479 9.44092 55.7479 9.06592 56.8229 9.06592C57.3479 9.06592 57.8479 9.16592 58.3479 9.36592C58.8229 9.56592 59.2229 9.84092 59.4979 10.1909L58.8479 10.8409C58.3479 10.2659 57.6979 9.96592 56.8229 9.96592C56.0476 9.96592 55.3726 10.2409 54.7979 10.7909C54.2229 11.3409 53.9479 12.0409 53.9479 12.9159C53.9479 13.7909 54.2229 14.4909 54.7979 15.0409C55.3729 15.5909 56.0479 15.8409 56.8229 15.8409C57.6479 15.8409 58.3229 15.5659 58.8729 15.0159C59.2229 14.6659 59.4479 14.1659 59.4979 13.5409H56.8229V12.6659H60.3969C60.4219 12.8659 60.4469 13.0409 60.4469 13.2159" fill="white"/>
<path d="M60.4469 13.1899C60.4469 14.2159 60.1469 15.0399 59.5229 15.6399C58.8229 16.3659 57.9229 16.7159 56.8229 16.7159C55.7229 16.7159 54.8479 16.3409 54.0979 15.6159C53.3479 14.8909 52.9729 13.9659 52.9729 12.8909C52.9729 11.8159 53.3479 10.8909 54.0979 10.1659C54.8479 9.44092 55.7479 9.06592 56.8229 9.06592C57.3479 9.06592 57.8479 9.16592 58.3479 9.36592C58.8229 9.56592 59.2229 9.84092 59.4979 10.1909L58.8479 10.8409C58.3479 10.2659 57.6979 9.96592 56.8229 9.96592C56.0476 9.96592 55.3726 10.2409 54.7979 10.7909C54.2229 11.3409 53.9479 12.0409 53.9479 12.9159C53.9479 13.7909 54.2229 14.4909 54.7979 15.0409C55.3729 15.5909 56.0479 15.8409 56.8229 15.8409C57.6479 15.8409 58.3229 15.5659 58.8729 15.0159C59.2229 14.6659 59.4479 14.1659 59.4979 13.5409H56.8229V12.6659H60.3969C60.4219 12.8659 60.4469 13.0409 60.4469 13.2159V13.1899Z" stroke="white" stroke-width="0.2" stroke-miterlimit="10"/>
</g>
<path d="M66.2489 10.1399H62.9489V12.4399H65.9239V13.3399H62.9489V15.6399H66.2489V16.5399H62.0239V9.23987H66.2489V10.1399Z" fill="white"/>
<path d="M66.2489 10.1399H62.9489V12.4399H65.9239V13.3399H62.9489V15.6399H66.2489V16.5399H62.0239V9.23987H66.2489V10.1399Z" stroke="white" stroke-width="0.2" stroke-miterlimit="10"/>
<path d="M70.4199 16.5399H69.4949V10.1399H67.4449V9.23987H72.4699V10.1399H70.4199V16.5399Z" fill="white"/>
<path d="M70.4199 16.5399H69.4949V10.1399H67.4449V9.23987H72.4699V10.1399H70.4199V16.5399Z" stroke="white" stroke-width="0.2" stroke-miterlimit="10"/>
<path d="M77.1989 9.23987H76.3989V16.5649H77.1989V9.23987Z" fill="white"/>
<path d="M77.1989 9.23987H76.3989V16.5649H77.1989V9.23987Z" stroke="white" stroke-width="0.2" stroke-miterlimit="10"/>
<path d="M81.5729 16.5399H80.6479V10.1399H78.5969V9.23987H83.6219V10.1399H81.5719L81.5729 16.5399Z" fill="white"/>
<path d="M81.5729 16.5399H80.6479V10.1399H78.5969V9.23987H83.6219V10.1399H81.5719L81.5729 16.5399Z" stroke="white" stroke-width="0.2" stroke-miterlimit="10"/>
<mask id="mask1_14_558" style="mask-type:luminance" maskUnits="userSpaceOnUse" x="0" y="0" width="171" height="51">
<path d="M170.872 0.389893H0.796875V50.3899H170.872V0.389893Z" fill="white"/>
</mask>
<g mask="url(#mask1_14_558)">
<path d="M88.7469 14.9899C89.2969 15.5399 89.9729 15.8159 90.7469 15.8159C91.5209 15.8159 92.1969 15.5409 92.7469 14.9909C93.2969 14.4409 93.5729 13.7409 93.5729 12.8909C93.5729 12.0409 93.2979 11.3409 92.7479 10.7909C92.1979 10.2409 91.5229 9.96589 90.7479 9.96589C89.9729 9.96589 89.2979 10.2409 88.7479 10.7909C88.1979 11.3409 87.9229 12.0409 87.9229 12.8909C87.9229 14.1659 88.1979 14.4409 88.7479 14.9909M93.4739 15.6169C92.7489 16.3669 91.8489 16.7169 90.7739 16.7169C89.6989 16.7169 88.7989 16.3419 88.0739 15.6169C87.3489 14.8669 86.9739 13.9669 86.9739 12.8919C86.9739 11.8169 87.3489 10.9169 88.0739 10.1669C88.7989 9.41689 89.6989 9.06689 90.7739 9.06689C91.8489 9.06689 92.7489 9.44189 93.4739 10.1919C94.1989 10.9419 94.5739 11.8419 94.5739 12.8919C94.5739 13.9419 94.1989 14.8669 93.4739 15.6169Z" fill="white"/>
<path d="M88.7469 14.9899C89.2969 15.5399 89.9729 15.8159 90.7469 15.8159C91.5209 15.8159 92.1969 15.5409 92.7469 14.9909C93.2969 14.4409 93.5729 13.7409 93.5729 12.8909C93.5729 12.0409 93.2979 11.3409 92.7479 10.7909C92.1979 10.2409 91.5229 9.96592 90.7479 9.96592C89.9729 9.96592 89.2979 10.2409 88.7479 10.7909C88.1979 11.3409 87.9229 12.0409 87.9229 12.8909C87.9229 14.1659 88.1979 14.4409 88.7479 14.9909L88.7469 14.9899ZM93.4729 15.6159C92.7479 16.3659 91.8479 16.7159 90.7729 16.7159C89.6979 16.7159 88.7979 16.3409 88.0729 15.6159C87.3479 14.8659 86.9729 13.9659 86.9729 12.8909C86.9729 11.8159 87.3479 10.9159 88.0729 10.1659C88.7979 9.41592 89.6979 9.06592 90.7729 9.06592C91.8479 9.06592 92.7479 9.44092 93.4729 10.1909C94.1979 10.9409 94.5729 11.8409 94.5729 12.8909C94.5729 13.9409 94.1979 14.8659 93.4729 15.6159Z" stroke="white" stroke-width="0.2" stroke-miterlimit="10"/>
</g>
<path d="M96.0969 16.5399V9.23987H97.2469L100.823 14.9149H100.848L100.823 13.5149V9.23987H101.748V16.5399H100.773L97.0469 10.5899H96.9969L97.0469 11.9899V16.5399H96.0969Z" fill="white"/>
<path d="M96.0969 16.5399V9.23987H97.2469L100.823 14.9149H100.848L100.823 13.5149V9.23987H101.748V16.5399H100.773L97.0469 10.5899H96.9969L97.0469 11.9899V16.5399H96.0969Z" stroke="white" stroke-width="0.2" stroke-miterlimit="10"/>
<mask id="mask2_14_558" style="mask-type:luminance" maskUnits="userSpaceOnUse" x="0" y="0" width="171" height="51">
<path d="M170.872 0.389893H0.796875V50.3899H170.872V0.389893Z" fill="white"/>
</mask>
<g mask="url(#mask2_14_558)">
<path d="M135.521 37.8899H137.871V22.2669H135.521V37.8899ZM156.696 27.8899L153.996 34.6659H153.921L151.121 27.8909H148.596L152.796 37.3659L150.396 42.6409H152.846L159.321 27.9159H156.696V27.8899ZM143.371 36.1159C142.596 36.1159 141.521 35.7409 141.521 34.7909C141.521 33.5909 142.871 33.1159 144.021 33.1159C145.046 33.1159 145.546 33.3409 146.171 33.6409C145.996 35.0909 144.721 36.1159 143.371 36.1159ZM143.646 27.5409C141.946 27.5409 140.171 28.2909 139.446 29.9409L141.521 30.8159C141.971 29.9409 142.796 29.6659 143.671 29.6659C144.896 29.6659 146.121 30.3909 146.146 31.6659V31.8159C145.721 31.5659 144.796 31.2159 143.696 31.2159C141.446 31.2159 139.146 32.4409 139.146 34.7409C139.146 36.8409 140.996 38.1909 143.046 38.1909C144.621 38.1909 145.496 37.4909 146.046 36.6659H146.121V37.8659H148.396V31.8659C148.396 29.0909 146.321 27.5409 143.621 27.5409M129.121 29.7909H125.771V24.4409H129.121C130.871 24.4409 131.871 25.8909 131.871 27.1159C131.871 28.3409 130.871 29.7909 129.121 29.7909ZM129.071 22.2659H123.446V37.8899H125.796V31.9649H129.071C131.671 31.9649 134.246 30.0899 134.246 27.1149C134.246 24.1399 131.696 22.2659 129.071 22.2659ZM98.3459 36.1149C96.7209 36.1149 95.3708 34.7649 95.3708 32.9149C95.3708 31.0649 96.7209 29.6649 98.3459 29.6649C99.9709 29.6649 101.221 31.0399 101.221 32.9149C101.221 34.7899 99.9709 36.1149 98.3459 36.1149ZM101.046 28.7649H100.971C100.446 28.1399 99.4208 27.5649 98.1458 27.5649C95.4708 27.5649 93.0208 29.8899 93.0208 32.8899C93.0208 35.8899 95.4708 38.1899 98.1458 38.1899C99.4208 38.1899 100.446 37.6149 100.971 36.9899H101.046V37.7649C101.046 39.7899 99.9459 40.8899 98.1959 40.8899C96.7458 40.8899 95.8708 39.8649 95.4958 38.9899L93.4459 39.8399C94.0458 41.2399 95.5959 42.9899 98.1959 42.9899C100.946 42.9899 103.296 41.3899 103.296 37.4649V27.9149H101.071V28.7899L101.046 28.7649ZM104.896 37.8899H107.246V22.2659H104.896V37.8899ZM110.721 32.7399C110.671 30.6899 112.321 29.6399 113.521 29.6399C114.446 29.6399 115.246 30.1149 115.521 30.7649L110.721 32.7399ZM118.021 30.9649C117.571 29.7649 116.221 27.5899 113.446 27.5899C110.671 27.5899 108.396 29.7399 108.396 32.9149C108.396 35.8899 110.671 38.2399 113.721 38.2399C116.171 38.2399 117.596 36.7399 118.196 35.8899L116.371 34.6899C115.771 35.5649 114.921 36.1649 113.721 36.1649C112.521 36.1649 111.671 35.6149 111.121 34.5649L118.296 31.6149L118.046 31.0149L118.021 30.9649ZM60.9458 29.2149V31.4649H66.3958C66.2208 32.7399 65.7958 33.6649 65.1458 34.3149C64.3458 35.0899 63.1208 35.9649 60.9458 35.9649C57.5958 35.9649 54.9708 33.2899 54.9708 29.9649C54.9708 26.6399 57.5958 23.9649 60.9458 23.9649C62.7458 23.9649 64.0708 24.6649 65.0458 25.5649L66.6458 23.9649C65.2958 22.6649 63.4708 21.6899 60.9458 21.6899C56.3708 21.6899 52.4958 25.3899 52.4958 29.9399C52.4958 34.4899 56.3458 38.1899 60.9458 38.1899C63.4208 38.1899 65.2958 37.3899 66.7458 35.8649C68.2458 34.3649 68.7209 32.2899 68.7209 30.5899C68.7209 30.0649 68.6709 29.5899 68.5959 29.1899H60.9458V29.2149ZM74.8958 36.1149C73.2708 36.1149 71.8708 34.7899 71.8708 32.8899C71.8708 30.9899 73.2708 29.6649 74.8958 29.6649C76.5208 29.6649 77.9208 30.9649 77.9208 32.8899C77.9208 34.8149 76.5208 36.1149 74.8958 36.1149ZM74.8958 27.5649C71.9208 27.5649 69.5208 29.7899 69.5208 32.8899C69.5208 35.9899 71.9458 38.2149 74.8958 38.2149C77.8458 38.2149 80.2708 35.9649 80.2708 32.8899C80.2708 29.8149 77.8458 27.5649 74.8958 27.5649ZM86.6458 36.1149C85.0208 36.1149 83.6208 34.7899 83.6208 32.8899C83.6208 30.9899 85.0208 29.6649 86.6458 29.6649C88.2708 29.6649 89.6708 30.9649 89.6708 32.8899C89.6708 34.8149 88.2708 36.1149 86.6458 36.1149ZM86.6458 27.5649C83.6708 27.5649 81.2708 29.7899 81.2708 32.8899C81.2708 35.9899 83.6958 38.2149 86.6458 38.2149C89.5958 38.2149 92.0208 35.9649 92.0208 32.8899C92.0208 29.8149 89.5958 27.5649 86.6458 27.5649Z" fill="white"/>
</g>
</g>
</g>
</g>
<defs>
<clipPath id="clip0_14_558">
<rect width="171" height="50" fill="white" transform="translate(0.796875 0.389893)"/>
</clipPath>
<clipPath id="clip1_14_558">
<rect width="171" height="50" fill="white" transform="translate(0.796875 0.389893)"/>
</clipPath>
<clipPath id="clip2_14_558">
<rect width="171" height="50" fill="white" transform="translate(0.796875 0.389893)"/>
</clipPath>
</defs>
</svg>
