<svg width="41" height="41" viewBox="0 0 41 41" fill="none" xmlns="http://www.w3.org/2000/svg">
<g clip-path="url(#clip0_14_163)">
<g clip-path="url(#clip1_14_163)">
<path d="M3.38449 25.4221C3.88262 25.1928 4.45065 25.1674 4.96726 25.3513C5.48386 25.5352 5.9081 25.9137 6.14935 26.4062C6.39061 26.8986 6.42976 27.4658 6.25845 27.9868C6.08714 28.5077 5.71894 28.9409 5.23249 29.1941L7.48529 33.7917C7.57793 33.981 7.70696 34.1502 7.86501 34.2897C8.02306 34.4291 8.20704 34.5361 8.40643 34.6044C8.60582 34.6728 8.81673 34.7012 9.0271 34.688C9.23747 34.6748 9.44318 34.6203 9.63249 34.5277L38.4565 20.4077C38.8385 20.2204 39.1306 19.8892 39.2686 19.4867C39.4066 19.0843 39.3792 18.6435 39.1925 18.2613L36.9389 13.6605C36.9253 13.6669 36.9125 13.6765 36.8997 13.6821C36.4016 13.9113 35.8335 13.9367 35.3169 13.7528C34.8003 13.569 34.3761 13.1904 34.1348 12.6979C33.8936 12.2055 33.8544 11.6383 34.0257 11.1174C34.197 10.5964 34.5652 10.1632 35.0517 9.91006L35.0933 9.89246L32.8397 5.29006C32.7471 5.10072 32.618 4.93149 32.46 4.79203C32.3019 4.65257 32.1179 4.54562 31.9186 4.47727C31.7192 4.40892 31.5083 4.38053 31.2979 4.3937C31.0875 4.40688 30.8818 4.46137 30.6925 4.55406L1.86609 18.6741C1.48366 18.8613 1.19127 19.1928 1.05324 19.5956C0.915218 19.9985 0.942861 20.4396 1.13009 20.8221L3.38289 25.4221H3.38449Z" fill="white" stroke="#00B2E3" stroke-width="1.6" stroke-linecap="round" stroke-linejoin="round"/>
<path d="M27.3957 6.64606L26.6541 7.00846L27.4749 8.68366L28.2165 8.32046L27.3957 6.64606Z" fill="#575756"/>
<mask id="mask0_14_163" style="mask-type:luminance" maskUnits="userSpaceOnUse" x="26" y="6" width="3" height="3">
<path d="M27.3957 6.64606L26.6541 7.00846L27.4749 8.68366L28.2165 8.32046L27.3957 6.64606Z" fill="white"/>
</mask>
<g mask="url(#mask0_14_163)">
<path d="M26.6549 7.00846L25.9509 5.57246L24.5133 6.27646L25.2173 7.71326L26.6549 7.00846ZM27.3957 6.64526L28.8325 5.94126L28.1285 4.50446L26.6917 5.20846L27.3957 6.64526ZM28.2165 8.32046L28.9205 9.75726L30.3573 9.05326L29.6533 7.61646L28.2165 8.32046ZM27.4749 8.68366L26.0389 9.38766L26.7429 10.8245L28.1797 10.1205L27.4749 8.68366ZM27.3589 8.44526L28.0997 8.08206L26.6917 5.20846L25.9509 5.57246L27.3589 8.44526ZM25.9589 7.35006L26.7797 9.02526L29.6533 7.61646L28.8325 5.94206L25.9589 7.35006ZM27.5125 6.88446L26.7709 7.24766L28.1789 10.1213L28.9205 9.75726L27.5125 6.88446ZM28.9125 7.98046L28.0909 6.30526L25.2173 7.71326L26.0381 9.38846L28.9125 7.98046Z" fill="#00B2E3"/>
</g>
<path d="M30.6828 13.3477L29.942 13.7101L30.762 15.3853L31.5036 15.0221L30.6828 13.3477Z" fill="#575756"/>
<mask id="mask1_14_163" style="mask-type:luminance" maskUnits="userSpaceOnUse" x="29" y="13" width="3" height="3">
<path d="M30.6828 13.3477L29.942 13.7101L30.762 15.3853L31.5036 15.0221L30.6828 13.3477Z" fill="white"/>
</mask>
<g mask="url(#mask1_14_163)">
<path d="M29.9421 13.71L29.2381 12.2732L27.8013 12.9772L28.5053 14.414L29.9421 13.71ZM30.6829 13.3476L32.1197 12.6436L31.4157 11.2068L29.9797 11.9108L30.6829 13.3476ZM31.5037 15.0228L32.2077 16.4596L33.6437 15.7556L32.9397 14.3188L31.5037 15.0228ZM30.7621 15.3852L29.3253 16.0892L30.0293 17.526L31.4661 16.822L30.7621 15.3852ZM30.6453 15.1476L31.3869 14.7844L29.9797 11.9108L29.2381 12.2732L30.6453 15.1476ZM29.2461 14.0516L30.0661 15.726L32.9397 14.3188L32.1197 12.6436L29.2461 14.0516ZM30.7997 13.5852L30.0589 13.9484L31.4661 16.822L32.2077 16.4596L30.7997 13.5852ZM32.1997 14.6812L31.3789 13.0068L28.5053 14.414L29.3253 16.0892L32.1997 14.6812Z" fill="#00B2E3"/>
</g>
<path d="M32.3301 16.6956L31.5885 17.0588L32.4093 18.734L33.1509 18.3708L32.3301 16.6956Z" fill="#575756"/>
<mask id="mask2_14_163" style="mask-type:luminance" maskUnits="userSpaceOnUse" x="31" y="16" width="3" height="3">
<path d="M32.3301 16.6956L31.5885 17.0588L32.4093 18.734L33.1509 18.3708L32.3301 16.6956Z" fill="white"/>
</mask>
<g mask="url(#mask2_14_163)">
<path d="M31.5886 17.0588L30.8846 15.622L29.4478 16.326L30.1518 17.7628L31.5886 17.0588ZM32.3302 16.6956L33.767 15.9916L33.063 14.5548L31.6262 15.2588L32.3302 16.6956ZM33.1502 18.3708L33.8542 19.8076L35.291 19.1036L34.587 17.6668L33.1502 18.3708ZM32.4094 18.734L30.9726 19.438L31.6766 20.874L33.1134 20.17L32.4094 18.734ZM32.2926 18.4956L33.0342 18.1324L31.6262 15.2588L30.8846 15.622L32.2926 18.4956ZM30.8926 17.3996L31.7134 19.0748L34.587 17.6668L33.767 15.9916L30.8926 17.3996ZM32.447 16.934L31.7054 17.2972L33.1134 20.17L33.8542 19.8076L32.447 16.934ZM33.847 18.03L33.0254 16.3548L30.1518 17.7628L30.9726 19.438L33.847 18.03Z" fill="#00B2E3"/>
</g>
<path d="M33.9645 20.0508L33.2229 20.4132L34.0429 22.0884L34.7845 21.7252L33.9645 20.0508Z" fill="#575756"/>
<mask id="mask3_14_163" style="mask-type:luminance" maskUnits="userSpaceOnUse" x="33" y="20" width="2" height="3">
<path d="M33.9645 20.0508L33.2229 20.4132L34.0429 22.0884L34.7845 21.7252L33.9645 20.0508Z" fill="white"/>
</mask>
<g mask="url(#mask3_14_163)">
<path d="M33.223 20.414L32.519 18.9764L31.0822 19.6804L31.7862 21.1172L33.223 20.414ZM33.9646 20.0508L35.4014 19.3468L34.6974 17.91L33.2606 18.614L33.9646 20.0508ZM34.7846 21.7252L35.4886 23.1628L36.9254 22.4588L36.2214 21.022L34.7846 21.7252ZM34.043 22.0884L32.6062 22.7924L33.3102 24.2292L34.747 23.5252L34.043 22.0884ZM33.927 21.85L34.6678 21.4876L33.2606 18.6132L32.5198 18.9764L33.927 21.85ZM32.527 20.754L33.3478 22.4292L36.2214 21.0212L35.4014 19.3468L32.527 20.754ZM34.0806 20.2884L33.3398 20.6516L34.747 23.5252L35.4886 23.1628L34.0806 20.2884ZM35.4806 21.3844L34.6598 19.71L31.7862 21.1172L32.6062 22.7924L35.4806 21.3844Z" fill="#00B2E3"/>
</g>
<path d="M29.0484 9.99561L28.3076 10.3588L29.1284 12.034L29.8692 11.6708L29.0484 9.99561Z" fill="#575756"/>
<mask id="mask4_14_163" style="mask-type:luminance" maskUnits="userSpaceOnUse" x="28" y="9" width="2" height="4">
<path d="M29.0484 9.99561L28.3076 10.3588L29.1284 12.034L29.8692 11.6708L29.0484 9.99561Z" fill="white"/>
</mask>
<g mask="url(#mask4_14_163)">
<path d="M28.3077 10.358L27.6037 8.922L26.1669 9.626L26.8709 11.0628L28.3077 10.358ZM29.0485 9.9956L30.4853 9.2916L29.7813 7.8548L28.3445 8.5588L29.0485 9.9956ZM29.8693 11.6708L30.5733 13.1076L32.0101 12.4036L31.3061 10.9668L29.8693 11.6708ZM29.1277 12.034L27.6909 12.738L28.3949 14.1748L29.8317 13.4708L29.1277 12.034ZM29.0117 11.7956L29.7525 11.4324L28.3445 8.5588L27.6037 8.922L29.0117 11.7956ZM27.6117 10.6996L28.4325 12.3748L31.3061 10.9668L30.4853 9.2916L27.6117 10.6996ZM29.1653 10.234L28.4245 10.5972L29.8317 13.4708L30.5733 13.1076L29.1653 10.234ZM30.5653 11.33L29.7437 9.654L26.8701 11.062L27.6901 12.7372L30.5653 11.33Z" fill="#00B2E3"/>
</g>
<path d="M10.5725 22.9884L11.8685 25.634L12.6085 25.2708L11.3141 22.626L12.2045 22.1892L11.9013 21.5684L9.39172 22.798L9.69572 23.418L10.5725 22.9884Z" fill="#575756"/>
<mask id="mask5_14_163" style="mask-type:luminance" maskUnits="userSpaceOnUse" x="9" y="21" width="4" height="5">
<path d="M10.5725 22.9884L11.8685 25.634L12.6085 25.2708L11.3141 22.626L12.2045 22.1892L11.9013 21.5684L9.39172 22.798L9.69572 23.418L10.5725 22.9884Z" fill="white"/>
</mask>
<g mask="url(#mask5_14_163)">
<path d="M10.5725 22.9884L12.0093 22.2844L11.3053 20.8484L9.86852 21.5524L10.5725 22.9884ZM11.8685 25.634L10.4309 26.338L11.1349 27.774L12.5717 27.0708L11.8685 25.634ZM12.6085 25.2708L13.3125 26.7084L14.7493 26.0044L14.0453 24.5676L12.6085 25.2708ZM11.3141 22.626L10.6101 21.19L9.17412 21.894L9.87732 23.33L11.3141 22.626ZM12.2045 22.1892L12.9085 23.626L14.3421 22.9228L13.6429 21.4884L12.2045 22.1892ZM11.9013 21.5684L13.3397 20.8668L12.6373 19.426L11.1973 20.1316L11.9013 21.5684ZM9.39172 22.798L8.68772 21.3612L7.25012 22.0652L7.95572 23.5028L9.39172 22.798ZM9.69572 23.418L8.25972 24.122L8.96372 25.558L10.3997 24.854L9.69572 23.418ZM9.13572 23.6924L10.4317 26.338L13.3045 24.93L12.0085 22.2852L9.13572 23.6924ZM12.5717 27.0708L13.3125 26.7084L11.9053 23.834L11.1645 24.1964L12.5717 27.0708ZM14.0461 24.5676L12.7517 21.9228L9.87732 23.33L11.1717 25.9748L14.0461 24.5676ZM12.0189 24.0628L12.9093 23.626L11.4997 20.7532L10.6101 21.19L12.0189 24.0628ZM13.6429 21.4884L13.3397 20.8668L10.4637 22.2692L10.7661 22.8908L13.6429 21.4884ZM11.1973 20.1316L8.68772 21.3612L10.0957 24.2348L12.6053 23.0052L11.1973 20.1316ZM7.95572 23.502L8.25972 24.1212L11.1325 22.7124L10.8285 22.0924L7.95572 23.502ZM10.3997 24.854L11.2757 24.4252L9.86852 21.5508L8.99252 21.9796L10.3997 24.854Z" fill="#00B2E3"/>
</g>
<path d="M13.2365 20.9196L12.4949 21.282L14.0941 24.5468L14.8349 24.1844L13.2365 20.9196Z" fill="#575756"/>
<mask id="mask6_14_163" style="mask-type:luminance" maskUnits="userSpaceOnUse" x="12" y="20" width="3" height="5">
<path d="M13.2365 20.9196L12.4949 21.282L14.0941 24.5468L14.8349 24.1844L13.2365 20.9196Z" fill="white"/>
</mask>
<g mask="url(#mask6_14_163)">
<path d="M12.4949 21.282L11.7909 19.8452L10.3541 20.5492L11.0581 21.986L12.4949 21.282ZM13.2365 20.9196L14.6733 20.2156L13.9693 18.7788L12.5325 19.4828L13.2365 20.9196ZM14.8349 24.1836L15.5389 25.6212L16.9757 24.9172L16.2717 23.4804L14.8349 24.1836ZM14.0941 24.5468L12.6565 25.2508L13.3605 26.6876L14.7973 25.9836L14.0941 24.5468ZM13.1981 22.7188L13.9397 22.3564L12.5325 19.4828L11.7917 19.8452L13.1981 22.7188ZM11.7989 21.6228L13.3981 24.8876L16.2717 23.4804L14.6733 20.2156L11.7989 21.6228ZM14.1317 22.7468L13.3901 23.11L14.7981 25.9844L15.5389 25.6212L14.1317 22.7468ZM15.5309 23.8428L13.9317 20.5788L11.0581 21.986L12.6565 25.2508L15.5309 23.8428Z" fill="#00B2E3"/>
</g>
<path d="M14.4532 21.0125C14.3948 21.4197 14.478 21.8405 14.674 22.2397L14.4532 21.0125ZM14.4532 21.0125C14.3628 21.4077 14.4116 21.8501 14.6372 22.3101L14.4532 21.0125ZM14.4532 21.0125L15.7796 23.2845C15.8436 23.3074 15.9082 23.3261 15.9732 23.3405C15.3884 23.2709 14.922 22.8901 14.6372 22.3101" fill="#575756"/>
<path d="M14.4532 21.0125C14.3948 21.4197 14.478 21.8405 14.674 22.2397L14.4532 21.0125ZM14.4532 21.0125C14.3628 21.4077 14.4116 21.8501 14.6372 22.3101M14.4532 21.0125L15.7796 23.2845C15.8436 23.3074 15.9082 23.3261 15.9732 23.3405C15.3884 23.2709 14.922 22.8901 14.6372 22.3101M14.6372 22.3101L14.6948 22.2813" stroke="#00B2E3" stroke-width="1.6"/>
<path d="M18.6589 18.2596L18.4493 19.7076C18.4333 19.8596 18.4133 20.0148 18.4029 20.1756L18.3869 20.182L17.6797 18.7396L16.9485 19.098L18.5469 22.3628L19.2789 22.0044L18.7557 20.9388L18.8677 20.4564L20.3589 21.4756L21.2221 21.0532L19.1645 19.7364L19.5629 17.8164L18.6573 18.2596H18.6589Z" fill="#575756"/>
<mask id="mask7_14_163" style="mask-type:luminance" maskUnits="userSpaceOnUse" x="16" y="17" width="6" height="6">
<path d="M18.6589 18.2596L18.4493 19.7076C18.4333 19.8596 18.4133 20.0148 18.4029 20.1756L18.3869 20.182L17.6797 18.7396L16.9485 19.098L18.5469 22.3628L19.2789 22.0044L18.7557 20.9388L18.8677 20.4564L20.3589 21.4756L21.2221 21.0532L19.1645 19.7364L19.5629 17.8164L18.6573 18.2596H18.6589Z" fill="white"/>
</mask>
<g mask="url(#mask7_14_163)">
<path d="M18.6589 18.2596L20.2429 18.4884L20.5069 16.6596H18.6589V18.2596ZM18.4493 19.7076L16.8653 19.4788L16.8613 19.5116L16.8573 19.5444L18.4493 19.7076ZM18.4029 20.1756L19.0181 21.6524L19.9357 21.27L19.9997 20.278L18.4029 20.1756ZM18.3869 20.182L16.9501 20.886L17.6125 22.238L19.0021 21.6588L18.3869 20.182ZM17.6797 18.7396L19.1165 18.0356L18.4125 16.5988L16.9757 17.3028L17.6797 18.7396ZM16.9485 19.098L16.2445 17.6612L14.8077 18.3652L15.5117 19.802L16.9485 19.098ZM18.5469 22.3628L17.1101 23.0668L17.8141 24.5044L19.2509 23.8004L18.5469 22.3628ZM19.2789 22.0044L19.9829 23.4412L21.4197 22.7372L20.7157 21.3004L19.2789 22.0044ZM18.7557 20.9388L17.1973 20.5772L17.0693 21.1316L17.3197 21.6436L18.7557 20.9388ZM18.8677 20.4564L19.7709 19.1356L17.8381 17.8148L17.3093 20.0948L18.8677 20.4564ZM20.3589 21.4756L19.4557 22.7964L20.2253 23.322L21.0621 22.9124L20.3589 21.4756ZM21.2221 21.0532L21.9253 22.49L24.4813 21.2388L22.0845 19.7052L21.2221 21.0532ZM19.1645 19.7364L17.5981 19.4108L17.3741 20.49L18.3021 21.0844L19.1645 19.7364ZM19.5629 17.8164L21.1301 18.142L21.7941 14.9436L18.8605 16.3796L19.5629 17.8164ZM18.6573 18.2596L17.9541 16.8228L18.6573 19.8596V18.2596ZM17.0749 18.0308L16.8661 19.4788L20.0333 19.9364L20.2429 18.4884L17.0749 18.0308ZM16.8573 19.5444C16.8493 19.6292 16.8189 19.8732 16.8061 20.0724L19.9989 20.2788C20.0069 20.1556 20.0181 20.09 20.0413 19.8708L16.8573 19.5444ZM17.7869 18.6988L17.7709 18.7052L19.0021 21.6588L19.0181 21.6524L17.7869 18.6988ZM19.8237 19.478L19.1165 18.0356L16.2429 19.4436L16.9501 20.886L19.8237 19.478ZM16.9757 17.3028L16.2445 17.6612L17.6517 20.5348L18.3845 20.1764L16.9757 17.3028ZM15.5117 19.802L17.1101 23.0668L19.9837 21.6596L18.3853 18.3948L15.5117 19.802ZM19.2509 23.7996L19.9829 23.4412L18.5749 20.5676L17.8429 20.9268L19.2509 23.7996ZM20.7149 21.3004L20.1925 20.234L17.3197 21.6436L17.8421 22.7084L20.7149 21.3004ZM20.3149 21.3004L20.4269 20.818L17.3093 20.0948L17.1973 20.5772L20.3149 21.3004ZM17.9653 21.7772L19.4557 22.7964L21.2613 20.1548L19.7709 19.1356L17.9653 21.7772ZM21.0621 22.9124L21.9253 22.49L20.5181 19.6156L19.6557 20.038L21.0621 22.9124ZM22.0845 19.7052L20.0269 18.3884L18.3021 21.0844L20.3597 22.4004L22.0845 19.7052ZM20.7309 20.062L21.1301 18.142L17.9965 17.4908L17.5981 19.4108L20.7309 20.062ZM18.8605 16.3796L17.9541 16.8228L19.3605 19.6972L20.2661 19.254L18.8605 16.3796ZM18.6573 19.8596H18.6589V16.6596H18.6573V19.8596Z" fill="#00B2E3"/>
</g>
<path d="M22.1252 16.558L20.1108 17.5468L21.7092 20.8108L23.7924 19.79L23.4964 19.1844L22.154 19.842L21.774 19.0676L22.9756 18.4788L22.6812 17.878L21.4812 18.4652L21.1476 17.7884L22.4212 17.1644L22.1252 16.558Z" fill="#575756"/>
<mask id="mask8_14_163" style="mask-type:luminance" maskUnits="userSpaceOnUse" x="20" y="16" width="4" height="5">
<path d="M22.1252 16.558L20.1108 17.5468L21.7092 20.8108L23.7924 19.79L23.4964 19.1844L22.154 19.842L21.774 19.0676L22.9756 18.4788L22.6812 17.878L21.4812 18.4652L21.1476 17.7884L22.4212 17.1644L22.1252 16.558Z" fill="white"/>
</mask>
<g mask="url(#mask8_14_163)">
<path d="M22.1253 16.558L23.5621 15.8556L22.8581 14.4172L21.4205 15.122L22.1253 16.558ZM20.1109 17.5468L19.4069 16.11L17.9701 16.814L18.6741 18.25L20.1109 17.5468ZM21.7093 20.8108L20.2725 21.5148L20.9765 22.9532L22.4141 22.2484L21.7093 20.8108ZM23.7925 19.79L24.4965 21.2268L25.9325 20.5228L25.2301 19.0868L23.7925 19.79ZM23.4965 19.1844L24.9341 18.4804L24.2301 17.0428L22.7925 17.7468L23.4965 19.1844ZM22.1541 19.842L20.7173 20.546L21.4213 21.9828L22.8581 21.2788L22.1541 19.842ZM21.7741 19.0676L21.0701 17.6308L19.6341 18.3348L20.3381 19.7708L21.7741 19.0676ZM22.9757 18.4788L23.6797 19.9148L25.1149 19.2108L24.4125 17.7756L22.9757 18.4788ZM22.6813 17.878L24.1189 17.1748L23.4157 15.738L21.9789 16.4404L22.6813 17.878ZM21.4813 18.4652L20.0445 19.1708L20.7485 20.6044L22.1837 19.9028L21.4813 18.4652ZM21.1477 17.7884L20.4437 16.3516L19.0053 17.0556L19.7117 18.494L21.1477 17.7884ZM22.4213 17.1644L23.1253 18.6012L24.5621 17.8972L23.8581 16.4612L22.4213 17.1644ZM21.4213 15.122L19.4069 16.11L20.8149 18.9828L22.8293 17.9956L21.4213 15.122ZM18.6741 18.25L20.2725 21.5148L23.1461 20.1076L21.5477 16.8436L18.6741 18.25ZM22.4141 22.2484L24.4965 21.2268L23.0885 18.3532L21.0053 19.3748L22.4141 22.2484ZM25.2301 19.0868L24.9341 18.4804L22.0597 19.8876L22.3557 20.4932L25.2301 19.0868ZM22.7925 17.7476L21.4501 18.4052L22.8581 21.2788L24.2005 20.6212L22.7925 17.7476ZM23.5909 19.138L23.2109 18.3636L20.3373 19.7716L20.7173 20.546L23.5909 19.138ZM22.4789 20.5036L23.6789 19.9148L22.2709 17.042L21.0701 17.6308L22.4789 20.5036ZM24.4125 17.7756L24.1189 17.1748L21.2445 18.5812L21.5381 19.1812L24.4125 17.7756ZM21.9789 16.4404L20.7773 17.0284L22.1837 19.9028L23.3845 19.3156L21.9789 16.4404ZM22.9165 17.7604L22.5837 17.0828L19.7117 18.494L20.0445 19.1708L22.9165 17.7604ZM21.8517 19.2252L23.1253 18.6012L21.7173 15.7276L20.4437 16.3516L21.8517 19.2252ZM23.8581 16.4612L23.5629 15.8556L20.6877 17.262L20.9837 17.8676L23.8581 16.4612Z" fill="#00B2E3"/>
</g>
<path d="M25.2989 15.0045L22.7885 16.2333L23.0925 16.8533L23.9701 16.4237L25.2645 19.0685L26.0069 18.7061L24.7109 16.0605L25.6029 15.6245L25.2989 15.0045Z" fill="#575756"/>
<mask id="mask9_14_163" style="mask-type:luminance" maskUnits="userSpaceOnUse" x="22" y="15" width="5" height="5">
<path d="M25.2989 15.0045L22.7885 16.2333L23.0925 16.8533L23.9701 16.4237L25.2645 19.0685L26.0069 18.7061L24.7109 16.0605L25.6029 15.6245L25.2989 15.0045Z" fill="white"/>
</mask>
<g mask="url(#mask9_14_163)">
<path d="M25.2989 15.0044L26.7348 14.2996L26.0309 12.8636L24.5949 13.5676L25.2989 15.0044ZM22.7885 16.2332L22.0844 14.7964L20.6469 15.5004L21.3525 16.938L22.7885 16.2332ZM23.0924 16.8532L21.6564 17.558L22.3605 18.9948L23.7973 18.2908L23.0924 16.8532ZM23.9701 16.4236L25.4077 15.7196L24.7036 14.282L23.2661 14.9868L23.9701 16.4236ZM25.2645 19.0684L23.8277 19.7724L24.5309 21.2076L25.9669 20.506L25.2645 19.0684ZM26.0068 18.706L26.7093 20.1436L28.1485 19.4396L27.4445 18.002L26.0068 18.706ZM24.7109 16.0604L24.0068 14.6236L22.5701 15.3276L23.2741 16.7644L24.7109 16.0604ZM25.6029 15.6244L26.3068 17.0612L27.7445 16.3572L27.0389 14.9196L25.6029 15.6244ZM24.5949 13.5676L22.0844 14.7964L23.4924 17.6708L26.002 16.4412L24.5949 13.5676ZM21.3525 16.938L21.6564 17.558L24.5292 16.1492L24.2253 15.5292L21.3525 16.938ZM23.7973 18.2908L24.6749 17.8596L23.2661 14.9868L22.3885 15.4172L23.7973 18.2908ZM22.5333 17.1268L23.8277 19.7716L26.702 18.3652L25.4077 15.7196L22.5333 17.1268ZM25.9669 20.506L26.7093 20.1436L25.3045 17.2684L24.562 17.6308L25.9669 20.506ZM27.4445 18.002L26.1477 15.3572L23.2741 16.7644L24.5701 19.41L27.4445 18.002ZM25.4148 17.498L26.3068 17.0612L24.8989 14.1868L24.0077 14.6236L25.4148 17.498ZM27.0389 14.9196L26.7348 14.2996L23.862 15.7084L24.1661 16.3284L27.0389 14.9196Z" fill="#00B2E3"/>
</g>
<path d="M29.7316 19.3684L10.1108 28.9804L10.474 29.722L30.094 20.11L29.7316 19.3684Z" fill="#575756"/>
<mask id="mask10_14_163" style="mask-type:luminance" maskUnits="userSpaceOnUse" x="10" y="19" width="21" height="11">
<path d="M29.7316 19.3684L10.1108 28.9804L10.474 29.722L30.094 20.11L29.7316 19.3684Z" fill="white"/>
</mask>
<g mask="url(#mask10_14_163)">
<path d="M10.1109 28.9804L9.40689 27.5436L7.97009 28.2476L8.67409 29.6844L10.1109 28.9804ZM29.7317 19.3684L31.1685 18.6644L30.4645 17.2276L29.0277 17.9316L29.7317 19.3684ZM30.0949 20.11L30.7989 21.5468L32.2349 20.8428L31.5309 19.406L30.0949 20.11ZM10.4741 29.722L9.03729 30.426L9.74129 31.8628L11.1773 31.1588L10.4741 29.722ZM10.8149 30.418L30.4357 20.8052L29.0277 17.9316L9.40689 27.5436L10.8149 30.418ZM28.2949 20.0724L28.6573 20.814L31.5309 19.406L31.1685 18.6644L28.2949 20.0724ZM29.3909 18.6724L9.77009 28.286L11.1781 31.1596L30.7981 21.5476L29.3909 18.6724ZM11.9109 29.0188L11.5477 28.2772L8.67409 29.6844L9.03649 30.4268L11.9109 29.0188Z" fill="#00B2E3"/>
</g>
<path d="M25.8029 11.3372L6.18286 20.95L6.54526 21.6916L26.1669 12.078L25.8029 11.3372Z" fill="#575756"/>
<mask id="mask11_14_163" style="mask-type:luminance" maskUnits="userSpaceOnUse" x="6" y="11" width="21" height="11">
<path d="M25.8029 11.3372L6.18286 20.95L6.54526 21.6916L26.1669 12.078L25.8029 11.3372Z" fill="white"/>
</mask>
<g mask="url(#mask11_14_163)">
<path d="M6.18285 20.95L5.47885 19.5124L4.04205 20.2164L4.74605 21.6532L6.18285 20.95ZM25.8037 11.3364L27.2405 10.6324L26.5365 9.19562L25.0997 9.89962L25.8037 11.3364ZM26.1661 12.078L26.8701 13.5148L28.3069 12.8108L27.6029 11.374L26.1661 12.078ZM6.54525 21.6908L5.10845 22.3948L5.81245 23.8316L7.24925 23.1276L6.54525 21.6908ZM6.88605 22.3868L26.5069 12.774L25.0989 9.90042L5.47885 19.5124L6.88605 22.3868ZM24.3661 12.0412L24.7293 12.782L27.6029 11.374L27.2397 10.6332L24.3661 12.0412ZM25.4621 10.6412L5.84285 20.254L7.25085 23.1276L26.8709 13.5156L25.4621 10.6412ZM7.98285 20.9876L7.62045 20.246L4.74605 21.6532L5.10925 22.3956L7.98285 20.9876Z" fill="#00B2E3"/>
</g>
<path d="M2.57807 36.3885H34.6741C35.0998 36.3885 35.508 36.2194 35.8091 35.9185C36.1102 35.6175 36.2795 35.2094 36.2797 34.7837V29.6597L36.2341 29.6621C35.6871 29.647 35.1677 29.4191 34.7862 29.0269C34.4047 28.6347 34.1912 28.1092 34.1912 27.5621C34.1912 27.0149 34.4047 26.4894 34.7862 26.0972C35.1677 25.705 35.6871 25.4772 36.2341 25.4621C36.2495 25.4621 36.2647 25.4629 36.2797 25.4645V20.3405C36.2795 19.9148 36.1102 19.5066 35.8091 19.2056C35.508 18.9047 35.0998 18.7357 34.6741 18.7357H2.57807C2.15251 18.7359 1.74445 18.905 1.44354 19.2059C1.14262 19.5068 0.973479 19.9149 0.973267 20.3405V25.4629C1.2491 25.4629 1.52222 25.5172 1.77705 25.6227C2.03189 25.7283 2.26343 25.883 2.45847 26.078C2.65351 26.2731 2.80823 26.5046 2.91378 26.7595C3.01934 27.0143 3.07367 27.2874 3.07367 27.5633C3.07367 27.8391 3.01934 28.1122 2.91378 28.367C2.80823 28.6219 2.65351 28.8534 2.45847 29.0485C2.26343 29.2435 2.03189 29.3982 1.77705 29.5038C1.52222 29.6093 1.2491 29.6637 0.973267 29.6637V34.7845C0.973267 35.6709 1.69167 36.3901 2.57807 36.3901V36.3885Z" fill="white" stroke="#00B2E3" stroke-width="1.6" stroke-linecap="round" stroke-linejoin="round"/>
<path d="M30.8045 19.1685H29.9789V21.0333H30.8045V19.1685Z" fill="#575756"/>
<mask id="mask12_14_163" style="mask-type:luminance" maskUnits="userSpaceOnUse" x="29" y="19" width="2" height="3">
<path d="M30.8045 19.1685H29.9789V21.0333H30.8045V19.1685Z" fill="white"/>
</mask>
<g mask="url(#mask12_14_163)">
<path d="M29.9789 19.1685V17.5685H28.3789V19.1685H29.9789ZM30.8045 19.1685H32.4045V17.5685H30.8045V19.1685ZM30.8045 21.0333V22.6333H32.4045V21.0333H30.8045ZM29.9789 21.0333H28.3789V22.6333H29.9789V21.0333ZM29.9789 20.7685H30.8045V17.5685H29.9789V20.7685ZM29.2045 19.1685V21.0333H32.4045V19.1685H29.2045ZM30.8045 19.4333H29.9789V22.6333H30.8045V19.4333ZM31.5789 21.0333V19.1685H28.3789V21.0333H31.5789Z" fill="#00B2E3"/>
</g>
<path d="M30.8045 26.6292H29.9789V28.494H30.8045V26.6292Z" fill="#575756"/>
<mask id="mask13_14_163" style="mask-type:luminance" maskUnits="userSpaceOnUse" x="29" y="26" width="2" height="3">
<path d="M30.8045 26.6292H29.9789V28.494H30.8045V26.6292Z" fill="white"/>
</mask>
<g mask="url(#mask13_14_163)">
<path d="M29.9789 26.6292V25.0292H28.3789V26.6292H29.9789ZM30.8045 26.6292H32.4045V25.0292H30.8045V26.6292ZM30.8045 28.494V30.094H32.4045V28.494H30.8045ZM29.9789 28.494H28.3789V30.094H29.9789V28.494ZM29.9789 28.2292H30.8045V25.0292H29.9789V28.2292ZM29.2045 26.6292V28.494H32.4045V26.6292H29.2045ZM30.8045 26.894H29.9789V30.094H30.8045V26.894ZM31.5789 28.494V26.63L28.3789 26.6292V28.4948L31.5789 28.494Z" fill="#00B2E3"/>
</g>
<path d="M30.8045 30.358H29.9789V32.2236H30.8045V30.358Z" fill="#575756"/>
<mask id="mask14_14_163" style="mask-type:luminance" maskUnits="userSpaceOnUse" x="29" y="30" width="2" height="3">
<path d="M30.8045 30.358H29.9789V32.2236H30.8045V30.358Z" fill="white"/>
</mask>
<g mask="url(#mask14_14_163)">
<path d="M29.9789 30.3581V28.7581H28.3789V30.3581H29.9789ZM30.8045 30.3581H32.4045V28.7581H30.8045V30.3581ZM30.8045 32.2237V33.8237H32.4045V32.2237H30.8045ZM29.9789 32.2237H28.3789V33.8237H29.9789V32.2237ZM29.9789 31.9589H30.8045V28.7589H29.9789V31.9589ZM29.2045 30.3589V32.2237H32.4045V30.3581L29.2045 30.3589ZM30.8045 30.6237H29.9789V33.8237H30.8045V30.6237ZM31.5789 32.2237V30.3589L28.3789 30.3581V32.2237H31.5789Z" fill="#00B2E3"/>
</g>
<path d="M30.8045 34.09H29.9789V35.9548H30.8045V34.09Z" fill="#575756"/>
<mask id="mask15_14_163" style="mask-type:luminance" maskUnits="userSpaceOnUse" x="29" y="34" width="2" height="2">
<path d="M30.8045 34.09H29.9789V35.9548H30.8045V34.09Z" fill="white"/>
</mask>
<g mask="url(#mask15_14_163)">
<path d="M29.9789 34.0901V32.4901H28.3789V34.0901H29.9789ZM30.8045 34.0901H32.4045V32.4901H30.8045V34.0901ZM30.8045 35.9549V37.5549H32.4045V35.9549H30.8045ZM29.9789 35.9549H28.3789V37.5549H29.9789V35.9549ZM29.9789 35.6901H30.8045V32.4901H29.9789V35.6901ZM29.2045 34.0901V35.9549H32.4045V34.0901H29.2045ZM30.8045 34.3549H29.9789V37.5549H30.8045V34.3549ZM31.5789 35.9549V34.0901H28.3789V35.9549H31.5789Z" fill="#00B2E3"/>
</g>
<path d="M30.8045 22.898H29.9789V24.7628H30.8045V22.898Z" fill="#575756"/>
<mask id="mask16_14_163" style="mask-type:luminance" maskUnits="userSpaceOnUse" x="29" y="22" width="2" height="3">
<path d="M30.8045 22.898H29.9789V24.7628H30.8045V22.898Z" fill="white"/>
</mask>
<g mask="url(#mask16_14_163)">
<path d="M29.9789 22.898V21.298H28.3789V22.898H29.9789ZM30.8045 22.898H32.4045V21.298H30.8045V22.898ZM30.8045 24.7628V26.3628H32.4045V24.7628H30.8045ZM29.9789 24.7628H28.3789V26.3628H29.9789V24.7628ZM29.9789 24.498H30.8045V21.298H29.9789V24.498ZM29.2045 22.898V24.7628H32.4045V22.898H29.2045ZM30.8045 23.1628H29.9789V26.3628H30.8045V23.1628ZM31.5789 24.7628V22.898H28.3789V24.7628H31.5789Z" fill="#00B2E3"/>
</g>
<path d="M8.49004 29.382H9.31484V26.4364H10.3076V25.746H7.51404V26.4364H8.49004V29.382Z" fill="#575756"/>
<mask id="mask17_14_163" style="mask-type:luminance" maskUnits="userSpaceOnUse" x="7" y="25" width="4" height="5">
<path d="M8.49004 29.382H9.31484V26.4364H10.3076V25.746H7.51404V26.4364H8.49004V29.382Z" fill="white"/>
</mask>
<g mask="url(#mask17_14_163)">
<path d="M8.49001 29.3821H6.89001V30.9821H8.49001V29.3821ZM9.31481 29.3821V30.9821H10.9148V29.3821H9.31481ZM9.31481 26.4365V24.8365H7.71481V26.4365H9.31481ZM10.3076 26.4365V28.0365H11.9076V26.4365H10.3076ZM10.3076 25.7461H11.9076V24.1461H10.3076V25.7461ZM7.51321 25.7461V24.1461H5.91321V25.7461H7.51321ZM7.51321 26.4365H5.91321V28.0365H7.51321V26.4365ZM8.48921 26.4365H10.0892V24.8365H8.48921V26.4365ZM8.48921 30.9821H9.31481V27.7821H8.49001L8.48921 30.9821ZM10.9148 29.3821V26.4365H7.71481V29.3821H10.9148ZM9.31481 28.0365H10.3084V24.8365H9.31481V28.0365ZM11.9084 26.4365V25.7461H8.70841V26.4365H11.9084ZM10.3084 24.1461H7.51321V27.3461H10.3084V24.1461ZM5.91321 25.7461V26.4365H9.11321V25.7461H5.91321ZM7.51321 28.0365H8.48921V24.8365H7.51321V28.0365ZM6.88921 26.4365V29.3821H10.0892V26.4365H6.88921Z" fill="#00B2E3"/>
</g>
<path d="M11.7837 25.746H10.9573V29.3828H11.7837V25.746Z" fill="#575756"/>
<mask id="mask18_14_163" style="mask-type:luminance" maskUnits="userSpaceOnUse" x="10" y="25" width="2" height="5">
<path d="M11.7837 25.746H10.9573V29.3828H11.7837V25.746Z" fill="white"/>
</mask>
<g mask="url(#mask18_14_163)">
<path d="M10.9573 25.7461V24.1461H9.3573V25.7461H10.9573ZM11.7837 25.7461H13.3837V24.1461H11.7837V25.7461ZM11.7837 29.3829V30.9829H13.3837V29.3829H11.7837ZM10.9573 29.3829H9.3573V30.9829H10.9573V29.3829ZM10.9573 27.3461H11.7837V24.1461H10.9573V27.3461ZM10.1837 25.7461V29.3829H13.3837V25.7461H10.1837ZM11.7837 27.7829H10.9573V30.9829H11.7837V27.7829ZM12.5573 29.3829V25.7461H9.3573V29.3829H12.5573Z" fill="#00B2E3"/>
</g>
<path d="M14.3397 29.4356C14.7829 29.4356 15.1221 29.3548 15.2725 29.2796L15.1477 28.6372C14.9853 28.7012 14.7117 28.7556 14.4629 28.7556C13.7301 28.7556 13.2981 28.2972 13.2981 27.5692C13.2981 26.7612 13.8053 26.3668 14.4581 26.3668C14.7493 26.3668 14.9821 26.4316 15.1485 26.502L15.3157 25.8492C15.1701 25.774 14.8469 25.6868 14.4197 25.6868C13.3205 25.6868 12.4357 26.378 12.4357 27.618C12.4357 28.654 13.0829 29.4356 14.3397 29.4356Z" fill="#575756"/>
<mask id="mask19_14_163" style="mask-type:luminance" maskUnits="userSpaceOnUse" x="12" y="25" width="4" height="5">
<path d="M14.3397 29.4356C14.7829 29.4356 15.1221 29.3548 15.2725 29.2796L15.1477 28.6372C14.9853 28.7012 14.7117 28.7556 14.4629 28.7556C13.7301 28.7556 13.2981 28.2972 13.2981 27.5692C13.2981 26.7612 13.8053 26.3668 14.4581 26.3668C14.7493 26.3668 14.9821 26.4316 15.1485 26.502L15.3157 25.8492C15.1701 25.774 14.8469 25.6868 14.4197 25.6868C13.3205 25.6868 12.4357 26.378 12.4357 27.618C12.4357 28.654 13.0829 29.4356 14.3397 29.4356Z" fill="white"/>
</mask>
<g mask="url(#mask19_14_163)">
<path d="M14.3397 29.4357V27.8357H12.7397V29.4357H14.3397ZM15.2725 29.2797L15.9885 30.7109L17.0757 30.1669L16.8437 28.9749L15.2725 29.2797ZM15.1477 28.6373L16.7189 28.3325L16.3525 26.4469L14.5645 27.1477L15.1477 28.6373ZM15.1477 26.5013L14.5261 27.9765L16.2357 28.6973L16.6981 26.9005L15.1477 26.5013ZM15.3157 25.8493L16.8653 26.2477L17.1821 25.0141L16.0517 24.4285L15.3157 25.8493ZM14.3397 29.4357V31.0365H15.9397V29.4365L14.3397 29.4357ZM14.3397 31.0365C14.9157 31.0365 15.5309 30.9397 15.9877 30.7109L14.5573 27.8485C14.5941 27.8303 14.62 27.8189 14.6349 27.8141L14.6621 27.8045L14.6237 27.8125C14.5299 27.8286 14.4349 27.8364 14.3397 27.8357V31.0365ZM16.8437 28.9741L16.7189 28.3325L13.5773 28.9429L13.7021 29.5845L16.8437 28.9741ZM14.5645 27.1477L14.5925 27.1373C14.5614 27.1445 14.5299 27.1498 14.4981 27.1533L14.4629 27.1557V30.3557C14.8925 30.3557 15.3669 30.2701 15.7317 30.1269L14.5645 27.1477ZM14.4629 27.1557C14.4373 27.1557 14.5941 27.1557 14.7541 27.3213C14.9085 27.4797 14.8981 27.6189 14.8981 27.5693H11.6981C11.6981 28.2469 11.9045 28.9789 12.4581 29.5493C13.0173 30.1261 13.7565 30.3557 14.4629 30.3557V27.1557ZM14.8981 27.5693C14.8981 27.5333 14.9037 27.5549 14.8821 27.6125C14.8513 27.6916 14.8029 27.7628 14.7405 27.8205C14.5877 27.9661 14.4477 27.9669 14.4581 27.9669V24.7669C13.8157 24.7669 13.0965 24.9637 12.5269 25.5093C11.9429 26.0677 11.6981 26.8189 11.6981 27.5693H14.8981ZM14.4581 27.9669C14.4832 27.9669 14.5008 27.9685 14.5109 27.9717L14.5269 27.9757L15.7701 25.0277C15.3547 24.8537 14.9085 24.765 14.4581 24.7669V27.9669ZM16.6981 26.8997L16.8661 26.2477L13.7661 25.4509L13.5981 26.1037L16.6981 26.8997ZM16.0517 24.4285C15.6117 24.2013 15.0149 24.0869 14.4197 24.0869V27.2869C14.5261 27.2869 14.6061 27.2981 14.6517 27.3077L14.6781 27.3133L14.6509 27.3029C14.6267 27.2934 14.6029 27.2827 14.5797 27.2709L16.0517 24.4285ZM14.4197 24.0869C13.5413 24.0869 12.6381 24.3653 11.9365 25.0069C11.2141 25.6661 10.8357 26.5933 10.8357 27.6181H14.0357C14.0357 27.5005 14.0557 27.4373 14.0669 27.4117C14.0727 27.3953 14.0823 27.3805 14.0949 27.3685C14.1109 27.3541 14.1981 27.2869 14.4197 27.2869V24.0869ZM10.8357 27.6181C10.8357 28.4677 11.1053 29.3549 11.7741 30.0365C12.4509 30.7261 13.3709 31.0365 14.3397 31.0365V27.8365C14.2506 27.8395 14.1617 27.8276 14.0765 27.8013C14.0469 27.7901 14.0477 27.7853 14.0581 27.7957C14.0893 27.8269 14.0357 27.8053 14.0357 27.6181H10.8357ZM15.9397 29.4365L12.7397 29.4357V29.4373L15.9397 29.4365Z" fill="#00B2E3"/>
</g>
<path d="M16.7301 28.1948L17.0437 27.8108L17.9341 29.382H18.8941L17.6269 27.294L18.8293 25.746H17.8213L16.9957 26.9548C16.9157 27.0852 16.8277 27.214 16.7477 27.354H16.7317V25.746H15.9165V29.3828H16.7317V28.1964L16.7301 28.1948Z" fill="#575756"/>
<mask id="mask20_14_163" style="mask-type:luminance" maskUnits="userSpaceOnUse" x="15" y="25" width="4" height="5">
<path d="M16.7301 28.1948L17.0437 27.8108L17.9341 29.382H18.8941L17.6269 27.294L18.8293 25.746H17.8213L16.9957 26.9548C16.9157 27.0852 16.8277 27.214 16.7477 27.354H16.7317V25.746H15.9165V29.3828H16.7317V28.1964L16.7301 28.1948Z" fill="white"/>
</mask>
<g mask="url(#mask20_14_163)">
<path d="M16.7301 28.1949L15.4909 27.1829L14.5765 28.3029L15.5989 29.3261L16.7301 28.1949ZM17.0437 27.8109L18.4357 27.0221L17.2829 24.9901L15.8045 26.7997L17.0437 27.8109ZM17.9341 29.3821L16.5421 30.1709L17.0021 30.9821H17.9341V29.3821ZM18.8941 29.3821V30.9821H21.7373L20.2621 28.5517L18.8941 29.3821ZM17.6269 27.2941L16.3629 26.3125L15.6877 27.1829L16.2597 28.1245L17.6269 27.2941ZM18.8293 25.7461L20.0933 26.7277L22.0981 24.1461H18.8293V25.7461ZM17.8213 25.7461V24.1461H16.9749L16.4989 24.8437L17.8213 25.7461ZM16.9957 26.9549L15.6741 26.0525L15.6541 26.0821L15.6357 26.1117L16.9957 26.9549ZM16.7477 27.3541V28.9541H17.6741L18.1349 28.1509L16.7477 27.3541ZM16.7317 27.3541H15.1317V28.9541H16.7317V27.3541ZM16.7317 25.7461H18.3317V24.1461H16.7317V25.7461ZM15.9165 25.7461V24.1461H14.3165V25.7461H15.9165ZM15.9165 29.3829H14.3165V30.9829H15.9165V29.3829ZM16.7317 29.3829V30.9829H18.3317V29.3829H16.7317ZM16.7317 28.1965H18.3317V27.5341L17.8637 27.0653L16.7317 28.1965ZM17.9693 29.2077L18.2829 28.8237L15.8045 26.7997L15.4909 27.1829L17.9693 29.2077ZM15.6517 28.6013L16.5421 30.1709L19.3261 28.5925L18.4357 27.0221L15.6517 28.6013ZM17.9341 30.9821H18.8941V27.7821H17.9341V30.9821ZM20.2621 28.5517L18.9949 26.4637L16.2597 28.1245L17.5269 30.2125L20.2621 28.5517ZM18.8909 28.2757L20.0933 26.7277L17.5653 24.7653L16.3637 26.3133L18.8909 28.2757ZM18.8293 24.1461H17.8213V27.3461H18.8293V24.1461ZM16.4997 24.8445L15.6741 26.0525L18.3173 27.8573L19.1421 26.6493L16.4997 24.8445ZM15.6357 26.1117C15.6037 26.1645 15.4541 26.3925 15.3597 26.5573L18.1349 28.1509C18.2013 28.0349 18.2269 28.0061 18.3557 27.7989L15.6357 26.1117ZM16.7477 25.7541H16.7317V28.9541H16.7477V25.7541ZM18.3317 27.3541V25.7461H15.1317V27.3541H18.3317ZM16.7317 24.1461H15.9165V27.3461H16.7317V24.1461ZM14.3165 25.7461V29.3829H17.5165V25.7461H14.3165ZM15.9165 30.9829H16.7317V27.7829H15.9165V30.9829ZM18.3317 29.3829V28.1965H15.1317V29.3829H18.3317ZM17.8637 27.0653L17.8621 27.0645L15.5981 29.3261L15.5997 29.3277L17.8637 27.0653Z" fill="#00B2E3"/>
</g>
<path d="M21.6917 26.4196V25.746H19.4469V29.3812H21.7669V28.7068H20.2725V27.8436H21.6101V27.1748H20.2725V26.4196H21.6917Z" fill="#575756"/>
<mask id="mask21_14_163" style="mask-type:luminance" maskUnits="userSpaceOnUse" x="19" y="25" width="3" height="5">
<path d="M21.6917 26.4196V25.746H19.4469V29.3812H21.7669V28.7068H20.2725V27.8436H21.6101V27.1748H20.2725V26.4196H21.6917Z" fill="white"/>
</mask>
<g mask="url(#mask21_14_163)">
<path d="M21.6917 26.4197V28.0197H23.2917V26.4197H21.6917ZM21.6917 25.7461H23.2917V24.1461H21.6917V25.7461ZM19.4477 25.7461V24.1461H17.8477V25.7461H19.4477ZM19.4477 29.3813H17.8477V30.9813H19.4477V29.3813ZM21.7677 29.3813V30.9813H23.3677V29.3813H21.7677ZM21.7677 28.7069H23.3677V27.1069H21.7677V28.7069ZM20.2733 28.7069H18.6733V30.3069H20.2733V28.7069ZM20.2733 27.8437V26.2437H18.6733V27.8437H20.2733ZM21.6109 27.8437V29.4437H23.2109V27.8437H21.6109ZM21.6109 27.1749H23.2109V25.5749H21.6109V27.1749ZM20.2733 27.1749H18.6733V28.7749H20.2733V27.1749ZM20.2733 26.4197V24.8197H18.6733V26.4197H20.2733ZM23.2917 26.4197V25.7461H20.0917V26.4197H23.2917ZM21.6917 24.1461H19.4477L19.4469 27.3461H21.6909L21.6917 24.1461ZM17.8477 25.7461V29.3813H21.0477V25.7461H17.8477ZM19.4477 30.9813H21.7677V27.7813H19.4477V30.9813ZM23.3677 29.3813V28.7069H20.1677V29.3813H23.3677ZM21.7677 27.1069H20.2733V30.3069H21.7677V27.1069ZM21.8733 28.7069V27.8437H18.6733V28.7069H21.8733ZM20.2733 29.4437H21.6109V26.2437H20.2733V29.4437ZM23.2109 27.8437V27.1749H20.0109V27.8445L23.2109 27.8437ZM21.6109 25.5749H20.2733V28.7749H21.6109V25.5749ZM21.8733 27.1749V26.4197H18.6733V27.1749H21.8733ZM20.2733 28.0197H21.6917V24.8197H20.2733V28.0197Z" fill="#00B2E3"/>
</g>
<path d="M24.2389 29.382V26.4364H25.2301V25.746H22.4357V26.4364H23.4133V29.382H24.2389Z" fill="#575756"/>
<mask id="mask22_14_163" style="mask-type:luminance" maskUnits="userSpaceOnUse" x="22" y="25" width="4" height="5">
<path d="M24.2389 29.382V26.4364H25.2301V25.746H22.4357V26.4364H23.4133V29.382H24.2389Z" fill="white"/>
</mask>
<g mask="url(#mask22_14_163)">
<path d="M24.2389 29.3821V30.9821H25.8389V29.3821H24.2389ZM24.2389 26.4365V24.8365H22.6389V26.4365H24.2389ZM25.2301 26.4365V28.0365H26.8301V26.4365H25.2301ZM25.2301 25.7461H26.8301V24.1461H25.2301V25.7461ZM22.4357 25.7461V24.1461H20.8357V25.7461H22.4357ZM22.4357 26.4365H20.8357V28.0365H22.4357V26.4365ZM23.4133 26.4365H25.0133V24.8365H23.4133V26.4365ZM23.4133 29.3821H21.8133V30.9821H23.4133V29.3821ZM25.8389 29.3821L25.8381 26.4365H22.6389L22.6381 29.3821H25.8389ZM24.2381 28.0365H25.2301V24.8365H24.2389L24.2381 28.0365ZM26.8301 26.4365V25.7461H23.6301V26.4365H26.8301ZM25.2301 24.1461H22.4357V27.3461H25.2301V24.1461ZM20.8357 25.7461V26.4365H24.0357V25.7461H20.8357ZM22.4357 28.0365H23.4133V24.8365H22.4357V28.0365ZM21.8133 26.4365V29.3821H25.0133V26.4365H21.8133ZM23.4133 30.9821H24.2389L24.2381 27.7821H23.4125L23.4133 30.9821Z" fill="#00B2E3"/>
</g>
<path d="M27.2965 31.618H5.44849V32.4436H27.2965V31.618Z" fill="#575756"/>
<mask id="mask23_14_163" style="mask-type:luminance" maskUnits="userSpaceOnUse" x="5" y="31" width="23" height="2">
<path d="M27.2965 31.618H5.44849V32.4436H27.2965V31.618Z" fill="white"/>
</mask>
<g mask="url(#mask23_14_163)">
<path d="M5.44766 31.6181V30.0181H3.84766V31.6181H5.44766ZM27.2965 31.6181H28.8965V30.0181H27.2965V31.6181ZM27.2965 32.4437V34.0437H28.8965V32.4437H27.2965ZM5.44846 32.4437H3.84846V34.0437H5.44846V32.4437ZM5.44846 33.2181H27.2965V30.0181H5.44846V33.2181ZM25.6965 31.6181V32.4437H28.8965V31.6181H25.6965ZM27.2965 30.8437H5.44846V34.0437H27.2965V30.8437ZM7.04846 32.4437V31.6181H3.84846V32.4437H7.04846Z" fill="#00B2E3"/>
</g>
<path d="M27.2965 22.6757H5.44849V23.5013H27.2965V22.6757Z" fill="#575756"/>
<mask id="mask24_14_163" style="mask-type:luminance" maskUnits="userSpaceOnUse" x="5" y="22" width="23" height="2">
<path d="M27.2965 22.6757H5.44849V23.5013H27.2965V22.6757Z" fill="white"/>
</mask>
<g mask="url(#mask24_14_163)">
<path d="M5.44766 22.6757V21.0757H3.84766V22.6757H5.44766ZM27.2965 22.6757H28.8965V21.0757H27.2965V22.6757ZM27.2965 23.5013V25.1013H28.8965V23.5013H27.2965ZM5.44846 23.5013H3.84846V25.1013H5.44846V23.5013ZM5.44846 24.2757H27.2965V21.0757H5.44846V24.2757ZM25.6965 22.6757V23.5013H28.8965V22.6757H25.6965ZM27.2965 21.9013H5.44846V25.1013H27.2965V21.9013ZM7.04846 23.5013V22.6757H3.84846V23.5013H7.04846Z" fill="#00B2E3"/>
</g>
</g>
</g>
<defs>
<clipPath id="clip0_14_163">
<rect width="40" height="40" fill="white" transform="translate(0.16687 0.390015)"/>
</clipPath>
<clipPath id="clip1_14_163">
<rect width="40" height="33.6" fill="white" transform="translate(0.16687 3.59003)"/>
</clipPath>
</defs>
</svg>
