<svg width="30" height="21" viewBox="0 0 30 21" fill="none" xmlns="http://www.w3.org/2000/svg">
<g clip-path="url(#clip0_14_1288)">
<path d="M28.1939 7.90677C28.2568 6.05828 27.8588 4.22318 27.0359 2.56677C26.4822 1.89152 25.7075 1.43387 24.8489 1.27477C21.3104 0.948546 17.7568 0.815016 14.2039 0.874774C10.6632 0.811998 7.12163 0.941188 3.59488 1.26177C2.89512 1.39173 2.24901 1.72453 1.73688 2.21877C0.594884 3.29277 0.465884 5.12977 0.337884 6.67977C0.153323 9.47039 0.153323 12.2702 0.337884 15.0608C0.374884 15.9348 0.502884 16.8018 0.719884 17.6478C0.873931 18.2973 1.18425 18.8994 1.62388 19.4018C2.1385 19.9232 2.79994 20.2752 3.51988 20.4108C6.26188 20.7548 9.02488 20.8978 11.7869 20.8378C16.2389 20.9018 20.1429 20.8378 24.7599 20.4748C25.4967 20.3467 26.1762 19.9947 26.7059 19.4668C27.064 19.1035 27.3301 18.6598 27.4819 18.1728C27.9359 16.7538 28.1599 15.2688 28.1429 13.7758C28.1929 13.0548 28.1939 8.68277 28.1939 7.90677ZM11.3289 6.54977L18.8579 10.5768C16.7469 11.7618 13.9619 13.1068 11.3279 14.5548L11.3289 6.54977Z" fill="#4F4F4F"/>
</g>
<defs>
<clipPath id="clip0_14_1288">
<rect width="29" height="20" fill="white" transform="translate(0.0749512 0.859863)"/>
</clipPath>
</defs>
</svg>
