<svg width="39" height="26" viewBox="0 0 39 26" fill="none" xmlns="http://www.w3.org/2000/svg">
<g clip-path="url(#clip0_14_1394)">
<g clip-path="url(#clip1_14_1394)">
<g clip-path="url(#clip2_14_1394)">
<mask id="mask0_14_1394" style="mask-type:luminance" maskUnits="userSpaceOnUse" x="0" y="0" width="38" height="26">
<path d="M0.199951 0.859863H37.297V25.8599H0.199951V0.859863Z" fill="white"/>
</mask>
<g mask="url(#mask0_14_1394)">
<path d="M33.6669 1.27783H3.82793C2.04693 1.27783 0.601929 2.76983 0.601929 4.61083V22.1108C0.601929 23.9518 2.04693 25.4448 3.82793 25.4448H33.6669C35.4479 25.4448 36.8929 23.9518 36.8929 22.1108V4.61083C36.8929 2.77083 35.4479 1.27783 33.6669 1.27783Z" fill="white" stroke="#D3D3D4"/>
<path fill-rule="evenodd" clip-rule="evenodd" d="M34.8759 15.9898H33.2059C33.0409 15.9898 32.9299 15.9958 32.8359 16.0608C32.7399 16.1248 32.7029 16.2198 32.7029 16.3448C32.7029 16.4948 32.7839 16.5948 32.9029 16.6388C32.9989 16.6738 33.1029 16.6838 33.2559 16.6838L33.7519 16.6968C34.2519 16.7098 34.5869 16.7988 34.7919 17.0148C34.8289 17.0448 34.8499 17.0788 34.8759 17.1128V15.9898ZM34.8759 18.5908C34.6539 18.9258 34.2199 19.0958 33.6339 19.0958H31.8639V18.2498H33.6259C33.8009 18.2498 33.9229 18.2258 33.9969 18.1518C34.0316 18.1187 34.059 18.0788 34.0776 18.0345C34.0962 17.9903 34.1055 17.9428 34.1049 17.8948C34.1062 17.8458 34.0968 17.7971 34.0775 17.7521C34.0581 17.707 34.0293 17.6667 33.9929 17.6338C33.9269 17.5738 33.8299 17.5458 33.6699 17.5458C32.8099 17.5158 31.7379 17.5738 31.7379 16.3258C31.7379 15.7528 32.0909 15.1508 33.0529 15.1508H34.8749V14.3658H33.1819C32.6699 14.3658 32.2989 14.4908 32.0349 14.6878V14.3658H29.5289C29.1289 14.3658 28.6589 14.4678 28.4359 14.6878V14.3658H23.9599V14.6878C23.6029 14.4228 23.0019 14.3658 22.7239 14.3658H19.7709V14.6878C19.4889 14.4078 18.8619 14.3658 18.4809 14.3658H15.1759L14.4199 15.2078L13.7119 14.3658H8.77592V19.8708H13.6189L14.3979 19.0148L15.1319 19.8708L18.1169 19.8738V18.5778H18.4109C18.8069 18.5838 19.2739 18.5678 19.6869 18.3838V19.8698H22.1489V18.4358H22.2669C22.4189 18.4358 22.4339 18.4418 22.4339 18.5978V19.8708H29.9139C30.3899 19.8708 30.8859 19.7458 31.1609 19.5178V19.8708H33.5329C34.0269 19.8708 34.5089 19.7998 34.8759 19.6168V18.5908ZM31.2229 17.0148C31.4019 17.2048 31.4969 17.4448 31.4969 17.8508C31.4969 18.6998 30.9829 19.0958 30.0579 19.0958H28.2749V18.2498H30.0519C30.2249 18.2498 30.3489 18.2258 30.4249 18.1518C30.4599 18.1189 30.4878 18.079 30.5067 18.0348C30.5256 17.9906 30.5352 17.9429 30.5349 17.8948C30.5354 17.8458 30.5256 17.7973 30.5061 17.7523C30.4867 17.7074 30.458 17.667 30.4219 17.6338C30.3519 17.5738 30.2549 17.5458 30.0959 17.5458C29.2399 17.5158 28.1669 17.5738 28.1669 16.3258C28.1669 15.7528 28.5169 15.1508 29.4759 15.1508H31.3119V15.9908H29.6319C29.4659 15.9908 29.3579 15.9968 29.2659 16.0608C29.1649 16.1258 29.1289 16.2198 29.1289 16.3458C29.1266 16.4098 29.1447 16.4728 29.1807 16.5257C29.2167 16.5785 29.2686 16.6186 29.3289 16.6398C29.4249 16.6738 29.5289 16.6838 29.6849 16.6838L30.1769 16.6978C30.6739 16.7108 31.0149 16.7978 31.2229 17.0148ZM22.9609 16.7708C22.8379 16.8458 22.6869 16.8528 22.5079 16.8528H21.3949V15.9658H22.5239C22.6869 15.9658 22.8489 15.9708 22.9609 16.0378C23.0789 16.1008 23.1509 16.2238 23.1509 16.3928C23.1536 16.4667 23.1375 16.5401 23.1043 16.6062C23.0711 16.6722 23.0218 16.7289 22.9609 16.7708ZM23.5129 17.2628C23.6912 17.3279 23.8473 17.4424 23.9629 17.5928C24.0909 17.7858 24.1099 17.9658 24.1129 18.3128V19.0958H23.1949V18.6018C23.1949 18.3648 23.2159 18.0138 23.0459 17.8298C22.9119 17.6888 22.7079 17.6558 22.3739 17.6558H21.3959V19.0958H20.4759V15.1498H22.5899C23.0539 15.1498 23.3909 15.1708 23.6919 15.3358C23.9809 15.5158 24.1619 15.7628 24.1619 16.2128C24.1619 16.8428 23.7539 17.1628 23.5129 17.2628ZM24.6699 15.1508H27.7269V15.9668H25.5819V16.6838H27.6739V17.4888H25.5829V18.2738L27.7269 18.2768V19.0968H24.6699V15.1508ZM18.4919 16.9708H17.3099V15.9658H18.5039C18.8339 15.9658 19.0639 16.1058 19.0639 16.4498C19.0639 16.7908 18.8439 16.9708 18.4939 16.9708M16.3989 18.7368L14.9929 17.1298L16.3989 15.5738V18.7368ZM12.7679 18.2738H10.5169V17.4888H12.5269V16.6838H10.5169V15.9668H12.8129L13.8129 17.1168L12.7679 18.2738ZM20.0479 16.4498C20.0479 17.5458 19.2539 17.7728 18.4529 17.7728H17.3109V19.0958H15.5309L14.4029 17.7898L13.2309 19.0958H9.60292V15.1498H13.2859L14.4119 16.4438L15.5769 15.1508H18.5029C19.2289 15.1508 20.0459 15.3578 20.0459 16.4508M5.55592 10.5558L4.92692 8.97983L4.30392 10.5538L5.55592 10.5558ZM19.3619 9.92883C19.2369 10.0088 19.0869 10.0108 18.9099 10.0108H17.7969V9.13383H18.9239C19.0839 9.13383 19.2499 9.14083 19.3579 9.20383C19.4779 9.26183 19.5509 9.38383 19.5509 9.55383C19.5509 9.72583 19.4809 9.86383 19.3619 9.92883ZM27.2989 10.5558L26.6649 8.98183L26.0349 10.5558H27.2989ZM12.5049 12.2588H11.5659L11.5629 9.16683L10.2349 12.2588H9.42992L8.09992 9.16383V12.2578H6.23592L5.88492 11.3778H3.97792L3.62392 12.2578H2.62792L4.26792 8.30983H5.62992L7.18792 12.0478V8.30983H8.67992L9.87792 10.9878L10.9799 8.31083H12.5039L12.5049 12.2588ZM16.2469 12.2588H13.1869V8.30983H16.2469V9.13283H14.1039V9.84283H16.1959V10.6528H14.1039V11.4408H16.2469V12.2588ZM20.5599 9.37483C20.5599 10.0038 20.1519 10.3288 19.9149 10.4258C20.1149 10.5058 20.2849 10.6438 20.3669 10.7598C20.4969 10.9558 20.5189 11.1298 20.5189 11.4828V12.2578H19.5949L19.5919 11.7608C19.5919 11.5238 19.6139 11.1818 19.4469 10.9918C19.3139 10.8528 19.1099 10.8228 18.7799 10.8228H17.7959V12.2588H16.8819V8.30983H18.9869C19.4549 8.30983 19.7999 8.32383 20.0969 8.49983C20.3869 8.67583 20.5599 8.93283 20.5599 9.37383M22.0249 12.2568H21.0909V8.31083H22.0249V12.2598V12.2568ZM32.8649 12.2568H31.5669L29.8319 9.29483V12.2578H27.9659L27.6109 11.3778H25.7079L25.3619 12.2578H24.2909C23.8449 12.2578 23.2829 12.1558 22.9629 11.8208C22.6399 11.4858 22.4729 11.0318 22.4729 10.3148C22.4729 9.72883 22.5729 9.19383 22.9669 8.77083C23.2629 8.45583 23.7269 8.31083 24.3579 8.31083H25.2449V9.15583H24.3769C24.0419 9.15583 23.8539 9.20783 23.6719 9.38983C23.5159 9.55583 23.4089 9.86983 23.4089 10.2848C23.4089 10.7068 23.4889 11.0118 23.6609 11.2108C23.8009 11.3678 24.0579 11.4148 24.2989 11.4148H24.7089L25.9999 8.30983H27.3729L28.9229 12.0438V8.30983H30.3179L31.9269 11.0598V8.30983H32.8649V12.2598V12.2568ZM2.61792 13.0338H4.18192L4.53592 12.1568H5.32592L5.67592 13.0338H8.75592V12.3638L9.02992 13.0368H10.6289L10.9029 12.3538V13.0338H18.5529L18.5499 11.5938H18.6989C18.8019 11.5988 18.8329 11.6088 18.8329 11.7838V13.0338H22.7889V12.6988C23.1089 12.8748 23.6049 13.0338 24.2589 13.0338H25.9229L26.2789 12.1568H27.0689L27.4169 13.0338H30.6249V12.2008L31.1109 13.0338H33.6809V7.52783H31.1369V8.17783L30.7809 7.52783H28.1709V8.17783L27.8439 7.52783H24.3169C23.7269 7.52783 23.2079 7.61283 22.7889 7.84983V7.52783H20.3559V7.84983C20.0899 7.60483 19.7259 7.52783 19.3209 7.52783H10.4329L9.83592 8.94983L9.22292 7.52783H6.42292V8.17783L6.11492 7.52783H3.72792L2.61792 10.1448V13.0338Z" fill="#0072CE"/>
</g>
</g>
</g>
</g>
<defs>
<clipPath id="clip0_14_1394">
<rect width="38" height="25" fill="white" transform="translate(0.199951 0.859863)"/>
</clipPath>
<clipPath id="clip1_14_1394">
<rect width="38" height="25" fill="white" transform="translate(0.199951 0.859863)"/>
</clipPath>
<clipPath id="clip2_14_1394">
<rect width="38" height="25" fill="white" transform="translate(0.199951 0.859863)"/>
</clipPath>
</defs>
</svg>
