<svg xmlns="http://www.w3.org/2000/svg" width="38" height="25" fill="none"><clipPath id="a"><path d="M0 0h37.097v25H0z"/></clipPath><g clip-path="url(#a)"><path fill="#fff" stroke="#d3d3d4" d="M33.467.418H3.628C1.847.418.402 1.91.402 3.751v17.5c0 1.841 1.445 3.334 3.226 3.334h29.839c1.781 0 3.226-1.493 3.226-3.334v-17.5c0-1.84-1.445-3.333-3.226-3.333z"/><path fill="#0072ce" fill-rule="evenodd" d="M34.676 15.13h-1.67c-.165 0-.276.006-.37.071-.096.064-.133.159-.133.284 0 .15.081.25.2.294.096.035.2.045.353.045l.496.013c.5.013.835.102 1.04.318.037.03.058.064.084.098zm0 2.601c-.222.335-.656.505-1.242.505h-1.77v-.846h1.762c.175 0 .297-.024.371-.098a.35.35 0 0 0 .108-.257.34.34 0 0 0-.112-.261c-.066-.06-.163-.088-.323-.088-.86-.03-1.932.028-1.932-1.22 0-.573.353-1.175 1.315-1.175h1.822v-.785h-1.693c-.512 0-.883.125-1.147.322v-.322h-2.506c-.4 0-.87.102-1.093.322v-.322H23.76v.322c-.357-.265-.958-.322-1.236-.322h-2.953v.322c-.282-.28-.909-.322-1.29-.322h-3.305l-.756.842-.708-.842H8.576v5.505h4.843l.779-.856.734.856 2.985.003v-1.296h.294c.396.006.863-.01 1.276-.194v1.486h2.462v-1.434h.118c.152 0 .167.006.167.162v1.273h7.48c.476 0 .972-.125 1.247-.353v.353h2.372c.494 0 .976-.071 1.343-.254zm-3.653-1.576c.179.19.274.43.274.836 0 .849-.514 1.245-1.439 1.245h-1.783v-.846h1.777c.173 0 .297-.024.373-.098a.35.35 0 0 0 .11-.257.35.35 0 0 0-.113-.261c-.07-.06-.167-.088-.326-.088-.856-.03-1.929.028-1.929-1.22 0-.573.35-1.175 1.309-1.175h1.836v.84h-1.68c-.166 0-.274.006-.366.07-.101.065-.137.159-.137.285a.3.3 0 0 0 .2.294c.096.034.2.044.356.044l.492.014c.497.013.839.1 1.047.317zm-8.262-.244c-.123.075-.274.082-.453.082h-1.113v-.887h1.129c.163 0 .325.005.437.072.118.063.19.186.19.355a.44.44 0 0 1-.19.378m.552.492a1 1 0 0 1 .45.33c.128.193.147.373.15.72v.783h-.918v-.494c0-.237.021-.588-.149-.772-.134-.141-.338-.174-.672-.174h-.978v1.44h-.92V14.29h2.114c.464 0 .801.021 1.102.186.289.18.47.427.47.877 0 .63-.408.95-.649 1.05m1.157-2.112h3.057v.816h-2.145v.717h2.092v.805h-2.091v.785l2.144.003v.82H24.47zm-6.178 1.82H17.11v-1.005h1.194c.33 0 .56.14.56.484 0 .341-.22.521-.57.521m-2.095 1.766-1.406-1.607 1.406-1.556zm-3.631-.463h-2.251v-.785h2.01v-.805h-2.01v-.717h2.296l1 1.15zm7.28-1.824c0 1.096-.794 1.323-1.595 1.323h-1.142v1.323h-1.78l-1.128-1.306-1.172 1.306H9.403V14.29h3.683l1.126 1.294 1.165-1.293h2.926c.726 0 1.543.207 1.543 1.3M5.356 9.696 4.727 8.12l-.623 1.574zm13.806-.627c-.125.08-.275.082-.452.082h-1.113v-.877h1.127c.16 0 .326.007.434.07.12.058.193.18.193.35 0 .172-.07.31-.189.375m7.937.627-.634-1.574-.63 1.574zm-14.794 1.703h-.939l-.003-3.092-1.328 3.092H9.23L7.9 8.304v3.094H6.036l-.351-.88H3.778l-.354.88h-.996l1.64-3.948H5.43l1.558 3.738V7.45H8.48l1.198 2.678 1.102-2.677h1.524zm3.742 0h-3.06V7.45h3.06v.823h-2.143v.71h2.092v.81h-2.092v.788h2.143zm4.313-2.884c0 .629-.408.954-.645 1.051.2.08.37.218.452.334.13.196.152.37.152.723v.775h-.924l-.003-.497c0-.237.022-.579-.145-.769-.133-.139-.337-.169-.667-.169h-.984v1.436h-.914V7.45h2.105c.468 0 .813.014 1.11.19.29.176.463.433.463.874m1.465 2.883h-.934V7.451h.934V11.4zm10.84 0h-1.298l-1.735-2.962v2.963h-1.866l-.355-.88h-1.903l-.346.88h-1.071c-.446 0-1.008-.102-1.328-.437-.323-.335-.49-.789-.49-1.506 0-.586.1-1.121.494-1.544.296-.315.76-.46 1.391-.46h.887v.845h-.868c-.335 0-.523.052-.705.234-.156.166-.263.48-.263.895 0 .422.08.727.252.926.14.157.397.204.638.204h.41L25.8 7.45h1.373l1.55 3.734V7.45h1.395l1.609 2.75V7.45h.938v3.95zm-30.247.777h1.564l.354-.877h.79l.35.877h3.08v-.67l.274.673h1.599l.274-.683v.68h7.65l-.003-1.44h.149c.103.005.134.015.134.19v1.25h3.956v-.335c.32.176.816.335 1.47.335h1.664l.356-.877h.79l.348.877h3.208v-.833l.486.833h2.57V6.668h-2.544v.65l-.356-.65h-2.61v.65l-.327-.65h-3.527c-.59 0-1.109.085-1.528.322v-.322h-2.433v.322c-.266-.245-.63-.322-1.035-.322h-8.888L9.636 8.09l-.613-1.422h-2.8v.65l-.308-.65H3.528l-1.11 2.617z" clip-rule="evenodd"/></g></svg>