<svg width="140" height="46" viewBox="0 0 140 46" fill="none" xmlns="http://www.w3.org/2000/svg">
<g clip-path="url(#clip0_14_1199)">
<path d="M9.81294 45.8479C9.45994 45.8479 9.10694 45.8479 8.75394 45.8359C8.09494 45.8129 7.31894 45.7779 6.55394 45.6479C5.87497 45.5295 5.2172 45.3114 4.60194 45.0009C3.99272 44.6913 3.43702 44.2862 2.95594 43.8009C2.47063 43.3198 2.0655 42.7641 1.75594 42.1549C1.44222 41.5419 1.22788 40.8831 1.12094 40.2029C0.979936 39.4149 0.943936 38.6029 0.920936 37.9909C0.920936 37.7449 0.908936 36.9209 0.908936 36.9209V9.76386C0.908936 9.76386 0.908936 8.95186 0.920936 8.71686C0.932936 8.10486 0.967936 7.29386 1.12094 6.51686C1.25094 5.79986 1.44994 5.15286 1.75594 4.56486C2.06962 3.95789 2.4743 3.40247 2.95594 2.91786C3.43702 2.43255 3.99272 2.02742 4.60194 1.71786C5.21237 1.40835 5.86663 1.1942 6.54194 1.08286C7.34194 0.930863 8.14194 0.894863 8.75394 0.871863H9.81294L130.687 0.859863H131.757C132.357 0.894863 133.169 0.929863 133.945 1.07186C134.651 1.20186 135.297 1.40086 135.909 1.71886C136.509 2.02386 137.062 2.43586 137.544 2.91886C138.025 3.40316 138.43 3.95824 138.744 4.56486C139.049 5.16486 139.249 5.79986 139.379 6.50486C139.52 7.24686 139.555 8.01086 139.579 8.72886V38.0379C139.555 38.7329 139.508 39.4969 139.379 40.2139C139.27 40.8977 139.056 41.5606 138.744 42.1789C138.433 42.7838 138.028 43.3354 137.544 43.8129C137.066 44.3024 136.509 44.708 135.897 45.0129C135.278 45.3246 134.616 45.5426 133.933 45.6599C133.18 45.8009 132.404 45.8369 131.734 45.8479C131.393 45.8479 131.028 45.8599 130.675 45.8599H9.80094L9.81294 45.8479Z" fill="#4F4F4F"/>
<path d="M29.019 23.7118C28.984 20.4768 31.665 18.9018 31.795 18.8308C30.277 16.6198 27.925 16.3138 27.102 16.2908C25.126 16.0788 23.209 17.4658 22.209 17.4658C21.209 17.4658 19.633 16.3018 17.963 16.3368C15.811 16.3728 13.799 17.6188 12.706 19.5478C10.436 23.4878 12.129 29.2748 14.306 32.4618C15.399 34.0268 16.669 35.7668 18.339 35.6968C19.974 35.6268 20.586 34.6618 22.55 34.6618C24.514 34.6618 25.067 35.6968 26.772 35.6618C28.525 35.6378 29.63 34.0968 30.677 32.5218C31.936 30.7338 32.441 28.9688 32.465 28.8868C32.43 28.8748 29.065 27.5928 29.031 23.7118H29.019ZM25.797 14.1968C26.679 13.1028 27.279 11.6098 27.103 10.0918C25.833 10.1518 24.244 10.9748 23.327 12.0448C22.516 12.9848 21.798 14.5378 21.987 15.9968C23.409 16.1028 24.879 15.2788 25.797 14.1968ZM49.634 31.7468H44.071L42.731 35.6978H40.378L45.647 21.0898H48.093L53.363 35.6978H50.963L49.623 31.7458L49.634 31.7468ZM44.647 29.9348H49.057L46.882 23.5248H46.823L44.647 29.9348ZM64.754 30.3698C64.754 33.6748 62.978 35.8038 60.308 35.8038C58.791 35.8038 57.591 35.1218 56.956 33.9458H56.909V39.2148H54.721V25.0418H56.839V26.8178H56.874C57.485 25.6778 58.779 24.9358 60.261 24.9358C62.966 24.9358 64.742 27.0758 64.742 30.3698H64.754ZM62.508 30.3698C62.508 28.2178 61.39 26.7948 59.697 26.7948C58.003 26.7948 56.897 28.2408 56.897 30.3698C56.897 32.4988 58.027 33.9568 59.697 33.9568C61.367 33.9568 62.508 32.5458 62.508 30.3698ZM76.473 30.3698C76.473 33.6748 74.697 35.8038 72.027 35.8038C70.51 35.8038 69.31 35.1218 68.675 33.9458H68.628V39.2148H66.439V25.0418H68.556V26.8178H68.592C69.203 25.6778 70.497 24.9358 71.979 24.9358C74.684 24.9358 76.46 27.0758 76.46 30.3698H76.473ZM74.226 30.3698C74.226 28.2178 73.109 26.7948 71.416 26.7948C69.723 26.7948 68.616 28.2408 68.616 30.3698C68.616 32.4988 69.746 33.9568 71.416 33.9568C73.086 33.9568 74.226 32.5458 74.226 30.3698ZM84.222 31.6278C84.386 33.0748 85.786 34.0278 87.715 34.0278C89.644 34.0278 90.879 33.0748 90.879 31.7688C90.879 30.6388 90.079 29.9578 88.185 29.4868L86.292 29.0288C83.61 28.3818 82.363 27.1228 82.363 25.0888C82.363 22.5708 84.563 20.8418 87.68 20.8418C90.797 20.8418 92.878 22.5718 92.949 25.0878H90.738C90.608 23.6298 89.397 22.7478 87.644 22.7478C85.891 22.7478 84.68 23.6418 84.68 24.9358C84.68 25.9708 85.445 26.5698 87.327 27.0408L88.938 27.4408C91.938 28.1458 93.184 29.3578 93.184 31.4868C93.184 34.2148 91.008 35.9328 87.55 35.9328C84.316 35.9328 82.128 34.2628 81.987 31.6158H84.222V31.6278ZM97.903 22.5238V25.0408H99.926V26.7698H97.903V32.6398C97.903 33.5558 98.303 33.9798 99.197 33.9798C99.42 33.9798 99.773 33.9448 99.914 33.9328V35.6498C99.667 35.7088 99.185 35.7558 98.703 35.7558C96.551 35.7558 95.703 34.9438 95.703 32.8858V26.7818H94.151V25.0518H95.704V22.5358H97.904L97.903 22.5238ZM101.104 30.3698C101.104 27.0178 103.08 24.9128 106.15 24.9128C109.22 24.9128 111.196 27.0178 111.196 30.3698C111.196 33.7218 109.243 35.8278 106.15 35.8278C103.057 35.8278 101.104 33.7338 101.104 30.3698ZM108.985 30.3698C108.985 28.0768 107.926 26.7118 106.162 26.7118C104.398 26.7118 103.339 28.0768 103.339 30.3698C103.339 32.6628 104.386 34.0278 106.162 34.0278C107.938 34.0278 108.985 32.6878 108.985 30.3698ZM113.003 25.0538H115.085V26.8648H115.132C115.461 25.6648 116.437 24.9358 117.696 24.9358C118.013 24.9358 118.272 24.9828 118.448 25.0178V27.0648C118.272 26.9948 117.896 26.9348 117.472 26.9348C116.061 26.9348 115.19 27.8878 115.19 29.3818V35.6978H113.003V25.0538ZM128.534 32.5698C128.24 34.4978 126.358 35.8268 123.947 35.8268C120.854 35.8268 118.925 33.7568 118.925 30.4168C118.925 27.0768 120.854 24.9128 123.853 24.9128C126.852 24.9128 128.652 26.9358 128.652 30.1698V30.9228H121.136V31.0528C121.136 32.8748 122.277 34.0628 124.006 34.0628C125.217 34.0628 126.17 33.4868 126.464 32.5698H128.534ZM121.148 29.3938H126.476C126.429 27.7588 125.382 26.6888 123.865 26.6888C122.348 26.6888 121.265 27.7828 121.148 29.3938ZM44.371 10.1038C46.453 10.1038 47.676 11.3858 47.676 13.5858C47.676 15.7858 46.465 17.1138 44.371 17.1138H41.831V10.0918H44.371V10.1038ZM42.925 16.1258H44.242C45.712 16.1258 46.559 15.2088 46.559 13.5968C46.559 11.9848 45.701 11.0918 44.242 11.0918H42.925V16.1258ZM48.909 14.4678C48.909 12.7618 49.862 11.7148 51.403 11.7148C52.943 11.7148 53.896 12.7498 53.896 14.4678C53.896 16.1858 52.943 17.2198 51.402 17.2198C49.862 17.2198 48.909 16.1848 48.909 14.4678ZM52.826 14.4678C52.826 13.3148 52.308 12.6448 51.403 12.6448C50.497 12.6448 49.979 13.3148 49.979 14.4678C49.979 15.6208 50.485 16.2908 51.403 16.2908C52.321 16.2908 52.826 15.6208 52.826 14.4678ZM60.548 17.1138H59.466L58.372 13.2088H58.289L57.196 17.1138H56.126L54.666 11.8208H55.726L56.678 15.8668H56.76L57.854 11.8208H58.854L59.948 15.8668H60.03L60.971 11.8208H62.018L60.559 17.1138H60.548ZM63.222 11.8208H64.233V12.6678H64.315C64.575 12.0798 65.103 11.7278 65.891 11.7278C67.068 11.7278 67.726 12.4328 67.726 13.6908V17.1258H66.679V13.9618C66.679 13.1148 66.315 12.6918 65.539 12.6918C64.762 12.6918 64.269 13.2088 64.269 14.0318V17.1258H63.221V11.8328L63.222 11.8208ZM69.393 9.74976H70.44V17.1128H69.393V9.74976ZM71.878 14.4678C71.878 12.7618 72.83 11.7148 74.371 11.7148C75.912 11.7148 76.865 12.7498 76.865 14.4678C76.865 16.1858 75.912 17.2198 74.371 17.2198C72.83 17.2198 71.878 16.1848 71.878 14.4678ZM75.806 14.4678C75.806 13.3148 75.289 12.6448 74.383 12.6448C73.477 12.6448 72.96 13.3148 72.96 14.4678C72.96 15.6208 73.466 16.2908 74.383 16.2908C75.3 16.2908 75.806 15.6208 75.806 14.4678ZM77.987 15.6198C77.987 14.6678 78.693 14.1148 79.951 14.0438L81.386 13.9618V13.5028C81.386 12.9388 81.022 12.6328 80.304 12.6328C79.716 12.6328 79.316 12.8448 79.199 13.2208H78.187C78.293 12.3148 79.152 11.7268 80.351 11.7268C81.681 11.7268 82.433 12.3858 82.433 13.5028V17.1258H81.422V16.3848H81.339C81.022 16.9148 80.445 17.2198 79.751 17.2198C78.728 17.2198 77.987 16.6078 77.987 15.6318V15.6198ZM81.387 15.1618V14.7148L80.093 14.7968C79.363 14.8438 79.033 15.0908 79.033 15.5618C79.033 16.0318 79.446 16.3138 80.01 16.3138C80.798 16.3138 81.387 15.8088 81.387 15.1618ZM83.807 14.4668C83.807 12.7968 84.666 11.7378 86.007 11.7378C86.737 11.7378 87.347 12.0788 87.63 12.6678H87.712V9.76076H88.759V17.1238H87.759V16.2888H87.677C87.359 16.8648 86.747 17.2188 86.019 17.2188C84.666 17.2188 83.819 16.1588 83.819 14.4778L83.807 14.4668ZM84.877 14.4668C84.877 15.5968 85.407 16.2668 86.289 16.2668C87.171 16.2668 87.712 15.5838 87.712 14.4668C87.712 13.3498 87.159 12.6668 86.289 12.6668C85.419 12.6668 84.877 13.3498 84.877 14.4668ZM93.081 14.4678C93.081 12.7618 94.034 11.7148 95.574 11.7148C97.114 11.7148 98.068 12.7498 98.068 14.4678C98.068 16.1858 97.115 17.2198 95.574 17.2198C94.034 17.2198 93.081 16.1848 93.081 14.4678ZM96.997 14.4678C96.997 13.3148 96.48 12.6448 95.574 12.6448C94.669 12.6448 94.151 13.3148 94.151 14.4678C94.151 15.6208 94.657 16.2908 95.574 16.2908C96.492 16.2908 96.997 15.6208 96.997 14.4678ZM99.472 11.8208H100.483V12.6678H100.565C100.825 12.0798 101.353 11.7278 102.141 11.7278C103.318 11.7278 103.976 12.4328 103.976 13.6908V17.1258H102.929V13.9618C102.929 13.1148 102.565 12.6918 101.789 12.6918C101.012 12.6918 100.519 13.2088 100.519 14.0318V17.1258H99.471V11.8328L99.472 11.8208ZM109.873 10.5048V11.8448H111.025V12.7278H109.873V15.4558C109.873 16.0088 110.096 16.2558 110.626 16.2558C110.79 16.2558 110.873 16.2558 111.025 16.2318V17.1018C110.861 17.1258 110.661 17.1618 110.461 17.1618C109.297 17.1618 108.838 16.7498 108.838 15.7268V12.7388H108.003V11.8568H108.838V10.5168H109.885L109.873 10.5048ZM112.448 9.74976H113.483V12.6668H113.565C113.824 12.0788 114.377 11.7148 115.177 11.7148C116.306 11.7148 117 12.4318 117 13.6908V17.1128H115.953V13.9498C115.953 13.1038 115.565 12.6798 114.824 12.6798C113.965 12.6798 113.495 13.2208 113.495 14.0208V17.1138H112.448V9.74976ZM123.102 15.6898C122.867 16.6428 122.02 17.2198 120.809 17.2198C119.291 17.2198 118.362 16.1848 118.362 14.4908C118.362 12.7968 119.315 11.7268 120.809 11.7268C122.302 11.7268 123.173 12.7388 123.173 14.3968V14.7618H119.432V14.8208C119.468 15.7498 120.009 16.3378 120.844 16.3378C121.479 16.3378 121.914 16.1138 122.102 15.6908H123.114L123.102 15.6898ZM119.421 13.9848H122.091C122.067 13.1498 121.561 12.6088 120.785 12.6088C120.009 12.6088 119.468 13.1498 119.409 13.9848H119.421Z" fill="white"/>
</g>
<defs>
<clipPath id="clip0_14_1199">
<rect width="139" height="45" fill="white" transform="translate(0.908936 0.859863)"/>
</clipPath>
</defs>
</svg>
