<svg width="165" height="55" viewBox="0 0 165 55" fill="none" xmlns="http://www.w3.org/2000/svg">
<g clip-path="url(#clip0_14_1248)">
<path fill-rule="evenodd" clip-rule="evenodd" d="M43.365 20.6399H47.162L45.246 15.9929L43.365 20.6399ZM54.753 15.4539H52.747V22.9689H54.753C56.956 22.9689 58.517 21.3839 58.517 19.2089C58.517 17.0339 56.957 15.4539 54.753 15.4539ZM17.13 20.6399H20.928L19.012 15.9929L17.13 20.6399ZM28.745 15.4899H26.515V19.3989H28.743C29.947 19.3989 30.81 18.5669 30.81 17.4439C30.81 16.3209 29.947 15.4909 28.743 15.4909M37.303 15.4899H35.075V19.3989H37.303C38.507 19.3989 39.37 18.5669 39.37 17.4439C39.37 16.3209 38.507 15.4899 37.303 15.4899ZM66.279 15.3389C64.045 15.3389 62.395 17.0089 62.395 19.2119C62.395 21.4149 64.045 23.0839 66.279 23.0839C68.513 23.0839 70.163 21.4279 70.163 19.2119C70.163 16.9969 68.513 15.3389 66.279 15.3389ZM89.872 20.6399H93.67L91.754 15.9929L89.872 20.6399Z" fill="#4F4F4F"/>
<path fill-rule="evenodd" clip-rule="evenodd" d="M99.93 9.90698H0.0749512V28.552H99.93L108.351 19.231L99.931 9.90898L99.93 9.90698ZM9.21995 24.276C6.29995 24.276 4.18495 22.158 4.18495 19.212C4.18495 16.266 6.29995 14.147 9.21995 14.147C11.492 14.147 13.313 15.499 13.877 17.619H12.619C12.096 16.199 10.833 15.351 9.22195 15.351C7.02895 15.351 5.44395 16.952 5.44395 19.212C5.44395 21.472 7.02895 23.072 9.22195 23.072C10.876 23.072 12.157 22.168 12.666 20.661H13.923C13.362 22.882 11.537 24.278 9.22195 24.278L9.21995 24.276ZM22.368 24.123L21.394 21.772H16.672L15.712 24.123H14.402L18.422 14.299H19.571L23.703 24.123H22.368ZM28.809 20.592H26.519V24.123H25.288V14.3H28.809C30.662 14.3 32.07 15.637 32.07 17.445C32.07 19.253 30.677 20.593 28.81 20.593M37.3699 20.593H35.08V24.124H33.85V14.3H37.3699C39.2239 14.3 40.632 15.637 40.632 17.445C40.632 19.253 39.239 20.593 37.371 20.593M48.6 24.124L47.625 21.773H42.903L41.943 24.124H40.6329L44.653 14.3H45.803L49.934 24.124H48.6ZM54.795 24.124H51.519V14.3H54.795C57.685 14.3 59.777 16.363 59.777 19.211C59.777 22.059 57.683 24.124 54.795 24.124ZM66.279 24.291C63.307 24.291 61.138 22.116 61.138 19.215C61.138 16.314 63.307 14.135 66.278 14.135C69.249 14.135 71.42 16.31 71.42 19.215C71.42 22.12 69.251 24.291 66.279 24.291ZM77.808 24.279C74.888 24.279 72.7729 22.161 72.7729 19.215C72.7729 16.269 74.889 14.15 77.808 14.15C80.08 14.15 81.9009 15.502 82.465 17.622H81.2049C80.6829 16.202 79.419 15.354 77.808 15.354C75.615 15.354 74.03 16.955 74.03 19.215C74.03 21.475 75.615 23.075 77.808 23.075C79.462 23.075 80.7439 22.171 81.252 20.664H82.5089C81.948 22.885 80.123 24.281 77.808 24.281H77.806L77.808 24.279ZM85.563 24.126H84.333V14.302H85.563V24.126ZM95.111 24.126L94.1359 21.775H89.4139L88.4539 24.126H87.144L91.1639 14.302H92.3139L96.445 24.126H95.111Z" fill="#4F4F4F"/>
<path d="M15.124 38.8069H9.91801V53.7719H5.86701V38.8069H0.661011V35.047H15.124V38.8069ZM24.491 47.382H21.891V53.7719H17.841V35.048H25.399C29.148 35.048 31.945 37.629 31.945 41.242C31.945 43.692 30.605 45.694 28.531 46.692L32.674 53.7719H28.149L24.491 47.382ZM21.891 43.639H25.132C26.827 43.639 27.84 42.6189 27.84 41.214C27.84 39.809 26.829 38.789 25.132 38.789H21.892V43.637L21.891 43.639ZM46.488 50.222H39.036L37.753 53.7719H33.453L40.792 35.048H44.617L52.191 53.7719H47.794L46.486 50.222H46.488ZM40.302 46.69H45.215L42.745 39.9949L40.302 46.69ZM69.153 35.048L62.071 53.7719H58.251L50.927 35.048H55.398L60.132 48.283L64.728 35.047L69.153 35.048ZM83.171 50.004V53.774H71.634V35.0499H82.875V38.7939H75.683V42.492H82.179V46.16H75.683V50.007H83.17L83.171 50.004ZM97.829 50.013V53.7729H86.591V35.047H90.641V50.012L97.829 50.013ZM114.369 41.489C114.369 45.181 111.519 47.927 107.759 47.927H104.606V53.7719H100.555V35.048H107.761C111.517 35.048 114.371 37.79 114.371 41.486H114.369V41.489ZM110.264 41.489C110.264 39.932 109.19 38.801 107.582 38.801H104.606V44.176H107.582C109.19 44.176 110.264 43.0449 110.264 41.4879M126.844 50.222H119.392L118.108 53.7719H113.809L121.148 35.048H124.972L132.546 53.7719H128.15L126.842 50.222H126.844ZM120.657 46.69H125.57L123.101 39.9949L120.657 46.69ZM133.157 47.706H137.24C137.24 49.515 138.735 50.389 140.391 50.389C141.915 50.389 143.406 49.584 143.406 48.1889C143.406 46.7939 141.7 46.3369 139.669 45.8629C136.845 45.167 133.417 44.347 133.417 40.313C133.417 36.7229 136.062 34.698 140.21 34.698C144.359 34.698 146.961 36.997 146.961 40.726H142.957C142.957 39.113 141.626 38.358 140.113 38.358C138.8 38.358 137.47 38.915 137.47 40.1399C137.47 41.458 139.098 41.857 141.079 42.331C143.933 43.053 147.518 43.942 147.518 48.137C147.518 52.332 144.295 54.143 140.42 54.143C136.121 54.143 133.159 51.728 133.159 47.7029H133.157V47.706ZM149.716 47.706H153.799C153.799 49.515 155.294 50.389 156.95 50.389C158.474 50.389 159.965 49.584 159.965 48.1889C159.965 46.7939 158.258 46.3369 156.228 45.8629C153.404 45.167 149.976 44.347 149.976 40.313C149.976 36.7229 152.621 34.698 156.769 34.698C160.917 34.698 163.519 36.997 163.519 40.726H159.515C159.515 39.113 158.185 38.358 156.671 38.358C155.359 38.358 154.029 38.915 154.029 40.1399C154.029 41.458 155.656 41.857 157.638 42.331C160.492 43.053 164.077 43.942 164.077 48.137C164.077 52.332 160.854 54.143 156.978 54.143C152.68 54.143 149.718 51.728 149.718 47.7029H149.716V47.706ZM149.622 13.313L148.009 13.279L148.029 12.347L147.179 11.2C146.748 10.752 142.16 5.87995 144.443 2.67495C145.139 1.69895 146.321 1.13295 147.614 1.16195L150.503 1.22495C151.307 1.24295 152.047 1.48295 152.642 1.91895C153.526 2.56895 154.007 3.41795 154.068 4.44295C154.245 7.37695 150.809 10.789 150.332 11.244L149.641 12.347L149.62 13.313H149.622ZM148.758 11.487L148.829 11.582L148.888 11.488L148.758 11.487ZM147.869 10.447L149.657 10.486C150.145 10.007 153.203 6.91595 153.057 4.50195C153.014 3.78395 152.682 3.20595 152.041 2.73595C151.616 2.42295 151.077 2.25195 150.483 2.23795L147.594 2.17495C146.638 2.15495 145.773 2.56095 145.273 3.26295C143.542 5.69395 147.334 9.87695 147.869 10.447Z" fill="#4F4F4F"/>
<path d="M114.651 30.7049C114.693 30.5669 114.777 30.4454 114.891 30.3569C115.496 29.9119 115.579 29.2499 115.634 28.5789C115.703 27.7609 115.793 26.9409 115.807 26.1209C115.833 24.3759 116.285 22.7989 117.314 21.3669C117.719 20.8029 117.972 20.1019 118.185 19.4279C118.372 18.8339 118.411 18.1929 118.519 17.5439C118.323 17.4419 118.069 17.3289 117.833 17.1819C116.824 16.5519 116.643 15.5039 117.357 14.5479C117.565 14.2679 117.782 14.1259 118.031 14.1259C118.201 14.1259 118.389 14.1952 118.596 14.3339C119.269 14.7859 119.973 15.1899 120.671 15.6049C121.151 15.8899 121.652 16.1429 122.13 16.4349C122.742 16.8119 122.815 17.3449 122.502 17.9589C122.289 18.3789 122.002 18.5989 121.636 18.5989C121.478 18.5989 121.304 18.5572 121.113 18.4739C121.034 18.4383 120.951 18.4131 120.866 18.3989C120.863 18.3982 120.866 18.3995 120.875 18.4029C121.241 19.4969 121.682 20.6349 121.998 21.8059C122.732 24.5409 123.405 27.2929 124.154 30.2409C125.066 28.6749 125.415 27.3479 124.677 25.8469C124.423 25.3299 124.258 24.5919 124.423 24.0769C124.758 23.0249 125.287 22.0569 125.499 20.9269C125.686 19.9329 126.404 19.0619 126.199 17.9309C126.148 17.6539 126.339 17.2659 126.534 17.0229C128.16 15.0009 128.524 12.4529 129.35 10.1039C129.688 9.14186 129.712 8.06786 129.885 7.01386C129.399 6.80286 128.9 6.61886 128.435 6.37486C127.385 5.82586 126.994 5.07286 127.24 4.15186C127.515 3.11786 128.609 2.11186 129.523 2.11186C129.56 2.11186 129.596 2.11286 129.633 2.11486C131.771 2.31486 133.836 2.85486 135.734 3.87886C136.19 4.12486 136.568 4.70886 136.759 5.22386C137.024 5.93786 136.519 6.44186 135.775 6.44186H135.701C135.568 6.4356 135.436 6.43226 135.303 6.43186C134.896 6.43186 134.483 6.46886 134.119 6.60286C133.901 6.68286 133.677 7.26386 133.752 7.53086C133.877 7.97086 134.224 8.35286 134.509 8.73486C134.963 9.34786 135.482 9.91286 135.903 10.5449C137.903 13.5489 138.887 17.0379 140.389 20.2789C140.525 20.5719 140.592 20.9279 140.582 21.2509C140.558 22.0239 140.857 22.6309 141.341 23.2019C142.134 24.1359 142.889 25.2489 142.763 26.4389C142.592 28.0559 143.654 29.2499 143.886 30.7069H144.415C144.496 30.5969 144.572 30.4869 144.628 30.3669C145.251 29.0769 145.922 27.8019 146.435 26.4649C147.037 24.8969 147.831 23.5289 149.438 22.6039C148.675 22.5609 148.05 22.5509 147.432 22.4819C146.734 22.4019 146.461 21.9199 146.409 21.2569C146.356 20.5819 146.763 20.3499 147.316 20.2599C147.69 20.1999 148.069 20.1619 148.447 20.1179C149.678 19.9729 150.913 19.8639 152.137 19.6739C152.339 19.6425 152.518 19.6262 152.675 19.6249C153.256 19.6249 153.558 19.8609 153.755 20.4839C154.034 21.3669 153.714 22.1359 152.896 22.4269C152.479 22.5749 152.026 22.6199 151.57 22.7169C151.609 23.0449 151.716 23.3629 151.666 23.6499C151.454 24.8439 151.926 25.8179 152.583 26.7279C153.293 27.7099 153.501 28.8379 153.511 30.0049C153.511 30.2389 153.488 30.4729 153.458 30.7049H154.715C154.742 30.4789 154.76 30.2409 154.758 29.9949C154.746 28.3469 154.375 27.0769 153.594 25.9949C152.98 25.1449 152.776 24.5279 152.894 23.8669C152.903 23.8189 152.91 23.7709 152.915 23.7229C153.046 23.6895 153.178 23.6495 153.313 23.6029C154.762 23.0879 155.433 21.6499 154.945 20.1079C154.493 18.6779 153.46 18.3759 152.675 18.3759C152.459 18.3759 152.221 18.3959 151.946 18.4389C151.128 18.5649 150.276 18.6589 149.454 18.7489C149.069 18.7902 148.686 18.8329 148.303 18.8769L148.052 18.9049C147.751 18.9399 147.438 18.9749 147.121 19.0269C145.161 19.3429 145.129 20.8889 145.166 21.3549C145.249 22.4079 145.758 23.1819 146.565 23.5309C145.971 24.3409 145.581 25.2059 145.269 26.0179C144.985 26.7411 144.67 27.4518 144.325 28.1479C144.106 27.5979 143.949 27.0939 144.004 26.5679C144.185 24.8679 143.184 23.4439 142.291 22.3919C141.951 21.9919 141.817 21.6719 141.829 21.2899C141.844 20.7612 141.739 20.2361 141.522 19.7539C141.03 18.6899 140.58 17.5639 140.147 16.4759C139.258 14.2499 138.34 11.9499 136.944 9.85186C136.66 9.42486 136.35 9.04186 136.049 8.66986C135.86 8.43586 135.679 8.21386 135.512 7.98886L135.325 7.74386L135.274 7.67886H135.303C135.418 7.67953 135.533 7.6822 135.647 7.68686H135.773C136.593 7.68686 137.303 7.34386 137.718 6.74586C138.106 6.18586 138.181 5.47186 137.927 4.78386C137.803 4.44886 137.319 3.31086 136.324 2.77586C134.393 1.73586 132.18 1.09586 129.747 0.869863C129.672 0.86369 129.596 0.860354 129.521 0.859863C127.906 0.859863 126.412 2.39386 126.032 3.82786C125.631 5.33386 126.294 6.66386 127.853 7.47986C128.076 7.59453 128.298 7.69886 128.518 7.79286L128.51 7.85986C128.43 8.52786 128.355 9.15786 128.17 9.68686C127.945 10.3436 127.738 11.0065 127.55 11.6749C127.057 13.3609 126.591 14.9549 125.56 16.2379C125.381 16.4619 124.807 17.2589 124.97 18.1499C125.033 18.5019 124.901 18.8599 124.681 19.4139C124.53 19.7899 124.362 20.2149 124.272 20.6939C124.162 21.2809 123.934 21.8509 123.694 22.4539L123.554 22.8049C123.439 22.3615 123.321 21.9195 123.202 21.4789C123.027 20.8461 122.831 20.2198 122.612 19.6009C122.964 19.4109 123.326 19.0839 123.613 18.5229C124.235 17.2979 123.91 16.0589 122.781 15.3669C122.496 15.1919 122.211 15.0359 121.937 14.8829C121.725 14.7684 121.515 14.6497 121.308 14.5269L120.956 14.3169C120.392 13.9917 119.838 13.6498 119.294 13.2919C118.879 13.0139 118.454 12.8719 118.031 12.8719C117.583 12.8719 116.928 13.0319 116.358 13.7919C115.797 14.5419 115.573 15.4039 115.726 16.2199C115.876 17.0249 116.385 17.7369 117.162 18.2259C117.119 18.5249 117.072 18.8029 116.997 19.0419C116.814 19.6169 116.604 20.2089 116.303 20.6279C115.164 22.2149 114.594 24.0009 114.562 26.0929C114.554 26.6809 114.499 27.2749 114.444 27.9049C114.427 28.0929 114.41 28.2802 114.395 28.4669C114.346 29.0449 114.293 29.2419 114.155 29.3419C113.75 29.6409 113.471 30.0969 113.408 30.5599C113.402 30.6029 113.386 30.6499 113.376 30.6969H114.653V30.7029L114.651 30.7049ZM161.923 1.89786C162.392 2.16853 162.76 2.54086 163.026 3.01486C163.291 3.48886 163.423 4.02186 163.424 4.61386C163.424 5.2052 163.291 5.74086 163.026 6.22086C162.761 6.70086 162.393 7.07586 161.923 7.34586C161.454 7.61586 160.923 7.75086 160.332 7.75086C159.445 7.75086 159.195 7.61586 158.725 7.34586C158.261 7.07983 157.879 6.69046 157.622 6.22086C157.353 5.72846 157.215 5.17494 157.223 4.61386C157.223 4.02186 157.356 3.48853 157.622 3.01386C157.88 2.54757 158.262 2.16144 158.725 1.89786C159.195 1.62786 159.731 1.49286 160.332 1.49286C161.234 1.49286 161.455 1.62886 161.923 1.89786ZM162.114 6.43386C162.568 5.96453 162.795 5.35786 162.796 4.61386C162.796 3.8692 162.569 3.2622 162.114 2.79286C161.66 2.3242 161.066 2.08953 160.332 2.08886C159.231 2.08786 158.993 2.32286 158.55 2.79286C158.107 3.2622 157.885 3.86886 157.885 4.61286C157.885 5.35686 158.107 5.96386 158.55 6.43386C158.993 6.90386 159.587 7.13853 160.332 7.13786C161.449 7.13786 161.66 6.90386 162.114 6.43386ZM161.516 4.59086C161.383 4.76363 161.198 4.88969 160.989 4.95086L161.846 6.22086L160.881 6.23686L160.147 5.01186H159.886V6.23686H159.091V2.94686H160.56C160.906 2.94686 161.184 3.03853 161.394 3.22186C161.604 3.4052 161.708 3.6552 161.707 3.97186C161.714 4.19435 161.647 4.41289 161.516 4.59286V4.59086ZM159.886 4.35486H160.513C160.626 4.35486 160.721 4.32453 160.796 4.26386C160.873 4.20186 160.911 4.1152 160.91 4.00386C160.909 3.83586 160.871 3.80786 160.796 3.75086C160.713 3.69289 160.614 3.66372 160.513 3.66786H159.886V4.35486Z" fill="#4F4F4F"/>
</g>
<defs>
<clipPath id="clip0_14_1248">
<rect width="164" height="54" fill="white" transform="translate(0.0749512 0.859863)"/>
</clipPath>
</defs>
</svg>
