<svg width="41" height="39" viewBox="0 0 41 39" fill="none" xmlns="http://www.w3.org/2000/svg">
<g clip-path="url(#clip0_14_301)">
<path d="M29.2421 29.311C29.0469 29.0765 28.9401 28.7812 28.9401 28.4762C28.9401 28.1712 29.0469 27.8758 29.2421 27.6414C30.8674 25.643 31.7844 23.1622 31.8497 20.5871C31.9209 17.4671 30.7611 14.4445 28.6212 12.1728C26.4812 9.90119 23.5332 8.56316 20.4144 8.4481C18.1611 8.37884 15.9356 8.96007 14.0039 10.1223C12.0722 11.2845 10.5162 12.9785 9.52185 15.0017C8.52752 17.0249 8.13698 19.2917 8.39695 21.5311C8.65691 23.7704 9.55637 25.8874 10.9878 27.6291C11.0981 27.7601 11.1816 27.9115 11.2335 28.0748C11.2853 28.2381 11.3045 28.41 11.2899 28.5806C11.2753 28.7513 11.2272 28.9175 11.1484 29.0696C11.0696 29.2217 10.9616 29.3568 10.8306 29.4671C10.6996 29.5775 10.5482 29.661 10.3849 29.7128C10.2216 29.7647 10.0497 29.7838 9.87903 29.7693C9.70835 29.7547 9.54221 29.7066 9.39011 29.6278C9.238 29.549 9.10291 29.441 8.99253 29.31C7.27796 27.2073 6.19492 24.6615 5.86916 21.968C5.54339 19.2746 5.98826 16.5439 7.15211 14.0931C8.31596 11.6424 10.1511 9.57194 12.4444 8.12223C14.7377 6.67253 17.3951 5.90302 20.1082 5.90302C22.8213 5.90302 25.4788 6.67253 27.7721 8.12223C30.0654 9.57194 31.9005 11.6424 33.0644 14.0931C34.2282 16.5439 34.6731 19.2746 34.3473 21.968C34.0216 24.6615 32.9385 27.2073 31.224 29.31C31.1017 29.4533 30.9497 29.5684 30.7786 29.6473C30.6076 29.7262 30.4214 29.767 30.233 29.767C30.0446 29.767 29.8585 29.7262 29.6874 29.6473C29.5163 29.5684 29.3644 29.4542 29.2421 29.311Z" fill="#3EB0DE"/>
<path d="M32.984 33.0529C32.7567 32.8231 32.6228 32.5171 32.6082 32.1943C32.5936 31.8714 32.6993 31.5546 32.9049 31.3053C34.4109 29.5784 35.5495 27.5631 36.2513 25.3819C36.953 23.2008 37.2033 20.8996 36.9869 18.6186C36.5701 14.2889 34.5048 10.2852 31.2184 7.43578C27.932 4.58636 23.676 3.10936 19.331 3.31038C14.986 3.51139 10.8845 5.37504 7.87527 8.51572C4.86599 11.6564 3.17923 15.8337 3.16399 20.1833C3.15402 24.2724 4.63235 28.2253 7.32304 31.3043C7.45375 31.4633 7.54499 31.651 7.5893 31.852C7.63362 32.053 7.62975 32.2616 7.57802 32.4608C7.52629 32.66 7.42815 32.8442 7.29164 32.9982C7.15513 33.1523 6.98412 33.2718 6.79256 33.3472C6.53693 33.446 6.25667 33.4619 5.99152 33.3925C5.72638 33.3231 5.48982 33.1719 5.31542 32.9605C2.10713 29.2717 0.407446 24.509 0.555419 19.6224C0.592251 17.0539 1.13462 14.5179 2.15156 12.159C3.1685 9.80014 4.64009 7.66468 6.48232 5.87454C8.32454 4.08441 10.5013 2.67465 12.8884 1.72577C15.2754 0.776889 17.826 0.307464 20.3945 0.344296C22.9629 0.381129 25.499 0.923498 27.8579 1.94044C30.2167 2.95738 32.3522 4.42897 34.1423 6.2712C35.9325 8.11342 37.3422 10.2902 38.2911 12.6773C39.24 15.0643 39.7094 17.6149 39.6726 20.1833C39.6821 24.8778 37.9915 29.4169 34.9135 32.9614C34.7977 33.1017 34.6539 33.2163 34.4912 33.2977C34.3286 33.3791 34.1507 33.4256 33.969 33.4342C33.7873 33.4428 33.6058 33.4133 33.4362 33.3477C33.2665 33.282 33.1125 33.1816 32.984 33.0529Z" fill="#3EB0DE"/>
<path d="M20.1145 28.0062C19.087 28.0062 18.0696 27.8038 17.1204 27.4106C16.1712 27.0175 15.3087 26.4412 14.5822 25.7147C13.8557 24.9882 13.2794 24.1257 12.8862 23.1764C12.493 22.2272 12.2906 21.2098 12.2906 20.1824C12.2906 19.155 12.493 18.1376 12.8862 17.1883C13.2794 16.2391 13.8557 15.3766 14.5822 14.6501C15.3087 13.9236 16.1712 13.3473 17.1204 12.9541C18.0696 12.561 19.087 12.3586 20.1145 12.3586C22.1895 12.3586 24.1795 13.1829 25.6467 14.6501C27.114 16.1174 27.9383 18.1074 27.9383 20.1824C27.9383 22.2574 27.114 24.2474 25.6467 25.7147C24.1795 27.1819 22.1895 28.0062 20.1145 28.0062ZM20.1145 14.9681C19.4236 14.9588 18.7378 15.0868 18.0968 15.3447C17.4558 15.6026 16.8724 15.9853 16.3806 16.4706C15.8887 16.9558 15.4982 17.534 15.2316 18.1714C14.9651 18.8088 14.8278 19.4929 14.8278 20.1838C14.8278 20.8748 14.9651 21.5588 15.2316 22.1962C15.4982 22.8337 15.8887 23.4118 16.3806 23.8971C16.8724 24.3823 17.4558 24.765 18.0968 25.0229C18.7378 25.2809 19.4236 25.4089 20.1145 25.3995C21.4979 25.3995 22.8246 24.85 23.8029 23.8717C24.7811 22.8935 25.3306 21.5668 25.3306 20.1833C25.3306 18.7999 24.7811 17.4732 23.8029 16.4949C22.8246 15.5167 21.4979 14.9672 20.1145 14.9672" fill="#3EB0DE"/>
<path d="M20.1145 38.4377C19.7684 38.4377 19.4365 38.3002 19.1918 38.0555C18.9472 37.8108 18.8097 37.4789 18.8097 37.1329V26.7034H21.4183V37.1348C21.4178 37.4805 21.2801 37.8119 21.0354 38.0562C20.7908 38.3005 20.4602 38.4377 20.1145 38.4377Z" fill="#3EB0DE"/>
</g>
<defs>
<clipPath id="clip0_14_301">
<rect width="40" height="38.0952" fill="white" transform="translate(0.546875 0.342407)"/>
</clipPath>
</defs>
</svg>
