<svg width="36" height="41" viewBox="0 0 36 41" fill="none" xmlns="http://www.w3.org/2000/svg">
<g clip-path="url(#clip0_14_359)">
<path d="M33.7989 6.82802L18.8419 0.590023C18.5367 0.458358 18.2078 0.390442 17.8754 0.390442C17.543 0.390442 17.2141 0.458358 16.9089 0.590023L1.95887 6.82002C1.50382 7.00881 1.11469 7.32783 0.840346 7.73703C0.566003 8.14623 0.418677 8.62737 0.41687 9.12002L0.41687 22.95C0.41687 32.571 8.25187 40.39 17.8709 40.39C27.4899 40.39 35.3269 32.563 35.3269 22.951V9.12102C35.3262 8.63097 35.181 8.15199 34.9094 7.74411C34.6377 7.33622 34.2508 7.01755 33.7989 6.82802ZM32.1959 22.959C32.1959 30.849 25.7619 37.267 17.8719 37.267C9.98187 37.267 3.54787 30.849 3.54787 22.959V9.55202L17.8709 3.58002L32.1949 9.55202L32.1959 22.959Z" fill="#3EB0DE"/>
<path d="M12.0168 19.163C11.7572 18.8393 11.3796 18.6318 10.9671 18.5863C10.5546 18.5407 10.1409 18.6607 9.81683 18.92C9.49322 19.1798 9.28597 19.5574 9.2406 19.9699C9.19522 20.3824 9.31543 20.7961 9.57483 21.12L13.0808 25.495C13.0902 25.503 13.0955 25.511 13.0968 25.519C13.1048 25.534 13.1198 25.542 13.1278 25.558C13.1358 25.566 13.1438 25.581 13.1588 25.589L13.1988 25.629C13.2058 25.636 13.2218 25.644 13.2288 25.659L13.2688 25.699L13.2998 25.73C13.3158 25.738 13.3238 25.754 13.3398 25.761C13.3628 25.777 13.3858 25.801 13.4098 25.816C13.4178 25.816 13.4178 25.824 13.4248 25.824L13.4878 25.864C13.4958 25.871 13.5038 25.871 13.5118 25.879C13.5348 25.887 13.5508 25.902 13.5738 25.91C13.5818 25.918 13.5898 25.918 13.5978 25.926C13.6128 25.934 13.6368 25.941 13.6518 25.957C13.6598 25.965 13.6678 25.965 13.6758 25.973C13.6918 25.981 13.7158 25.988 13.7308 25.996C13.7388 25.996 13.7458 26.004 13.7618 26.004C13.7778 26.012 13.8018 26.02 13.8168 26.02C13.8248 26.02 13.8398 26.027 13.8478 26.027C13.8638 26.035 13.8878 26.035 13.9028 26.043C13.9108 26.043 13.9258 26.051 13.9338 26.051C13.9498 26.059 13.9738 26.059 13.9888 26.067C13.9968 26.067 14.0128 26.074 14.0198 26.074C14.0358 26.074 14.0598 26.082 14.0748 26.082C14.0886 26.0819 14.1022 26.0846 14.1148 26.09C14.1298 26.09 14.1448 26.09 14.1688 26.098H14.2938C14.3338 26.098 14.3728 26.098 14.4198 26.09H14.4498C14.4818 26.09 14.5128 26.082 14.5448 26.082C14.5598 26.082 14.5678 26.074 14.5838 26.074C14.6068 26.067 14.6388 26.067 14.6618 26.059C14.6778 26.059 14.6928 26.051 14.7088 26.043L14.7788 26.02C14.7948 26.012 14.8108 26.012 14.8268 26.004L14.8968 25.981L14.9438 25.957C14.9668 25.949 14.9908 25.934 15.0068 25.926L15.0528 25.902L15.1628 25.84L26.4418 18.341C26.6141 18.2279 26.7623 18.0819 26.8779 17.9114C26.9935 17.7408 27.0743 17.5491 27.1156 17.3472C27.1569 17.1454 27.158 16.9373 27.1186 16.7351C27.0793 16.5328 27.0004 16.3403 26.8864 16.1687C26.7724 15.997 26.6257 15.8495 26.4546 15.7348C26.2834 15.62 26.0913 15.5402 25.8892 15.4999C25.6872 15.4596 25.4791 15.4596 25.2771 15.5C25.075 15.5403 24.8829 15.6202 24.7118 15.735L14.6228 22.443L12.0168 19.163Z" fill="#3EB0DE"/>
</g>
<defs>
<clipPath id="clip0_14_359">
<rect width="35" height="40" fill="white" transform="translate(0.41687 0.390015)"/>
</clipPath>
</defs>
</svg>
