<svg width="41" height="41" viewBox="0 0 41 41" fill="none" xmlns="http://www.w3.org/2000/svg">
<g clip-path="url(#clip0_14_315)">
<path d="M17.0651 13.3445C14.1715 13.3445 11.826 15.2682 11.826 18.7682C11.826 22.2682 16.7161 25.6382 20.9061 29.2536C25.097 25.6382 30.0079 22.3118 30.0079 18.7682C30.0079 15.2264 27.6624 13.3445 24.7697 13.3445C23.2451 13.3445 21.8633 14.4373 20.9061 15.5136C19.9497 14.4436 18.5851 13.3445 17.0651 13.3445Z" stroke="#3EB0DE" stroke-width="2.72727" stroke-linecap="round" stroke-linejoin="round"/>
<path opacity="0.96" d="M20.916 38.5718C30.9569 38.5718 39.0969 30.4318 39.0969 20.39C39.0969 10.3482 30.9569 2.20819 20.9151 2.20819C10.8733 2.20819 2.73511 10.3482 2.73511 20.39C2.73511 30.4318 10.8751 38.5718 20.916 38.5718Z" stroke="#3EB0DE" stroke-width="2.72727" stroke-linecap="round" stroke-linejoin="round"/>
</g>
<defs>
<clipPath id="clip0_14_315">
<rect width="40" height="40" fill="white" transform="translate(0.91687 0.390015)"/>
</clipPath>
</defs>
</svg>
