<svg width="165" height="21" viewBox="0 0 165 21" fill="none" xmlns="http://www.w3.org/2000/svg">
<g clip-path="url(#clip0_14_1259)">
<mask id="mask0_14_1259" style="mask-type:luminance" maskUnits="userSpaceOnUse" x="0" y="0" width="164" height="21">
<path d="M0.0749512 0.859863H163.825V20.8599H0.0749512V0.859863Z" fill="white"/>
</mask>
<g mask="url(#mask0_14_1259)">
<path d="M38.8899 18.67C38.5019 19.208 37.1979 20.799 34.7299 20.799C31.9469 20.799 30.145 19.177 30.145 16.509C30.145 14.045 32.083 12.319 35.292 12.319H37.8629C37.8629 11.272 37.159 10.728 35.222 10.728C33.1749 10.728 31.204 11.304 31.204 11.304V7.65196C31.204 7.65196 33.458 7.00796 35.926 7.00796C41.286 7.00796 43.2229 8.69796 43.2229 12.617V16.399C43.2229 17.179 43.469 17.241 44.037 17.241H44.424V20.385C44.424 20.385 43.404 20.757 42.17 20.757C40.052 20.757 39.206 20.082 38.928 18.627L38.895 18.659L38.8899 18.67ZM37.8689 16.336V15.086H36.739C35.789 15.086 35.331 15.494 35.331 16.132C35.331 16.708 35.757 17.079 36.461 17.079C37.52 17.079 37.8689 16.368 37.8689 16.368V16.336ZM46.15 11.374C46.15 10.699 45.975 10.564 45.337 10.564H44.9109V7.41796C44.9109 7.41796 45.931 7.04596 47.236 7.04596C49.2449 7.04596 50.2 7.75796 50.407 9.20696C51.112 8.09296 52.629 7.04696 54.741 7.04696C58.655 7.04696 59.851 9.54696 59.851 12.587V20.46H54.5289V12.86C54.5289 11.95 53.999 11.405 52.979 11.405C51.959 11.405 51.461 12.117 51.461 12.117V20.46H46.139V11.373L46.15 11.374ZM66.562 19.11L66.1359 20.428H62.048V5.75796C62.048 5.04796 61.835 4.91696 61.234 4.91696H60.88V1.77196C60.88 1.77196 62.042 1.40096 63.947 1.40096C66.557 1.40096 67.402 2.51496 67.402 4.67596V8.72996C67.402 8.72996 68.3189 7.07696 70.8569 7.07696C74.7329 7.07696 76.2169 10.352 76.2169 13.7C76.2169 17.619 73.9249 20.83 70.367 20.83C68.3569 20.83 67.2659 20.051 66.5949 19.141L66.562 19.11ZM68.854 16.808C69.946 16.808 70.688 15.694 70.688 13.968C70.688 12.242 70.126 11.299 68.822 11.299C67.834 11.299 67.375 12.011 67.375 12.011V16.201C67.375 16.201 67.7619 16.808 68.854 16.808ZM77.739 15.292V7.41896H83.061V15.02C83.061 15.93 83.591 16.474 84.611 16.474C85.631 16.474 86.129 15.763 86.129 15.763V7.41896H91.45V16.474C91.45 17.149 91.625 17.285 92.264 17.285H92.6889V20.429C92.6889 20.429 91.669 20.801 90.364 20.801C88.3559 20.801 87.3999 20.089 87.1929 18.641C86.4889 19.755 84.9709 20.801 82.8589 20.801C78.9449 20.801 77.75 18.301 77.75 15.261V15.292H77.739ZM94.27 16.306V5.75796C94.27 5.04596 94.058 4.91596 93.457 4.91596H93.102V1.77196C93.102 1.77196 94.478 1.40096 96.0659 1.40096C98.6759 1.40096 99.626 2.51496 99.626 4.67596V15.756C99.626 16.771 99.871 17.038 100.542 17.038H101.072V20.486C101.072 20.486 100.193 20.856 98.5659 20.856C95.5359 20.856 94.3029 19.204 94.3029 16.332L94.27 16.3V16.306ZM102.098 18.027C102.098 16.541 103.119 15.427 104.849 15.427C106.58 15.427 107.6 16.541 107.6 18.027C107.6 19.513 106.58 20.762 104.849 20.762C103.118 20.762 102.098 19.581 102.098 18.027ZM108.692 13.974C108.692 9.85196 111.76 7.04796 116.345 7.04796C118.528 7.04796 119.625 7.55496 119.625 7.55496V11.139C119.625 11.139 118.746 10.73 117.229 10.73C115.324 10.73 114.161 11.709 114.161 13.77C114.161 15.999 115.324 17.113 117.229 17.113C118.675 17.113 119.663 16.705 119.663 16.705V20.184C119.663 20.184 118.326 20.791 116.137 20.791C112.011 20.791 108.698 18.389 108.698 13.964L108.692 13.974ZM120.747 13.906C120.747 9.61596 123.602 7.04796 128.045 7.04796C132.488 7.04796 135.342 9.64796 135.342 13.943C135.342 18.238 132.488 20.838 128.045 20.838C123.602 20.838 120.747 18.238 120.747 13.943V13.911V13.906ZM129.84 13.906C129.84 11.573 129.311 10.762 128.045 10.762C126.779 10.762 126.249 11.572 126.249 13.906C126.249 16.24 126.811 17.15 128.045 17.15C129.279 17.15 129.84 16.27 129.84 13.906ZM137.489 11.44C137.489 10.661 137.244 10.598 136.61 10.598H136.294V7.45396C136.294 7.45396 137.314 7.08296 138.619 7.08296C140.628 7.08296 141.583 7.79396 141.79 9.24296C142.423 8.06096 143.941 7.08296 145.879 7.08296C147.958 7.08296 149.121 7.75796 149.754 8.67296C149.754 8.67296 151.091 7.08296 153.526 7.08296C156.735 7.08296 158.318 9.14296 158.318 11.979V20.496H152.996V12.523C152.996 11.812 152.609 11.409 151.795 11.409C150.917 11.409 150.562 12.121 150.562 12.121V20.465H145.24V12.523C145.24 11.7803 144.852 11.409 144.077 11.409C143.16 11.409 142.806 12.121 142.806 12.121V20.465H137.484V11.445L137.489 11.44ZM3.17495 6.84196C1.48295 6.84196 0.0749512 7.21396 0.0749512 7.21396V10.426H0.429951C1.06295 10.426 1.27595 10.593 1.24295 11.305L1.17295 20.46H6.60295L6.67495 10.222C6.67495 8.06196 5.82895 6.90996 3.18695 6.87896V6.84796L3.17495 6.84196ZM3.70495 5.58996C5.82195 5.58996 6.41695 4.27196 6.41695 3.18996C6.44995 2.07496 5.88695 0.855957 3.73695 0.855957C1.58695 0.855957 1.02395 2.04396 1.02395 3.15796C1.02395 4.27196 1.62395 5.59096 3.70395 5.59096M26.27 11.236H29.163V7.24896H26.238V4.20996L20.807 4.58196V7.21896L14.393 7.18696C10.447 7.18696 8.36695 8.53696 8.32895 11.273C8.32895 13.606 9.84595 14.585 11.293 15.123C12.739 15.663 14.218 15.73 14.218 16.343C14.218 16.683 13.831 16.782 12.81 16.782C10.905 16.782 8.68395 16.374 8.68395 16.374V20.329C8.68395 20.329 10.272 20.799 12.597 20.799C17.215 20.799 19.191 18.671 19.191 16.274C19.191 13.538 17.57 12.796 16.194 12.455C14.469 12.016 13.301 12.22 13.301 11.713C13.301 11.273 13.831 11.173 14.71 11.173L20.774 11.242V15.296C20.703 19.116 22.537 20.836 26.412 20.873C27.962 20.873 29.022 20.502 29.022 20.502V16.75C29.022 16.75 28.596 16.886 28.104 16.886C26.767 16.886 26.167 16.31 26.167 15.128V11.24H26.27V11.236ZM158.817 3.86996C158.817 2.34796 159.838 1.43796 161.323 1.43796C162.808 1.43796 163.828 2.34796 163.828 3.87096C163.828 5.39396 162.807 6.30296 161.323 6.30296C159.838 6.30296 158.817 5.35596 158.817 3.86996ZM163.397 3.87096C163.397 2.45396 162.447 1.77896 161.317 1.77896C160.187 1.77896 159.237 2.45396 159.237 3.87196C159.237 5.28996 160.187 5.96396 161.317 5.96396C162.447 5.96396 163.397 5.28996 163.397 3.87196M160.613 2.72196H161.317C162.021 2.72196 162.267 2.99396 162.267 3.39696C162.267 3.73696 162.021 3.97196 161.705 4.07196L162.305 5.04996H161.95L161.388 4.13996H161.001V5.04996H160.646V2.71996L160.613 2.72196ZM161.317 3.87196C161.634 3.87196 161.879 3.70496 161.879 3.43296C161.879 3.16096 161.737 2.99296 161.279 2.99296H160.962V3.87296L161.317 3.87196Z" fill="#4F4F4F"/>
</g>
</g>
<defs>
<clipPath id="clip0_14_1259">
<rect width="164" height="20" fill="white" transform="translate(0.0749512 0.859863)"/>
</clipPath>
</defs>
</svg>
