<svg xmlns="http://www.w3.org/2000/svg" width="240" height="60" fill="none"><clipPath id="a"><path d="M0 0h240v60H0z"/></clipPath><g clip-path="url(#a)"><path fill="#3eb0de" d="M240 5.44a3.894 3.894 0 0 1-3.899 3.918c-2.169 0-3.921-1.766-3.921-3.919s1.744-3.896 3.921-3.896S240 3.271 240 5.439m-.733 0c0-1.748-1.421-3.145-3.166-3.145s-3.188 1.397-3.188 3.144 1.421 3.167 3.188 3.167 3.166-1.4 3.166-3.167m-2.336.431.911 1.547h-.791l-.845-1.462h-.703v1.462h-.753V3.375h1.656c.769 0 1.336.563 1.336 1.327 0 .579-.324 1-.815 1.17zm-1.428-.594h.849c.402 0 .66-.235.66-.594s-.258-.613-.66-.613h-.849z"/><path fill="#f0034e" fill-rule="evenodd" d="M81.68 10.11c0-1.377-1.116-2.422-2.54-2.422h-4.35v4.852h4.365c1.44 0 2.524-1.08 2.524-2.43m-39.71 6.051h6.268l-3.16-7.665zm37.286-1.634H74.79v5.362h4.455c1.62 0 2.837-1.13 2.837-2.68s-1.216-2.682-2.826-2.682" clip-rule="evenodd"/><path fill="#f0034e" fill-rule="evenodd" d="M117.499 0H0v27.662h117.499l13.896-13.829zM9.916 21.9h-2.03V5.697h2.03zm9.26.208c-3.57 0-5.983-2.006-5.983-5.2h2.073c0 2.013 1.64 3.209 3.887 3.209 2.035 0 3.644-1.08 3.644-2.797 0-1.894-1.922-2.341-4.026-2.831-2.501-.594-5.273-1.258-5.273-4.49 0-2.797 2.162-4.506 5.516-4.506s5.416 1.863 5.416 4.799h-2.011c0-1.802-1.47-2.855-3.447-2.855-1.976 0-3.443.938-3.443 2.477 0 1.778 1.864 2.226 3.94 2.715 2.548.618 5.42 1.304 5.42 4.672 0 3.059-2.49 4.807-5.716 4.807zm13.981-.209h-2.03V7.603h-4.933V5.698h11.897v1.905h-4.934zm17.46 0-1.61-3.88h-7.79l-1.586 3.88h-2.162l6.632-16.201h1.895l6.817 16.201h-2.204zm17.744 0h-1.714L57.42 9.254V21.9h-1.987V5.698h1.84l9.099 12.494V5.698h1.988zm10.908 0H72.78V5.698h6.404c2.652 0 4.57 1.774 4.57 4.139 0 1.45-.775 2.943-1.995 3.66 1.501.64 2.42 2.172 2.42 3.947 0 2.511-2.123 4.459-4.91 4.459zm20.987-6.033c0 3.692-2.714 6.303-6.353 6.303-3.64 0-6.373-2.611-6.373-6.303V5.698h2.053v10.021c0 2.662 1.791 4.464 4.323 4.464s4.3-1.798 4.3-4.464V5.698h2.054v10.168zm13.383 6.033h-9.156V5.698h2.03v14.296h7.122v1.905z" clip-rule="evenodd"/><path fill="#fe7711" d="M18.892 40.052H12.13v19.422H6.87V40.052H.108v-4.88h18.783zm1.327 7.264c0-7.213 5.554-12.68 12.977-12.68s12.92 5.44 12.92 12.68-5.528 12.68-12.92 12.68S20.22 54.53 20.22 47.316m20.566 0c0-4.409-3.258-7.719-7.589-7.719s-7.647 3.345-7.647 7.72c0 4.374 3.312 7.718 7.647 7.718s7.589-3.31 7.589-7.719M50 50.32V35.164h5.269v14.913c0 3.036 1.98 4.957 4.783 4.957 2.802 0 4.774-1.92 4.774-4.957V35.164h5.27V50.32c0 5.698-4.3 9.675-10.044 9.675s-10.048-3.981-10.048-9.675zm34.033.857H80.66v8.293h-5.262V35.168h9.816c4.872 0 8.5 3.352 8.5 8.04 0 3.178-1.74 5.778-4.431 7.074l5.38 9.188h-5.878zM80.66 46.32h4.21c2.201 0 3.517-1.323 3.517-3.148 0-1.824-1.312-3.147-3.516-3.147H80.66v6.291zm17.7-11.148h5.261v24.302h-5.262zm9.476 16.423h5.304c0 2.35 1.941 3.48 4.091 3.48 1.98 0 3.918-1.046 3.918-2.855s-2.216-2.403-4.856-3.016c-3.667-.903-8.117-1.968-8.117-7.202 0-4.66 3.435-7.287 8.82-7.287s8.766 2.982 8.766 7.823h-5.2c0-2.09-1.729-3.074-3.694-3.074-1.706 0-3.431.72-3.431 2.314 0 1.709 2.111 2.23 4.686 2.843 3.705.937 8.361 2.09 8.361 7.538s-4.185 7.796-9.218 7.796c-5.585 0-9.43-3.133-9.43-8.36m39.177-11.543h-6.763v19.422h-5.261V40.052h-6.762v-4.88h18.782v4.88z"/><g fill="#3eb0de"><path d="M168.48 43.523c0 4.791-3.701 8.356-8.584 8.356H155.8v7.587h-5.261V35.165h9.357c4.875 0 8.584 3.56 8.584 8.36m-5.33 0c0-2.021-1.398-3.487-3.482-3.487h-3.864v6.974h3.864c2.088 0 3.482-1.465 3.482-3.487m21.538 11.34h-9.677l-1.668 4.605h-5.585l9.53-24.302h4.968l9.839 24.302h-5.709zm-8.037-4.583h6.381l-3.208-8.691zm16.224 1.313h5.304c0 2.35 1.941 3.48 4.091 3.48 1.98 0 3.918-1.046 3.918-2.855s-2.215-2.403-4.856-3.016c-3.667-.903-8.117-1.968-8.117-7.202 0-4.66 3.435-7.287 8.82-7.287s8.766 2.982 8.766 7.823h-5.2c0-2.09-1.729-3.074-3.694-3.074-1.706 0-3.431.72-3.431 2.314 0 1.709 2.111 2.23 4.686 2.843 3.706.937 8.361 2.09 8.361 7.538s-4.185 7.796-9.218 7.796c-5.585 0-9.43-3.133-9.43-8.36m21.508 0h5.303c0 2.35 1.942 3.48 4.092 3.48 1.98 0 3.918-1.046 3.918-2.855s-2.216-2.403-4.856-3.016c-3.667-.903-8.118-1.968-8.118-7.202 0-4.66 3.436-7.287 8.821-7.287s8.766 2.982 8.766 7.823h-5.2c0-2.09-1.729-3.074-3.694-3.074-1.706 0-3.431.72-3.431 2.314 0 1.709 2.111 2.23 4.686 2.843 3.705.937 8.361 2.09 8.361 7.538s-4.185 7.796-9.218 7.796c-5.586 0-9.43-3.133-9.43-8.36"/><path fill-rule="evenodd" d="M231.428 12.325s-.12-.263-.328-.837v-.232h-.085c-.197-.56-.455-1.35-.757-2.407-1.088-3.804-1.061-5.4-1.061-5.4s-.012.057-.027.158l-.027-.159s.027 1.597-1.062 5.401c-.698 2.442-1.165 3.48-1.165 3.48l.44.088v5.161c-.479-.57-2.725-2.958-7.022-3.143v-.683h-1.204v.686c-3.891.12-5.879 1.88-6.929 2.824v-4.868l.325-.066s-.468-1.037-1.166-3.479c-1.089-3.804-1.062-5.4-1.062-5.4l-.027.154c-.015-.097-.027-.155-.027-.155s.027 1.597-1.061 5.401c-.699 2.442-1.166 3.48-1.166 3.48l.44.088v11.638c-.39-.212-1.378-.694-2.903-.991-1.223-.24-2.648-.274-4.906.143l3.86-21.518-1.181-.212-.135.76-2.362-.424.135-.76-1.181-.212-.209 1.157c-1.968 2.376-9.688 10.805-20.149 10.805s-18.3-8.27-20.338-10.755l-.259-1.446-1.181.212.135.76-2.362.424-.136-.756-1.181.212 3.922 21.88c-.417.035-.845.058-1.289.058-3.285 0-5.941-1.053-7.477-1.829l-.008-7.38h-.509v-2.989l.034.039.85-.463s-1.417-1.33-2.467-3.09c-.695-1.161-1.092-2.341-1.278-2.974v-.004a9 9 0 0 1-.123-.463l-.363.197-.363-.197s-.038.174-.123.463v.004c-.186.633-.583 1.813-1.278 2.974-1.05 1.76-2.467 3.09-2.467 3.09l.761.413v3h-.386v6.196c-2.891.61-4.373 1.574-5.624 2.612-1.849 1.535-2.783 3.325-2.783 3.325l.031 1.963s3.234-5.967 8.55-6.341v-.012h.787v-7.36h.386l.008-3.688h-.529c.482-.501 1.382-1.504 2.104-2.716.401-.675.706-1.354.926-1.932.224.578.525 1.257.926 1.932.722 1.212 1.618 2.215 2.104 2.716h-.66l.008 3.688h.509v6.781c-.015.282 0 .68-.011.695 1.123.71 3.424 2.31 8.465 2.31q.764-.001 1.459-.065l.521 2.908 1.181-.212-.509-2.843c.903-.142 1.69-.34 2.343-.548l.532 2.967 1.181-.212-.567-3.171c.29-.12.521-.228.683-.309 3.594-.914 9.087-1.92 15.865-1.92s12.807 1.156 16.374 2.11l-.633 3.533 1.181.212.614-3.422a42 42 0 0 1 2.308.745l-.556 3.101 1.182.212.555-3.093c3.44-.996 6.613.258 8.006.964v1.389h1.201l.007-15.207h-.158c.208-.775.49-1.913.737-3.244q.018-.098.031-.197c.012.066.019.132.031.197.251 1.331.533 2.469.737 3.244h-.042l.008 15.207h1.2V18.62c1.285-1.184 3.474-2.997 7.423-2.997 4.346.015 7.079 2.469 7.728 3.12v7.955h1.196l.008-15.438h-.097c.201-.764.452-1.81.676-3.013q.018-.098.031-.197l.031.197a45 45 0 0 0 .694 3.082l.008 15.369h1.201l-.008-14.304.324-.065zm-30.56 2.885-2.362-.424 1.54-8.591a29 29 0 0 0 2.76-2.816l.181.03-2.115 11.797zm1.359-11.935a37 37 0 0 1-1.999 1.91l.393-2.196 1.606.29zM179.43 13.358c10.723 0 17.794-7.657 19.975-10.388l-.613 3.426c-4.111 3.31-10.994 7.51-19.439 7.51s-15.305-3.992-19.432-7.264l-.671-3.753c2.053 2.693 8.951 10.47 20.184 10.47zm-20.948-7.911a33 33 0 0 1-2.44-2.35l1.953-.35.483 2.7zm.71 17.567-1.232-6.863 2.363-.424 1.158 6.457c-1.17.37-1.934.68-2.289.83m-1.444-8.043-2.1-11.712c.336.432 1.347 1.66 3.003 3.152l1.459 8.136zm21.678 4.772c-7.759 0-13.414 1.141-16.787 2.094l-2.548-14.203c3.961 3.167 10.441 6.832 19.254 6.832 8.812 0 15.262-3.839 19.257-7.048l-2.586 14.415c-3.427-.949-9.102-2.09-16.59-2.09m17.748 2.426 1.112-6.203 2.362.424-1.181 6.578a30 30 0 0 0-2.297-.799z" clip-rule="evenodd"/></g></g></svg>