<svg width="39" height="26" viewBox="0 0 39 26" fill="none" xmlns="http://www.w3.org/2000/svg">
<g clip-path="url(#clip0_14_1403)">
<g clip-path="url(#clip1_14_1403)">
<g clip-path="url(#clip2_14_1403)">
<mask id="mask0_14_1403" style="mask-type:luminance" maskUnits="userSpaceOnUse" x="0" y="0" width="38" height="26">
<path d="M0.199951 0.859863H37.59V25.8599H0.199951V0.859863Z" fill="white"/>
</mask>
<g mask="url(#mask0_14_1403)">
<path d="M34.2919 1.23877H3.49989C1.87989 1.23877 0.566895 2.59577 0.566895 4.26877V22.4508C0.566895 24.1248 1.87989 25.4808 3.49989 25.4808H34.2919C35.9119 25.4808 37.2239 24.1248 37.2239 22.4508V4.26877C37.2239 2.59577 35.9109 1.23877 34.2919 1.23877Z" fill="white" stroke="#D3D3D4"/>
<path d="M33.0918 20.3679C33.0908 21.6029 32.6148 22.7869 31.7698 23.6599C30.9248 24.5329 29.7798 25.0239 28.5848 25.0259H4.05884V6.57792C4.05704 5.35118 4.53091 4.17152 5.38084 3.28692C5.79306 2.85702 6.28756 2.51445 6.83491 2.27961C7.38225 2.04476 7.97125 1.92244 8.56684 1.91992H33.0918V20.3679Z" fill="white"/>
<path d="M25.1058 15.636H26.9688C27.0228 15.636 27.1468 15.618 27.1998 15.618C27.5548 15.545 27.8568 15.214 27.8568 14.756C27.8568 14.316 27.5548 13.986 27.1998 13.895C27.1468 13.875 27.0398 13.875 26.9698 13.875H25.1068L25.1058 15.636Z" fill="url(#paint0_linear_14_1403)"/>
<path d="M26.7559 3.48C25.8999 3.48 25.0779 3.83 24.4719 4.457C23.8632 5.09173 23.5242 5.9376 23.5259 6.817V10.283H28.0869C28.1929 10.283 28.3179 10.283 28.4069 10.301C29.4359 10.356 30.1989 10.906 30.1989 11.861C30.1989 12.611 29.6849 13.254 28.7259 13.382V13.418C29.7729 13.492 30.5719 14.098 30.5719 15.032C30.5719 16.042 29.6849 16.702 28.5129 16.702H23.5089V23.486H28.2469C30.0209 23.486 31.4769 22.001 31.4769 20.149V3.479L26.7559 3.48Z" fill="url(#paint1_linear_14_1403)"/>
<path d="M27.6268 12.0799C27.633 11.891 27.5695 11.7063 27.4483 11.5612C27.3272 11.4161 27.1569 11.3206 26.9698 11.2929C26.9348 11.2929 26.8448 11.2739 26.7928 11.2739H25.1058V12.8879H26.7928C26.8458 12.8879 26.9528 12.8879 26.9698 12.8689C27.1552 12.8432 27.3243 12.749 27.4438 12.6049C27.5652 12.458 27.6301 12.2725 27.6268 12.0819V12.0799Z" fill="url(#paint2_linear_14_1403)"/>
<path d="M8.90386 3.47998C8.04786 3.47998 7.22586 3.83098 6.62086 4.45698C6.01219 5.0917 5.67312 5.93758 5.67486 6.81698V15.05C6.57986 15.509 7.52086 15.803 8.46086 15.803C9.57886 15.803 10.1829 15.106 10.1829 14.152V10.264H12.9509V14.134C12.9509 15.638 12.0459 16.866 8.97586 16.866C7.11186 16.866 5.65686 16.444 5.65686 16.444V23.467H10.3949C11.2519 23.467 12.0729 23.116 12.6789 22.49C13.2875 21.8553 13.6266 21.0094 13.6249 20.13V3.47998H8.90386Z" fill="url(#paint3_linear_14_1403)"/>
<path d="M17.8329 3.48C16.9759 3.48 16.1539 3.83 15.5479 4.457C14.9393 5.09173 14.6002 5.9376 14.6019 6.817V11.181C15.4189 10.466 16.8379 10.008 19.1279 10.118C20.3519 10.172 21.6649 10.521 21.6649 10.521V11.933C21.0089 11.584 20.2279 11.273 19.2169 11.2C17.4769 11.07 16.4309 11.951 16.4309 13.492C16.4309 15.05 17.4779 15.932 19.2169 15.784C20.2279 15.711 21.0089 15.381 21.6649 15.05V16.462C21.6649 16.462 20.3699 16.811 19.1279 16.866C16.8379 16.976 15.4179 16.518 14.6019 15.803V23.504H19.3409C21.1149 23.504 22.5709 22.019 22.5709 20.167V3.479L17.8329 3.48Z" fill="url(#paint4_linear_14_1403)"/>
</g>
</g>
</g>
</g>
<defs>
<linearGradient id="paint0_linear_14_1403" x1="-133.135" y1="102.124" x2="664.352" y2="102.124" gradientUnits="userSpaceOnUse">
<stop stop-color="#007940"/>
<stop offset="0.229" stop-color="#00873F"/>
<stop offset="0.743" stop-color="#40A737"/>
<stop offset="1" stop-color="#5CB531"/>
</linearGradient>
<linearGradient id="paint1_linear_14_1403" x1="24.9669" y1="1003.02" x2="822.532" y2="1003.02" gradientUnits="userSpaceOnUse">
<stop stop-color="#007940"/>
<stop offset="0.229" stop-color="#00873F"/>
<stop offset="0.743" stop-color="#40A737"/>
<stop offset="1" stop-color="#5CB531"/>
</linearGradient>
<linearGradient id="paint2_linear_14_1403" x1="-133.196" y1="91.7269" x2="664.523" y2="91.7269" gradientUnits="userSpaceOnUse">
<stop stop-color="#007940"/>
<stop offset="0.229" stop-color="#00873F"/>
<stop offset="0.743" stop-color="#40A737"/>
<stop offset="1" stop-color="#5CB531"/>
</linearGradient>
<linearGradient id="paint3_linear_14_1403" x1="7.05886" y1="1002.99" x2="816.912" y2="1002.99" gradientUnits="userSpaceOnUse">
<stop stop-color="#1F286F"/>
<stop offset="0.475" stop-color="#004E94"/>
<stop offset="0.826" stop-color="#0066B1"/>
<stop offset="1" stop-color="#006FBC"/>
</linearGradient>
<linearGradient id="paint4_linear_14_1403" x1="10.0129" y1="1003.01" x2="796.573" y2="1003.01" gradientUnits="userSpaceOnUse">
<stop stop-color="#6C2C2F"/>
<stop offset="0.173" stop-color="#882730"/>
<stop offset="0.573" stop-color="#BE1833"/>
<stop offset="0.859" stop-color="#DC0436"/>
<stop offset="1" stop-color="#E60039"/>
</linearGradient>
<clipPath id="clip0_14_1403">
<rect width="38" height="25" fill="white" transform="translate(0.199951 0.859863)"/>
</clipPath>
<clipPath id="clip1_14_1403">
<rect width="38" height="25" fill="white" transform="translate(0.199951 0.859863)"/>
</clipPath>
<clipPath id="clip2_14_1403">
<rect width="38" height="25" fill="white" transform="translate(0.199951 0.859863)"/>
</clipPath>
</defs>
</svg>
