<svg xmlns="http://www.w3.org/2000/svg" width="17" height="21" fill="none"><clipPath id="a"><path d="M0 0h17v21H0z"/></clipPath><g clip-path="url(#a)"><path fill="#fff" d="M14.776 7.138q.84 0 1.458.576c.618.576.618.836.618 1.358v9.856q0 .782-.618 1.358a2.07 2.07 0 0 1-1.458.576H2.125q-.89 0-1.507-.576Q0 19.71 0 18.928V9.072q0-.782.618-1.358t1.507-.576h1.038v-1.98q0-2.026 1.556-3.477T8.451.23c2.175 0 2.685.483 3.706 1.45q1.532 1.45 1.532 3.477v1.98zm-6.35 8.842q.864 0 1.482-.575.618-.576.618-1.405t-.618-1.405q-.617-.575-1.482-.575c-.865 0-1.07.192-1.483.575A1.85 1.85 0 0 0 6.326 14q0 .829.617 1.405.618.575 1.483.575m3.286-8.842v-1.98q0-1.244-.964-2.142-.963-.897-2.322-.898c-1.36 0-1.672.3-2.298.898q-.94.9-.94 2.142v1.98z"/></g></svg>