<svg width="41" height="41" viewBox="0 0 41 41" fill="none" xmlns="http://www.w3.org/2000/svg">
<g clip-path="url(#clip0_14_339)">
<path d="M12.1669 0.390015H6.16687C2.84687 0.390015 0.16687 3.07001 0.16687 6.39001V12.39C0.16687 15.71 2.84687 18.39 6.16687 18.39H12.1669C15.4869 18.39 18.1669 15.71 18.1669 12.39V6.39001C18.1669 3.07001 15.4869 0.390015 12.1669 0.390015ZM15.1669 12.39C15.1669 14.05 13.8269 15.39 12.1669 15.39H6.16687C4.50687 15.39 3.16687 14.05 3.16687 12.39V6.39001C3.16687 4.73001 4.50687 3.39001 6.16687 3.39001H12.1669C13.8269 3.39001 15.1669 4.73001 15.1669 6.39001V12.39ZM34.1669 0.390015H28.1669C24.8469 0.390015 22.1669 3.07001 22.1669 6.39001V12.39C22.1669 15.71 24.8469 18.39 28.1669 18.39H34.1669C37.4869 18.39 40.1669 15.71 40.1669 12.39V6.39001C40.1669 3.07001 37.4869 0.390015 34.1669 0.390015ZM37.1669 12.39C37.1669 14.05 35.8269 15.39 34.1669 15.39H28.1669C26.5069 15.39 25.1669 14.05 25.1669 12.39V6.39001C25.1669 4.73001 26.5069 3.39001 28.1669 3.39001H34.1669C35.8269 3.39001 37.1669 4.73001 37.1669 6.39001V12.39ZM12.1669 22.39H6.16687C2.84687 22.39 0.16687 25.07 0.16687 28.39V34.39C0.16687 37.71 2.84687 40.39 6.16687 40.39H12.1669C15.4869 40.39 18.1669 37.71 18.1669 34.39V28.39C18.1669 25.07 15.4869 22.39 12.1669 22.39ZM15.1669 34.39C15.1669 36.05 13.8269 37.39 12.1669 37.39H6.16687C4.50687 37.39 3.16687 36.05 3.16687 34.39V28.39C3.16687 26.73 4.50687 25.39 6.16687 25.39H12.1669C13.8269 25.39 15.1669 26.73 15.1669 28.39V34.39ZM37.1669 29.89H32.6669V25.39C32.6669 24.57 31.9869 23.89 31.1669 23.89C30.3469 23.89 29.6669 24.57 29.6669 25.39V29.89H25.1669C24.3469 29.89 23.6669 30.57 23.6669 31.39C23.6669 32.21 24.3469 32.89 25.1669 32.89H29.6669V37.39C29.6669 38.21 30.3469 38.89 31.1669 38.89C31.9869 38.89 32.6669 38.21 32.6669 37.39V32.89H37.1669C37.9869 32.89 38.6669 32.21 38.6669 31.39C38.6669 30.57 37.9869 29.89 37.1669 29.89Z" fill="#3EB0DE"/>
</g>
<defs>
<clipPath id="clip0_14_339">
<rect width="40" height="40" fill="white" transform="translate(0.16687 0.390015)"/>
</clipPath>
</defs>
</svg>
