<svg xmlns="http://www.w3.org/2000/svg" width="38" height="25" fill="none"><clipPath id="a"><path d="M0 0h37.097v25H0z"/></clipPath><mask id="b" width="38" height="25" x="0" y="0" maskUnits="userSpaceOnUse"><path fill="#fff" d="M33.871 0H3.226C1.444 0 0 1.492 0 3.333v18.334C0 23.507 1.444 25 3.226 25H33.87c1.782 0 3.226-1.492 3.226-3.333V3.333C37.097 1.493 35.653 0 33.87 0"/></mask><mask id="c" width="13" height="17" x="6" y="2" maskUnits="userSpaceOnUse"><path fill="#fff" d="M6.453 18.086V2.566h12.24v15.52z"/></mask><mask id="d" width="13" height="17" x="18" y="2" maskUnits="userSpaceOnUse"><path fill="#fff" d="M30.93 2.57v15.532H18.696V2.572z"/></mask><g clip-path="url(#a)"><g mask="url(#b)"><path fill="#fff" stroke="#dadbd2" stroke-width="2" d="M33.871 0H3.226C1.444 0 0 1.492 0 3.333v18.334C0 23.507 1.444 25 3.226 25H33.87c1.782 0 3.226-1.492 3.226-3.333V3.333C37.097 1.493 35.653 0 33.87 0z"/></g><g mask="url(#c)"><path fill="#ed0006" fill-rule="evenodd" d="M18.693 16.424c-2.749 2.275-6.856 2.222-9.55-.19-2.293-2.054-3.16-4.677-2.447-7.709.718-3.054 2.672-4.993 5.65-5.735 2.252-.558 4.342-.058 6.218 1.345.035.025.067.056.1.084-.04.05-.073.108-.121.149a7.7 7.7 0 0 0-1.845 2.322 7.8 7.8 0 0 0-.82 4.664 7.7 7.7 0 0 0 .78 2.547c.5.99 1.194 1.817 2.035 2.52" clip-rule="evenodd"/></g><g mask="url(#d)"><path fill="#f9a000" fill-rule="evenodd" d="M18.695 4.227c.508-.377 1.026-.737 1.61-.978 2.913-1.203 5.61-.82 8.022 1.25 1.517 1.302 2.346 3.02 2.56 5.035.342 3.208-1.339 6.365-4.192 7.743-2.717 1.313-5.337 1.043-7.81-.708-.056-.04-.106-.092-.158-.138q.051-.065.105-.125c.36-.371.753-.714 1.074-1.116 1.014-1.275 1.565-2.75 1.665-4.39a7.6 7.6 0 0 0-.236-2.444c-.354-1.317-.978-2.47-1.917-3.442-.232-.24-.482-.458-.723-.687" clip-rule="evenodd"/></g><g fill-rule="evenodd" clip-rule="evenodd"><path fill="#ff5e00" d="M18.694 4.228c.241.227.491.446.722.685.938.971 1.563 2.125 1.916 3.442.214.803.286 1.62.236 2.444-.099 1.64-.651 3.115-1.665 4.389-.321.403-.714.746-1.073 1.118-.038.04-.07.083-.105.125l-.033-.008c-.838-.704-1.533-1.534-2.034-2.522a7.7 7.7 0 0 1-.78-2.547 7.8 7.8 0 0 1 .82-4.664 7.7 7.7 0 0 1 1.845-2.323c.048-.042.08-.1.12-.15a.1.1 0 0 1 .031.008"/><path fill="#000" d="M9.419 20.218c.258-.346.59-.412.964-.314.275.072.48.265.498.547.033.499.01 1 .01 1.51h-.42v-.27q.002-.438 0-.879c-.003-.34-.152-.52-.43-.525-.29-.006-.486.184-.497.512-.012.353-.004.708-.006 1.06q-.002.046-.008.104h-.429v-.314c-.005-.325.003-.652-.02-.975-.015-.238-.157-.362-.375-.382-.236-.021-.43.094-.494.311a1 1 0 0 0-.037.293c-.004.353-.001.705-.001 1.067h-.436v-2.037h.424l.02.214a.72.72 0 0 1 .64-.274c.249.017.44.133.598.352m19.292 1.383c.352.006.61-.259.62-.639.012-.381-.248-.675-.6-.676-.349-.004-.607.269-.613.648-.007.375.245.66.593.667m1.036.359h-.435l-.014-.201c-.226.213-.48.302-.773.255a.94.94 0 0 1-.384-.142 1 1 0 0 1-.293-.294c-.288-.44-.228-1.075.133-1.434.356-.356.844-.37 1.318-.026v-1.046l.454.046-.006 2.84m-17.994-1.017c0 .385.245.655.596.657.358.003.615-.277.612-.663-.004-.377-.262-.654-.61-.652-.352.003-.6.275-.6.658m1.173-.828.016-.192h.421v2.034h-.422l-.015-.182c-.53.35-1.036.31-1.38-.103-.34-.41-.33-1.09.02-1.481.356-.4.86-.43 1.359-.077m11.745 1.485c.35 0 .605-.271.608-.65.003-.378-.25-.659-.598-.665-.354-.006-.616.275-.616.661 0 .378.255.653.605.653m.573-1.475.02-.203h.414v2.034h-.415l-.02-.2c-.103.11-.232.19-.374.234s-.293.05-.437.016a.95.95 0 0 1-.596-.369c-.325-.43-.29-1.097.078-1.477.359-.371.882-.391 1.33-.036m-5.973.63c-.005-.29-.193-.482-.468-.487-.3-.007-.51.184-.524.487zm-.998.412c.07.313.306.492.634.445.177-.025.347-.103.55-.166l.195.289c-.33.273-.698.345-1.095.258-.566-.125-.882-.727-.724-1.366.14-.566.673-.883 1.225-.728.446.125.765.647.695 1.122-.016.113-.087.095-.154.095l-1.147.001c-.058 0-.116.012-.174.019zm-4.47.578.176-.298c.202.061.382.137.57.164.138.02.29-.005.426-.047.063-.02.135-.122.139-.192.003-.052-.084-.138-.148-.162-.113-.044-.242-.05-.363-.076-.115-.025-.233-.045-.344-.087-.225-.084-.374-.241-.383-.5-.009-.27.107-.479.35-.581.443-.187.872-.117 1.307.104l-.17.33c-.229-.047-.437-.094-.647-.13a.4.4 0 0 0-.175.016c-.113.03-.224.095-.196.22.016.071.121.148.202.17.215.064.448.077.659.152.325.117.461.422.335.73a.7.7 0 0 1-.227.29c-.38.28-1.145.223-1.512-.104m2.475-2.443h.443v.609h.705v.413h-.685c0 .367-.01.718.005 1.068.006.148.13.215.268.202.126-.012.25-.052.392-.084l.116.337c-.246.208-.728.241-.98.069a.58.58 0 0 1-.247-.48c-.012-.298-.008-.596-.01-.894v-.21h-.395v-.415h.391v-.615zm7.113.815-.199.341c-.49-.234-.8-.213-1.005.061-.183.245-.174.648.021.878.217.255.546.269.978.029l.203.34c-.383.365-1.107.342-1.485-.037-.39-.39-.408-1.107-.043-1.524.364-.415 1.082-.464 1.53-.09m4.017.218-.08-.016c-.42-.087-.618.075-.621.512-.003.32 0 .642-.002.962q-.001.078-.007.17h-.422v-2.038h.407l.024.212c.233-.292.508-.316.829-.214l-.13.413m-6.79 1.63h-.404v-2.04h.41l.02.207c.227-.284.503-.312.827-.209l-.13.403c-.565-.08-.705.047-.706.632l-.003.96c0 .01-.006.02-.014.049"/></g></g></svg>