<svg width="39" height="26" viewBox="0 0 39 26" fill="none" xmlns="http://www.w3.org/2000/svg">
<g clip-path="url(#clip0_14_1354)">
<g clip-path="url(#clip1_14_1354)">
<g clip-path="url(#clip2_14_1354)">
<mask id="mask0_14_1354" style="mask-type:luminance" maskUnits="userSpaceOnUse" x="0" y="0" width="38" height="26">
<path d="M0.199951 0.859863H37.297V25.8599H0.199951V0.859863Z" fill="white"/>
</mask>
<g mask="url(#mask0_14_1354)">
<mask id="mask1_14_1354" style="mask-type:luminance" maskUnits="userSpaceOnUse" x="0" y="0" width="38" height="26">
<path d="M34.0709 0.859863H3.42595C1.64395 0.859863 0.199951 2.35186 0.199951 4.19286V22.5269C0.199951 24.3669 1.64395 25.8599 3.42595 25.8599H34.07C35.852 25.8599 37.296 24.3679 37.296 22.5269V4.19286C37.297 2.35286 35.854 0.859863 34.0709 0.859863Z" fill="white"/>
</mask>
<g mask="url(#mask1_14_1354)">
<path d="M34.0709 0.859863H3.42595C1.64395 0.859863 0.199951 2.35186 0.199951 4.19286V22.5269C0.199951 24.3669 1.64395 25.8599 3.42595 25.8599H34.07C35.852 25.8599 37.296 24.3679 37.296 22.5269V4.19286C37.297 2.35286 35.854 0.859863 34.0709 0.859863Z" fill="white" stroke="#DADBD2" stroke-width="2"/>
</g>
<mask id="mask2_14_1354" style="mask-type:luminance" maskUnits="userSpaceOnUse" x="6" y="3" width="13" height="16">
<path d="M6.65295 18.9458V3.42578H18.893V18.9458H6.65295Z" fill="white"/>
</mask>
<g mask="url(#mask2_14_1354)">
<path fill-rule="evenodd" clip-rule="evenodd" d="M18.8929 17.2839C16.1439 19.5589 12.0369 19.5059 9.34294 17.0939C7.04994 15.0399 6.18295 12.4169 6.89595 9.38492C7.61395 6.33092 9.56795 4.39192 12.5459 3.64992C14.7979 3.09192 16.8879 3.59192 18.7639 4.99492C18.7989 5.01992 18.8309 5.05092 18.8639 5.07892C18.8239 5.12892 18.7909 5.18692 18.7429 5.22792C17.9833 5.87505 17.3567 6.66367 16.8979 7.54992C16.1479 8.98204 15.8613 10.6118 16.0779 12.2139C16.188 13.1018 16.452 13.9637 16.8579 14.7609C17.3579 15.7509 18.0519 16.5779 18.8929 17.2809" fill="#ED0006"/>
</g>
<mask id="mask3_14_1354" style="mask-type:luminance" maskUnits="userSpaceOnUse" x="18" y="3" width="14" height="16">
<path d="M31.13 3.42969V18.9617H18.896V3.43169L31.13 3.42969Z" fill="white"/>
</mask>
<g mask="url(#mask3_14_1354)">
<path fill-rule="evenodd" clip-rule="evenodd" d="M18.895 5.08664C19.403 4.70964 19.921 4.34964 20.505 4.10864C23.418 2.90564 26.115 3.28864 28.527 5.35864C30.044 6.66064 30.873 8.37864 31.087 10.3936C31.429 13.6016 29.748 16.7586 26.895 18.1366C24.178 19.4496 21.558 19.1796 19.085 17.4286C19.029 17.3886 18.979 17.3366 18.927 17.2906C18.961 17.2473 18.996 17.2056 19.032 17.1656C19.392 16.7946 19.785 16.4516 20.106 16.0496C21.12 14.7746 21.671 13.2996 21.771 11.6596C21.8253 10.8376 21.7456 10.0121 21.535 9.21564C21.181 7.89864 20.557 6.74564 19.618 5.77364C19.386 5.53364 19.136 5.31564 18.895 5.08664Z" fill="#F9A000"/>
</g>
<path fill-rule="evenodd" clip-rule="evenodd" d="M18.894 5.08766C19.135 5.31466 19.385 5.53366 19.616 5.77266C20.554 6.74366 21.179 7.89766 21.532 9.21466C21.746 10.0177 21.818 10.8347 21.768 11.6587C21.669 13.2987 21.117 14.7737 20.103 16.0477C19.782 16.4507 19.389 16.7937 19.03 17.1657C18.992 17.2057 18.96 17.2487 18.925 17.2907L18.892 17.2827C18.054 16.5787 17.359 15.7487 16.858 14.7607C16.452 13.9634 16.1881 13.1015 16.078 12.2137C15.8614 10.6116 16.148 8.98178 16.898 7.54966C17.3566 6.66306 17.9833 5.87408 18.743 5.22666C18.791 5.18466 18.823 5.12666 18.863 5.07666C18.8737 5.07764 18.8842 5.08035 18.894 5.08466" fill="#FF5E00"/>
<path fill-rule="evenodd" clip-rule="evenodd" d="M9.61899 21.0776C9.87699 20.7316 10.209 20.6656 10.583 20.7636C10.858 20.8356 11.063 21.0286 11.081 21.3106C11.114 21.8096 11.091 22.3106 11.091 22.8206H10.671V22.5506C10.6723 22.2586 10.6723 21.9656 10.671 21.6716C10.668 21.3316 10.519 21.1516 10.241 21.1466C9.95099 21.1406 9.75499 21.3306 9.74399 21.6586C9.73199 22.0116 9.73999 22.3666 9.73799 22.7186C9.73666 22.7493 9.73399 22.784 9.72999 22.8226H9.30099V22.5086C9.29599 22.1836 9.30399 21.8566 9.28099 21.5336C9.26599 21.2956 9.12399 21.1716 8.90599 21.1516C8.66999 21.1306 8.47599 21.2456 8.41199 21.4626C8.38522 21.5579 8.37275 21.6567 8.37499 21.7556C8.37099 22.1086 8.37399 22.4606 8.37399 22.8226H7.93799V20.7856H8.36199L8.38199 20.9996C8.4568 20.9036 8.55474 20.8281 8.66667 20.7801C8.7786 20.7322 8.90085 20.7135 9.02199 20.7256C9.27099 20.7426 9.46199 20.8586 9.61999 21.0776M28.912 22.4606C29.264 22.4666 29.522 22.2016 29.532 21.8216C29.544 21.4406 29.284 21.1466 28.932 21.1456C28.583 21.1416 28.325 21.4146 28.319 21.7936C28.312 22.1686 28.564 22.4536 28.912 22.4606ZM29.948 22.8196H29.513L29.499 22.6186C29.273 22.8316 29.019 22.9206 28.726 22.8736C28.5891 22.8551 28.458 22.8066 28.342 22.7316C28.2248 22.6552 28.125 22.5551 28.049 22.4376C27.761 21.9976 27.821 21.3626 28.182 21.0036C28.538 20.6476 29.026 20.6336 29.5 20.9776V19.9316L29.954 19.9776L29.948 22.8176M11.954 21.8006C11.954 22.1856 12.199 22.4556 12.55 22.4576C12.908 22.4606 13.165 22.1806 13.162 21.7946C13.158 21.4176 12.9 21.1406 12.552 21.1426C12.2 21.1456 11.952 21.4176 11.952 21.8006M13.125 20.9726L13.141 20.7806H13.562V22.8146H13.14L13.125 22.6326C12.595 22.9826 12.089 22.9426 11.745 22.5296C11.405 22.1196 11.415 21.4396 11.765 21.0486C12.121 20.6486 12.625 20.6186 13.124 20.9716M24.869 22.4566C25.219 22.4566 25.474 22.1856 25.477 21.8066C25.48 21.4286 25.227 21.1476 24.879 21.1416C24.525 21.1356 24.263 21.4166 24.263 21.8026C24.263 22.1806 24.518 22.4556 24.868 22.4556M25.441 20.9806L25.461 20.7776H25.875V22.8116H25.46L25.44 22.6116C25.337 22.7216 25.208 22.8016 25.066 22.8456C24.924 22.8896 24.773 22.8956 24.629 22.8616C24.3905 22.8191 24.1774 22.6871 24.033 22.4926C23.708 22.0626 23.743 21.3956 24.111 21.0156C24.47 20.6446 24.993 20.6256 25.441 20.9806ZM19.468 21.6096C19.463 21.3196 19.275 21.1276 19 21.1226C18.7 21.1156 18.49 21.3066 18.476 21.6096H19.468ZM18.47 22.0216C18.54 22.3346 18.776 22.5136 19.104 22.4666C19.281 22.4416 19.451 22.3636 19.654 22.3006L19.849 22.5896C19.519 22.8626 19.151 22.9346 18.754 22.8476C18.188 22.7226 17.872 22.1206 18.03 21.4816C18.17 20.9156 18.703 20.5986 19.255 20.7536C19.701 20.8786 20.02 21.4006 19.95 21.8756C19.934 21.9886 19.863 21.9706 19.796 21.9706L18.649 21.9716C18.591 21.9716 18.533 21.9836 18.475 21.9906L18.47 22.0216ZM14 22.5996L14.176 22.3016C14.378 22.3626 14.558 22.4386 14.746 22.4656C14.884 22.4856 15.036 22.4606 15.172 22.4186C15.235 22.3986 15.307 22.2966 15.311 22.2266C15.314 22.1746 15.227 22.0886 15.163 22.0646C15.05 22.0206 14.921 22.0146 14.8 21.9886C14.685 21.9636 14.567 21.9436 14.456 21.9016C14.231 21.8176 14.082 21.6606 14.073 21.4016C14.064 21.1316 14.18 20.9226 14.423 20.8206C14.866 20.6336 15.295 20.7036 15.73 20.9246L15.56 21.2546C15.331 21.2076 15.123 21.1606 14.913 21.1246C14.8542 21.1169 14.7944 21.1224 14.738 21.1406C14.625 21.1706 14.514 21.2356 14.542 21.3606C14.558 21.4316 14.663 21.5086 14.744 21.5306C14.959 21.5946 15.192 21.6076 15.403 21.6826C15.728 21.7996 15.864 22.1046 15.738 22.4126C15.6896 22.5278 15.6112 22.628 15.511 22.7026C15.131 22.9826 14.366 22.9256 13.999 22.5986M16.474 20.1556H16.917V20.7646H17.622V21.1776H16.937C16.937 21.5446 16.927 21.8956 16.942 22.2456C16.948 22.3936 17.072 22.4606 17.21 22.4476C17.336 22.4356 17.46 22.3956 17.602 22.3636L17.718 22.7006C17.472 22.9086 16.99 22.9416 16.738 22.7696C16.661 22.7157 16.5983 22.6437 16.5552 22.5601C16.5122 22.4765 16.4902 22.3837 16.491 22.2896C16.479 21.9916 16.483 21.6936 16.481 21.3956V21.1856H16.086V20.7706H16.477V20.1556H16.474ZM23.587 20.9706L23.388 21.3116C22.898 21.0776 22.588 21.0986 22.383 21.3726C22.2 21.6176 22.209 22.0206 22.404 22.2506C22.621 22.5056 22.95 22.5196 23.382 22.2796L23.585 22.6196C23.202 22.9846 22.478 22.9616 22.1 22.5826C21.71 22.1926 21.692 21.4756 22.057 21.0586C22.421 20.6436 23.139 20.5946 23.587 20.9686M27.604 21.1866L27.524 21.1706C27.104 21.0836 26.906 21.2456 26.903 21.6826C26.9 22.0026 26.903 22.3246 26.901 22.6446C26.9003 22.6966 26.898 22.7533 26.894 22.8146H26.472V20.7766H26.879L26.903 20.9886C27.136 20.6966 27.411 20.6726 27.732 20.7746L27.602 21.1876M20.812 22.8176H20.408V20.7776H20.818L20.838 20.9846C21.065 20.7006 21.341 20.6726 21.665 20.7756L21.535 21.1786C20.97 21.0986 20.83 21.2256 20.829 21.8106L20.826 22.7706C20.826 22.7806 20.82 22.7906 20.812 22.8196" fill="black"/>
</g>
</g>
</g>
</g>
<defs>
<clipPath id="clip0_14_1354">
<rect width="38" height="25" fill="white" transform="translate(0.199951 0.859863)"/>
</clipPath>
<clipPath id="clip1_14_1354">
<rect width="38" height="25" fill="white" transform="translate(0.199951 0.859863)"/>
</clipPath>
<clipPath id="clip2_14_1354">
<rect width="38" height="25" fill="white" transform="translate(0.199951 0.859863)"/>
</clipPath>
</defs>
</svg>
