<svg xmlns="http://www.w3.org/2000/svg" width="38" height="25" fill="none"><clipPath id="a"><path d="M0 0h37.097v25H0z"/></clipPath><mask id="b" width="38" height="25" x="0" y="0" maskUnits="userSpaceOnUse"><path fill="#fff" d="M33.871 0H3.226C1.444 0 0 1.492 0 3.333v18.334C0 23.507 1.444 25 3.226 25H33.87c1.782 0 3.226-1.492 3.226-3.333V3.333C37.097 1.493 35.653 0 33.87 0"/></mask><g clip-path="url(#a)"><g mask="url(#b)"><path fill="#fff" stroke="#dadbd2" stroke-width="2" d="M33.871 0H3.226C1.444 0 0 1.492 0 3.333v18.334C0 23.507 1.444 25 3.226 25H33.87c1.782 0 3.226-1.492 3.226-3.333V3.333C37.097 1.493 35.653 0 33.87 0z"/></g><g fill-rule="evenodd" clip-rule="evenodd"><path fill="#003087" d="M6.461 9.127H4.028a.35.35 0 0 0-.335.29l-.984 6.275c-.016.125.08.242.201.242h1.17c.17 0 .314-.117.338-.284l.259-1.7a.36.36 0 0 1 .338-.283h.774c1.605 0 2.533-.783 2.775-2.325.104-.675.008-1.2-.307-1.575-.347-.408-.96-.625-1.774-.625m.29 2.292c-.137.883-.806.883-1.451.883H4.95l.258-1.633a.2.2 0 0 1 .201-.167h.162c.443 0 .855 0 1.072.256.127.15.168.373.121.68m6.992-.024H12.58c-.049-.001-.096.016-.133.048s-.063.077-.071.127l-.05.329-.084-.12c-.25-.367-.806-.487-1.37-.487-1.283 0-2.388.975-2.598 2.35-.113.69.049 1.342.436 1.805.355.417.863.592 1.467.592 1.04 0 1.613-.675 1.613-.675l-.048.325a.2.2 0 0 0 .202.233h1.048c.17 0 .315-.117.339-.283l.629-4.009a.196.196 0 0 0-.194-.233m-1.637 2.267a1.305 1.305 0 0 1-1.314 1.116c-.34 0-.605-.111-.783-.316-.169-.209-.234-.5-.177-.821a1.305 1.305 0 0 1 1.306-1.125c.331 0 .597.108.775.317.177.208.25.508.201.825m7.83-2.275c.17 0 .267.191.17.316l-3.895 5.65a.35.35 0 0 1-.276.15h-1.177a.2.2 0 0 1-.163-.316l1.215-1.721-1.29-3.809a.21.21 0 0 1 .027-.187.2.2 0 0 1 .163-.086h1.153c.15 0 .283.1.323.242l.685 2.3 1.613-2.392a.35.35 0 0 1 .283-.15h1.17"/><path fill="#009cde" d="M23.824 9.127h-2.435a.34.34 0 0 0-.331.29l-.984 6.275a.197.197 0 0 0 .198.233h1.249a.234.234 0 0 0 .234-.2l.279-1.775a.344.344 0 0 1 .334-.283h.771c1.605 0 2.533-.783 2.775-2.325q.169-1.013-.315-1.575c-.339-.408-.952-.625-1.766-.625m.282 2.292c-.137.883-.798.883-1.443.883h-.363l.258-1.633a.21.21 0 0 1 .201-.167h.17c.443 0 .855 0 1.064.256.13.15.17.375.121.683m6.992-.025h-1.17a.21.21 0 0 0-.2.175l-.05.328-.08-.12c-.25-.367-.814-.487-1.37-.487-1.291 0-2.388.975-2.606 2.35-.113.692.049 1.342.436 1.807.355.416.863.591 1.468.591 1.038 0 1.612-.669 1.612-.669l-.048.325a.2.2 0 0 0 .202.233h1.048c.17 0 .31-.125.334-.283l.629-4.017c.024-.125-.08-.233-.202-.233m-1.62 2.275c-.114.673-.646 1.123-1.315 1.123-.339 0-.61-.111-.786-.317-.175-.208-.241-.5-.183-.825a1.304 1.304 0 0 1 1.302-1.125c.33 0 .6.108.777.317.183.208.25.508.202.825m2.997-4.367a.21.21 0 0 1 .201-.167h1.125a.21.21 0 0 1 .201.239l-.993 6.257a.34.34 0 0 1-.34.283h-1a.2.2 0 0 1-.151-.069.2.2 0 0 1-.05-.164l.996-6.388"/></g></g></svg>