<svg width="155" height="46" viewBox="0 0 155 46" fill="none" xmlns="http://www.w3.org/2000/svg">
<g clip-path="url(#clip0_14_1205)">
<mask id="mask0_14_1205" style="mask-type:luminance" maskUnits="userSpaceOnUse" x="0" y="0" width="154" height="46">
<path d="M153.977 0.859863H0.908936V45.8599H153.977V0.859863Z" fill="white"/>
</mask>
<g mask="url(#mask0_14_1205)">
<path d="M148.329 45.8599H6.57894C3.45094 45.8599 0.908936 43.3179 0.908936 40.2349V6.48486C0.908936 3.40286 3.45094 0.859863 6.57894 0.859863H148.329C151.457 0.859863 153.999 3.40286 153.999 6.48486V40.2349C153.999 43.3399 151.457 45.8599 148.329 45.8599Z" fill="#4F4F4F"/>
<path d="M24.3979 22.7078L12.3149 35.4198C12.5032 36.1111 12.9135 36.7213 13.4827 37.1565C14.0519 37.5916 14.7485 37.8275 15.4649 37.8278C16.0729 37.8278 16.6349 37.6698 17.1299 37.3778H17.1749L30.7649 29.5698L24.3979 22.7078Z" fill="#D75532"/>
<path d="M36.6149 20.5479L30.7429 17.1729L24.1279 22.9999L30.7649 29.5699L36.5929 26.2179C37.6049 25.6779 38.3029 24.5979 38.3029 23.3599C38.3029 22.1219 37.6279 21.0649 36.5929 20.5249" fill="#FFCC32"/>
<path d="M12.3189 11.2998C12.2509 11.5698 12.2059 11.8398 12.2059 12.1318V34.5868C12.2059 34.8798 12.2509 35.1498 12.3179 35.4198L24.8059 23.0438L12.3189 11.2998Z" fill="#0075BC"/>
<path d="M24.489 23.3598L30.744 17.1728L17.176 9.36582C16.6658 9.06085 16.0834 8.89756 15.489 8.89282C13.981 8.89282 12.699 9.90582 12.339 11.3008L24.511 23.3598H24.489Z" fill="#00A176"/>
<path d="M54.5889 12.3809C54.5889 13.3039 54.3189 14.0459 53.7569 14.5859C53.1269 15.2389 52.3169 15.5539 51.3269 15.5539C50.3369 15.5539 49.5499 15.2159 48.8749 14.5639C48.1999 13.9119 47.8619 13.0789 47.8619 12.1109C47.8619 11.1429 48.1999 10.3109 48.8749 9.65895C49.5499 9.00695 50.3599 8.66895 51.3269 8.66895C51.7999 8.66895 52.2499 8.75895 52.6999 8.93895C53.1269 9.11895 53.4869 9.36595 53.7349 9.68095L53.1499 10.2659C52.6999 9.74895 52.1149 9.47895 51.3269 9.47895C50.6296 9.47895 50.0223 9.72628 49.5049 10.2209C48.7289 10.9629 48.7399 11.3459 48.7399 12.1339C48.7399 12.9219 48.9869 13.5509 49.5049 14.0459C50.0229 14.5409 50.6299 14.7659 51.3269 14.7659C52.0699 14.7659 52.6769 14.5189 53.1719 14.0239C53.4869 13.7089 53.6899 13.2589 53.7349 12.6959H51.3269V11.9089H54.5449C54.5669 12.0889 54.5899 12.2459 54.5899 12.4039" fill="white"/>
<path d="M54.5889 12.3809C54.5889 13.3039 54.3189 14.0459 53.7569 14.5859C53.1269 15.2389 52.3169 15.5539 51.3269 15.5539C50.3369 15.5539 49.5499 15.2159 48.8749 14.5639C48.1999 13.9119 47.8619 13.0789 47.8619 12.1109C47.8619 11.1429 48.1999 10.3109 48.8749 9.65895C49.5499 9.00695 50.3599 8.66895 51.3269 8.66895C51.7999 8.66895 52.2499 8.75895 52.6999 8.93895C53.1269 9.11895 53.4869 9.36595 53.7349 9.68095L53.1499 10.2659C52.6999 9.74895 52.1149 9.47895 51.3269 9.47895C50.6296 9.47895 50.0223 9.72628 49.5049 10.2209C48.7289 10.9629 48.7399 11.3459 48.7399 12.1339C48.7399 12.9219 48.9869 13.5509 49.5049 14.0459C50.0229 14.5409 50.6299 14.7659 51.3269 14.7659C52.0699 14.7659 52.6769 14.5189 53.1719 14.0239C53.4869 13.7089 53.6899 13.2589 53.7349 12.6959H51.3269V11.9089H54.5449C54.5669 12.0889 54.5899 12.2459 54.5899 12.4039L54.5889 12.3809Z" stroke="white" stroke-width="0.2" stroke-miterlimit="10"/>
</g>
<path d="M59.813 9.63495H56.843V11.705H59.521V12.515H56.843V14.585H59.813V15.395H56.011V8.82495H59.813V9.63495Z" fill="white"/>
<path d="M59.813 9.63495H56.843V11.705H59.521V12.515H56.843V14.585H59.813V15.395H56.011V8.82495H59.813V9.63495Z" stroke="white" stroke-width="0.2" stroke-miterlimit="10"/>
<path d="M63.5709 15.395H62.7379V9.63495H60.8929V8.82495H65.4159V9.63495H63.5709V15.395Z" fill="white"/>
<path d="M63.5709 15.395H62.7379V9.63495H60.8929V8.82495H65.4159V9.63495H63.5709V15.395Z" stroke="white" stroke-width="0.2" stroke-miterlimit="10"/>
<path d="M69.669 8.82495H68.949V15.417H69.669V8.82495Z" fill="white"/>
<path d="M69.669 8.82495H68.949V15.417H69.669V8.82495Z" stroke="white" stroke-width="0.2" stroke-miterlimit="10"/>
<path d="M73.6019 15.395H72.7699V9.63495H70.9249V8.82495H75.4469V9.63495H73.6019V15.395Z" fill="white"/>
<path d="M73.6019 15.395H72.7699V9.63495H70.9249V8.82495H75.4469V9.63495H73.6019V15.395Z" stroke="white" stroke-width="0.2" stroke-miterlimit="10"/>
<mask id="mask1_14_1205" style="mask-type:luminance" maskUnits="userSpaceOnUse" x="0" y="0" width="154" height="46">
<path d="M153.977 0.859863H0.908936V45.8599H153.977V0.859863Z" fill="white"/>
</mask>
<g mask="url(#mask1_14_1205)">
<path d="M80.0689 14.0009C80.5639 14.4959 81.1719 14.7439 81.8689 14.7439C82.5659 14.7439 83.1739 14.4959 83.6689 14.0009C84.1639 13.5059 84.4109 12.8759 84.4109 12.1109C84.4109 11.3459 84.1639 10.7159 83.6689 10.2209C83.1739 9.72595 82.5659 9.47895 81.8689 9.47895C81.1719 9.47895 80.5639 9.72595 80.0689 10.2209C79.5739 10.7159 79.3269 11.3459 79.3269 12.1109C79.3269 12.8759 79.5739 13.5059 80.0689 14.0009ZM84.3219 14.5639C83.6689 15.2389 82.8589 15.5539 81.8919 15.5539C80.9249 15.5539 80.1139 15.2159 79.4619 14.5639C78.8089 13.8889 78.4719 13.0789 78.4719 12.1109C78.4719 11.1429 78.8089 10.3339 79.4619 9.65895C80.1149 8.98395 80.9239 8.66895 81.8919 8.66895C82.8599 8.66895 83.6689 9.00595 84.3219 9.68095C84.9749 10.3559 85.3119 11.1659 85.3119 12.1109C85.3119 13.0559 84.9739 13.8889 84.3219 14.5639Z" fill="white"/>
<path d="M80.0689 14.0009C80.5639 14.4959 81.1719 14.7439 81.8689 14.7439C82.5659 14.7439 83.1739 14.4959 83.6689 14.0009C84.1639 13.5059 84.4109 12.8759 84.4109 12.1109C84.4109 11.3459 84.1639 10.7159 83.6689 10.2209C83.1739 9.72595 82.5659 9.47895 81.8689 9.47895C81.1719 9.47895 80.5639 9.72595 80.0689 10.2209C79.5739 10.7159 79.3269 11.3459 79.3269 12.1109C79.3269 12.8759 79.5739 13.5059 80.0689 14.0009ZM84.3219 14.5639C83.6689 15.2389 82.8589 15.5539 81.8919 15.5539C80.9249 15.5539 80.1139 15.2159 79.4619 14.5639C78.8089 13.8889 78.4719 13.0789 78.4719 12.1109C78.4719 11.1429 78.8089 10.3339 79.4619 9.65895C80.1149 8.98395 80.9239 8.66895 81.8919 8.66895C82.8599 8.66895 83.6689 9.00595 84.3219 9.68095C84.9749 10.3559 85.3119 11.1659 85.3119 12.1109C85.3119 13.0559 84.9739 13.8889 84.3219 14.5639Z" stroke="white" stroke-width="0.2" stroke-miterlimit="10"/>
</g>
<path d="M86.6749 15.395V8.82495H87.7089L90.9259 13.932H90.9489L90.9259 12.672V8.82495H91.7589V15.395H90.8809L87.5299 10.04H87.4849L87.5299 11.3V15.395H86.6749Z" fill="white"/>
<path d="M86.6749 15.395V8.82495H87.7089L90.9259 13.932H90.9489L90.9259 12.672V8.82495H91.7589V15.395H90.8809L87.5299 10.04H87.4849L87.5299 11.3V15.395H86.6749Z" stroke="white" stroke-width="0.2" stroke-miterlimit="10"/>
<mask id="mask2_14_1205" style="mask-type:luminance" maskUnits="userSpaceOnUse" x="0" y="0" width="154" height="46">
<path d="M153.977 0.859863H0.908936V45.8599H153.977V0.859863Z" fill="white"/>
</mask>
<g mask="url(#mask2_14_1205)">
<path d="M122.163 34.6098H124.278V20.5468H122.163V34.6098ZM141.22 25.6098L138.79 31.7068H138.723L136.203 25.6098H133.93L137.71 34.1368L135.55 38.8848H137.755L143.583 25.6318H141.22V25.6098ZM129.228 33.0118C128.53 33.0118 127.563 32.6748 127.563 31.8198C127.563 30.7398 128.778 30.3118 129.813 30.3118C130.735 30.3118 131.185 30.5148 131.748 30.7848C131.59 32.0898 130.443 33.0118 129.228 33.0118ZM129.475 25.2948C127.945 25.2948 126.348 25.9698 125.695 27.4548L127.563 28.2418C127.968 27.4548 128.71 27.2068 129.498 27.2068C130.6 27.2068 131.703 27.8598 131.725 29.0068V29.1418C131.343 28.9168 130.51 28.6018 129.52 28.6018C127.495 28.6018 125.425 29.7048 125.425 31.7748C125.425 33.6648 127.09 34.8798 128.935 34.8798C130.353 34.8798 131.14 34.2498 131.635 33.5068H131.703V34.5868H133.75V29.1868C133.75 26.6898 131.883 25.2948 129.453 25.2948M116.403 27.3198H113.388V22.5048H116.403C117.978 22.5048 118.878 23.8098 118.878 24.9118C118.878 26.0138 117.978 27.3198 116.403 27.3198ZM116.358 20.5468H111.295V34.6098H113.41V29.2768H116.358C118.698 29.2768 121.015 27.5898 121.015 24.9118C121.015 22.2338 118.72 20.5468 116.358 20.5468ZM88.7049 33.0118C87.2429 33.0118 86.0279 31.7968 86.0279 30.1318C86.0279 28.4668 87.2429 27.2068 88.7049 27.2068C90.1679 27.2068 91.2929 28.4448 91.2929 30.1318C91.2929 31.8188 90.1679 33.0118 88.7049 33.0118ZM91.1349 26.3968H91.0679C90.5949 25.8348 89.6729 25.3168 88.5249 25.3168C86.1179 25.3168 83.9129 27.4098 83.9129 30.1098C83.9129 32.8098 86.1179 34.8798 88.5249 34.8798C89.6729 34.8798 90.5949 34.3618 91.0679 33.7998H91.1349V34.4968C91.1349 36.3198 90.1449 37.3098 88.5699 37.3098C87.2649 37.3098 86.4779 36.3868 86.1399 35.5998L84.2949 36.3648C84.8349 37.6248 86.2299 39.1998 88.5699 39.1998C91.0449 39.1998 93.1599 37.7598 93.1599 34.2268V25.6318H91.1589V26.4198H91.1359L91.1349 26.3968ZM94.5999 34.6098H96.7149V20.5468H94.5999V34.6098ZM99.8429 29.9748C99.7979 28.1298 101.283 27.1848 102.363 27.1848C103.195 27.1848 103.915 27.6118 104.163 28.1968L99.8429 29.9748ZM106.413 28.3768C106.008 27.2968 104.793 25.3398 102.295 25.3398C99.7979 25.3398 97.7499 27.2748 97.7499 30.1318C97.7499 32.8098 99.7979 34.9248 102.543 34.9248C104.748 34.9248 106.03 33.5748 106.57 32.8098L104.928 31.7298C104.388 32.5168 103.623 33.0568 102.543 33.0568C101.463 33.0568 100.698 32.5618 100.203 31.6168L106.66 28.9618L106.435 28.4218V28.3768H106.413ZM55.0449 26.8018V28.8268H59.9499C59.7929 29.9748 59.4099 30.8068 58.8249 31.3918C58.1049 32.0898 57.0029 32.8768 55.0449 32.8768C52.0299 32.8768 49.6679 30.4698 49.6679 27.4768C49.6679 24.4838 52.0299 22.0768 55.0449 22.0768C56.6649 22.0768 57.8579 22.7068 58.7349 23.5168L60.1749 22.0768C58.9599 20.9068 57.3179 20.0298 55.0449 20.0298C50.9279 20.0298 47.4399 23.3598 47.4399 27.4548C47.4399 31.5498 50.9049 34.8798 55.0449 34.8798C57.2729 34.8798 58.9599 34.1598 60.2649 32.7868C61.6149 31.4368 62.0429 29.5698 62.0429 28.0398C62.0429 27.5668 61.9979 27.1398 61.9299 26.7798H55.0449V26.8018ZM67.5999 33.0118C66.1379 33.0118 64.8779 31.8198 64.8779 30.1098C64.8779 28.3998 66.1379 27.2068 67.5999 27.2068C69.0619 27.2068 70.3229 28.3768 70.3229 30.1098C70.3229 31.8428 69.0629 33.0118 67.5999 33.0118ZM67.5999 25.3168C64.9229 25.3168 62.7629 27.3198 62.7629 30.1098C62.7629 32.8998 64.9449 34.9018 67.5999 34.9018C70.2549 34.9018 72.4379 32.8768 72.4379 30.1098C72.4379 27.3428 70.2549 25.3168 67.5999 25.3168ZM78.1749 33.0118C76.7129 33.0118 75.4529 31.8198 75.4529 30.1098C75.4529 28.3998 76.7129 27.2068 78.1749 27.2068C79.6379 27.2068 80.8979 28.3768 80.8979 30.1098C80.8979 31.8428 79.6379 33.0118 78.1749 33.0118ZM78.1749 25.3168C75.4979 25.3168 73.3379 27.3198 73.3379 30.1098C73.3379 32.8998 75.5199 34.9018 78.1749 34.9018C80.8299 34.9018 83.0129 32.8768 83.0129 30.1098C83.0129 27.3428 80.8299 25.3168 78.1749 25.3168Z" fill="white"/>
</g>
</g>
<defs>
<clipPath id="clip0_14_1205">
<rect width="154" height="45" fill="white" transform="translate(0.908936 0.859863)"/>
</clipPath>
</defs>
</svg>
