<svg width="51" height="34" viewBox="0 0 51 34" fill="none" xmlns="http://www.w3.org/2000/svg">
<g clip-path="url(#clip0_14_629)">
<g clip-path="url(#clip1_14_629)">
<mask id="mask0_14_629" style="mask-type:luminance" maskUnits="userSpaceOnUse" x="0" y="0" width="51" height="34">
<path d="M0.880005 0.859863H50.88V33.4619H0.880005V0.859863Z" fill="white"/>
</mask>
<g mask="url(#mask0_14_629)">
<path opacity="0.1" d="M40.178 0.85988C34.516 0.84988 29.908 5.42388 29.898 11.0969V11.2269C29.713 16.6829 33.875 21.3009 39.319 21.7029C38.569 25.7029 36.755 29.1469 31.929 33.4729C44.557 30.0169 50.871 20.7359 50.871 11.8789C50.882 4.85988 45.851 0.85988 40.178 0.85988ZM11.162 0.85988C5.50103 0.84988 0.904033 5.42388 0.882033 11.0969V11.2269C0.697033 16.6829 4.85903 21.3009 10.304 21.7029C9.55403 25.7029 7.72803 29.1469 2.91403 33.4729C15.542 30.0169 21.856 20.7359 21.856 11.8789C21.866 4.85988 16.836 0.85988 11.162 0.85988Z" fill="#03B1E3"/>
</g>
</g>
</g>
<defs>
<clipPath id="clip0_14_629">
<rect width="50" height="33" fill="white" transform="translate(0.880005 0.859863)"/>
</clipPath>
<clipPath id="clip1_14_629">
<rect width="50" height="33" fill="white" transform="translate(0.880005 0.859863)"/>
</clipPath>
</defs>
</svg>
