<svg width="41" height="40" viewBox="0 0 41 40" fill="none" xmlns="http://www.w3.org/2000/svg">
<g clip-path="url(#clip0_14_327)">
<path d="M37.4804 15.6465H27.4178C27.424 15.5867 27.424 15.5264 27.4178 15.4665C27.1021 14.0224 26.64 12.6142 26.0386 11.2639C25.5291 10.1012 24.9579 8.96654 24.3273 7.86477C23.7066 6.7668 22.849 5.82098 21.8168 5.09611C20.7846 4.37124 19.6039 3.88554 18.3604 3.67434L2.00821 0.843034C1.8745 0.816273 1.73679 0.81657 1.6032 0.843905C1.46961 0.871241 1.34285 0.925063 1.2304 1.00219C1.11796 1.07932 1.0221 1.1782 0.948496 1.29298C0.87489 1.40777 0.825026 1.53614 0.801846 1.67051C0.778666 1.80488 0.782641 1.94254 0.813535 2.07535C0.84443 2.20816 0.901619 2.33344 0.981725 2.44379C1.06183 2.55413 1.16323 2.64731 1.27994 2.71783C1.39665 2.78834 1.52631 2.83476 1.66125 2.85434L18.0195 5.69086C18.9608 5.85478 19.8539 6.22571 20.6344 6.77685C21.4149 7.32799 22.0632 8.04559 22.5326 8.87782C23.1329 9.91603 23.6777 10.9854 24.1647 12.0813C24.6761 13.2308 25.0779 14.4259 25.3647 15.6509H18.3186C18.4514 15.3506 18.5615 15.0419 18.6491 14.7248C18.6896 14.5935 18.7031 14.4553 18.6889 14.3187C18.6747 14.182 18.633 14.0496 18.5664 13.9294C18.4997 13.8092 18.4095 13.7038 18.3011 13.6193C18.1927 13.5349 18.0683 13.4733 17.9355 13.4381C17.8026 13.4029 17.6641 13.395 17.5281 13.4147C17.3921 13.4344 17.2615 13.4814 17.1441 13.5528C17.0267 13.6242 16.925 13.7187 16.845 13.8304C16.765 13.9421 16.7084 14.0689 16.6786 14.203C16.5406 14.747 16.2919 15.2567 15.9482 15.7004C14.9642 15.0654 14.1186 14.2381 13.4621 13.2683C13.3545 13.0887 13.1943 12.9467 13.0031 12.8614C12.8119 12.7761 12.5992 12.7518 12.3937 12.7917C12.1882 12.8316 12 12.9338 11.8547 13.0844C11.7093 13.235 11.6138 13.4267 11.5813 13.6335C11.5589 13.7704 11.5648 13.9105 11.5986 14.0451C11.6324 14.1797 11.6934 14.3059 11.7778 14.4161C12.6123 15.6399 13.6901 16.6785 14.9439 17.4674L20.2491 20.8178C20.6592 21.0755 20.9502 21.4856 21.058 21.9579C21.1658 22.4302 21.0816 22.9259 20.8239 23.3361C20.5661 23.7462 20.156 24.0372 19.6838 24.145C19.2115 24.2528 18.7158 24.1686 18.3056 23.9109L14.2404 21.3969C12.628 20.3899 10.7536 19.8828 8.85343 19.9396C7.66115 19.9716 6.4779 19.7245 5.3981 19.2179C4.3183 18.7114 3.37185 17.9595 2.6343 17.0222C2.4625 16.8235 2.2208 16.6986 1.95937 16.6735C1.69794 16.6483 1.43686 16.7248 1.23032 16.887C1.02377 17.0492 0.887639 17.2848 0.850167 17.5447C0.812695 17.8047 0.876765 18.0691 1.02908 18.283C2.05987 19.5967 3.41382 20.6205 4.95864 21.2543L4.68908 21.5196C4.28703 21.9132 3.99445 22.4048 3.84013 22.946C3.68582 23.4871 3.67508 24.0591 3.809 24.6056C3.94291 25.1521 4.21684 25.6543 4.60384 26.0628C4.99083 26.4713 5.47754 26.772 6.01603 26.9352C5.8897 27.4843 5.91313 28.0572 6.08389 28.5941C6.25464 29.131 6.56644 29.6123 6.98673 29.9875C7.40701 30.3627 7.92035 30.6182 8.47311 30.7272C9.02588 30.8363 9.59778 30.7949 10.1291 30.6074L10.2839 30.5509V36.1004C10.2866 36.9791 10.6369 37.821 11.2583 38.4422C11.8797 39.0634 12.7217 39.4136 13.6004 39.4161H37.4804C38.3613 39.4135 39.2053 39.0616 39.827 38.4376C40.4488 37.8135 40.7976 36.9683 40.7969 36.0874V18.9526C40.7916 18.0756 40.4402 17.2362 39.8191 16.617C39.1979 15.9978 38.3574 15.649 37.4804 15.6465ZM6.1169 22.9726L7.22734 21.8787C7.78734 21.9651 8.35053 22.0007 8.9169 21.9856C9.37577 21.9755 9.83464 22.0058 10.2882 22.0761V23.2274L10.223 23.2604L7.61169 24.8648C7.35852 25.0025 7.06485 25.0465 6.78244 24.9889C6.50003 24.9313 6.24702 24.7759 6.06801 24.55C5.889 24.3241 5.79549 24.0422 5.80395 23.7542C5.81242 23.4661 5.92233 23.1902 6.1143 22.9752L6.1169 22.9726ZM9.44647 28.6856C9.19031 28.7732 8.91092 28.7638 8.66123 28.6592C8.41154 28.5546 8.20888 28.3621 8.09164 28.118C7.9744 27.874 7.95073 27.5955 8.02509 27.3352C8.09946 27.0749 8.26671 26.8509 8.49516 26.7056L8.52821 26.6769C8.57777 26.6483 8.63516 26.6283 8.67951 26.6004L10.2839 25.6126V28.3874L9.44647 28.6856ZM38.7595 36.0917C38.7595 36.2604 38.7263 36.4273 38.6617 36.5831C38.5972 36.7389 38.5026 36.8804 38.3833 36.9996C38.264 37.1188 38.1224 37.2133 37.9666 37.2778C37.8108 37.3422 37.6438 37.3753 37.4752 37.3752H13.6013C13.2611 37.3743 12.9352 37.2388 12.6947 36.9983C12.4542 36.7578 12.3187 36.4318 12.3178 36.0917V22.6769C12.6059 22.8103 12.8847 22.9601 13.1543 23.1265L17.203 25.6483C17.814 26.0324 18.5212 26.2359 19.243 26.2352C20.0824 26.238 20.9 25.9678 21.5724 25.4653C22.2449 24.9627 22.7356 24.2552 22.9707 23.4493C23.2058 22.6435 23.1724 21.783 22.8757 20.9978C22.5789 20.2125 22.0349 19.5451 21.3256 19.0961L19.0943 17.6804H37.4804C37.649 17.6803 37.816 17.7134 37.9718 17.7779C38.1276 17.8423 38.2692 17.9368 38.3885 18.056C38.5078 18.1752 38.6024 18.3168 38.667 18.4725C38.7315 18.6283 38.7647 18.7953 38.7647 18.9639L38.7595 36.0917Z" fill="#00B2E3"/>
<path d="M33.5873 25.6265V23.8526C33.5873 23.3703 33.4923 22.8926 33.3077 22.447C33.1231 22.0014 32.8526 21.5965 32.5115 21.2554C32.1704 20.9143 31.7655 20.6437 31.3199 20.4592C30.8743 20.2746 30.3966 20.1796 29.9143 20.1796H29.3517C28.3778 20.1798 27.4439 20.5668 26.7553 21.2554C26.0667 21.944 25.6797 22.8779 25.6795 23.8517V25.6265C25.0323 25.6904 24.4319 25.9928 23.9952 26.4748C23.5586 26.9568 23.3168 27.584 23.3169 28.2344V31.9561C23.3171 32.6508 23.5933 33.317 24.0846 33.8081C24.5759 34.2993 25.2422 34.5752 25.9369 34.5752H33.3352C34.0299 34.5752 34.6961 34.2993 35.1875 33.8081C35.6788 33.317 35.9549 32.6508 35.9552 31.9561V28.2378C35.956 27.586 35.7139 26.9573 35.2761 26.4744C34.8382 25.9916 34.2361 25.6893 33.5873 25.6265ZM29.3525 22.2196H29.9152C30.3478 22.2203 30.7626 22.3924 31.0685 22.6984C31.3745 23.0043 31.5466 23.4191 31.5473 23.8517V25.6265H27.7186V23.8526C27.7191 23.4198 27.8912 23.0048 28.1971 22.6987C28.5031 22.3926 28.918 22.2203 29.3508 22.2196M33.9117 31.9543C33.9117 32.1082 33.8506 32.2557 33.7418 32.3645C33.633 32.4732 33.4855 32.5343 33.3317 32.5343H25.9352C25.7815 32.5341 25.6342 32.4729 25.5256 32.3642C25.417 32.2554 25.356 32.108 25.356 31.9543V28.2378C25.3583 28.0857 25.4203 27.9407 25.5287 27.8339C25.6371 27.7272 25.7831 27.6674 25.9352 27.6674H33.3334C33.4871 27.6674 33.6345 27.7284 33.7432 27.837C33.852 27.9455 33.9132 28.0928 33.9134 28.2465L33.9117 31.9543ZM35.6369 11.2335C35.6695 11.3634 35.7274 11.4857 35.8072 11.5933C35.8871 11.7009 35.9873 11.7917 36.1023 11.8605C36.2172 11.9293 36.3446 11.9749 36.4771 11.9945C36.6097 12.0141 36.7448 12.0074 36.8747 11.9748C37.0047 11.9422 37.1269 11.8843 37.2345 11.8045C37.3421 11.7246 37.4329 11.6243 37.5017 11.5094C37.5706 11.3945 37.6161 11.2671 37.6357 11.1345C37.6553 11.002 37.6486 10.8669 37.616 10.737C37.1471 8.86363 36.1781 7.15285 34.8126 5.78733C33.4471 4.42181 31.7363 3.45285 29.863 2.98392C29.6022 2.92551 29.329 2.97167 29.1019 3.11247C28.8748 3.25327 28.712 3.47749 28.6483 3.73701C28.5847 3.99652 28.6254 4.27064 28.7616 4.50052C28.8978 4.73039 29.1187 4.8977 29.3769 4.96652C30.8896 5.34761 32.2706 6.13176 33.3729 7.23549C34.4753 8.33921 35.2577 9.72034 35.6369 11.2335ZM28.7795 7.61609C28.6474 7.57281 28.5078 7.55697 28.3694 7.56955C28.2309 7.58212 28.0965 7.62284 27.9743 7.68921C27.8522 7.75558 27.7449 7.8462 27.659 7.95551C27.5731 8.06483 27.5104 8.19054 27.4748 8.32493C27.4393 8.45932 27.4315 8.59956 27.452 8.73706C27.4726 8.87456 27.521 9.00641 27.5943 9.12453C27.6676 9.24266 27.7643 9.34457 27.8783 9.42401C27.9924 9.50345 28.1215 9.55875 28.2578 9.58652C28.9186 9.76394 29.521 10.1123 30.0045 10.5965C30.4879 11.0807 30.8353 11.6837 31.0117 12.3448C31.0428 12.4776 31.1003 12.6028 31.1806 12.7129C31.261 12.8231 31.3627 12.9161 31.4796 12.9863C31.5965 13.0565 31.7263 13.1026 31.8613 13.1217C31.9964 13.1409 32.1339 13.1328 32.2657 13.0979C32.3975 13.063 32.5211 13.0021 32.6289 12.9186C32.7368 12.8351 32.8268 12.7309 32.8937 12.612C32.9606 12.4932 33.0029 12.3621 33.0183 12.2266C33.0336 12.0911 33.0216 11.9538 32.983 11.823C32.7139 10.8142 32.1837 9.89413 31.4457 9.15554C30.7078 8.41695 29.7881 7.88596 28.7795 7.61609Z" fill="#00B2E3"/>
</g>
<defs>
<clipPath id="clip0_14_327">
<rect width="40" height="39.1304" fill="white" transform="translate(0.796875 0.824768)"/>
</clipPath>
</defs>
</svg>
