<svg width="90" height="21" viewBox="0 0 90 21" fill="none" xmlns="http://www.w3.org/2000/svg">
<g clip-path="url(#clip0_14_1333)">
<mask id="mask0_14_1333" style="mask-type:luminance" maskUnits="userSpaceOnUse" x="0" y="0" width="89" height="21">
<path d="M0.199951 0.359863H88.435V20.3599H0.199951V0.359863Z" fill="white"/>
</mask>
<g mask="url(#mask0_14_1333)">
<path d="M86.082 0.359863H2.39395C1.81207 0.359863 1.25401 0.591016 0.842559 1.00247C0.431104 1.41393 0.199951 1.97198 0.199951 2.55386L0.199951 18.1659C0.199951 18.7477 0.431104 19.3058 0.842559 19.7173C1.25401 20.1287 1.81207 20.3599 2.39395 20.3599H86.082C86.706 20.3599 87.3045 20.112 87.7458 19.6707C88.187 19.2294 88.435 18.6309 88.435 18.0069V2.71286C88.435 2.08881 88.187 1.49031 87.7458 1.04904C87.3045 0.607768 86.706 0.359863 86.082 0.359863ZM87.847 18.0069C87.847 18.475 87.661 18.9239 87.33 19.2549C86.999 19.5859 86.5501 19.7719 86.082 19.7719H2.39395C1.96834 19.7708 1.56046 19.6013 1.2595 19.3003C0.958549 18.9994 0.789007 18.5915 0.787951 18.1659V2.55386C0.789007 2.12825 0.958549 1.72037 1.2595 1.41942C1.56046 1.11846 1.96834 0.948919 2.39395 0.947863H86.082C86.5501 0.947863 86.999 1.13382 87.33 1.46482C87.661 1.79582 87.847 2.24476 87.847 2.71286V18.0069Z" fill="white"/>
<path d="M10.2409 6.9707H7.71094V13.3007H8.84094V10.8537H10.2409C11.6529 10.8537 12.5349 10.1707 12.5349 8.9127C12.5349 7.6527 11.6529 6.9707 10.2409 6.9707ZM10.1819 9.9127H8.84194V7.9697H10.1999C11.0119 7.9697 11.4409 8.3167 11.4409 8.9397C11.4409 9.5627 10.9939 9.8817 10.1999 9.8817L10.1819 9.9127ZM14.9639 8.5947C14.6548 8.59139 14.3484 8.65268 14.0644 8.77465C13.7803 8.89661 13.5248 9.07655 13.3143 9.30296C13.1038 9.52936 12.943 9.79723 12.842 10.0894C12.741 10.3816 12.7022 10.6916 12.7279 10.9997C12.7026 11.3083 12.7415 11.6187 12.8423 11.9115C12.943 12.2042 13.1033 12.4729 13.313 12.7006C13.5228 12.9283 13.7775 13.1101 14.0611 13.2344C14.3446 13.3587 14.6508 13.4228 14.9604 13.4228C15.27 13.4228 15.5763 13.3587 15.8598 13.2344C16.1434 13.1101 16.3981 12.9283 16.6078 12.7006C16.8176 12.4729 16.9779 12.2042 17.0786 11.9115C17.1793 11.6187 17.2183 11.3083 17.1929 10.9997C17.2196 10.6919 17.1816 10.382 17.0813 10.0899C16.981 9.79768 16.8207 9.52972 16.6107 9.30321C16.4007 9.0767 16.1456 8.89664 15.8618 8.77462C15.578 8.6526 15.2718 8.59131 14.9629 8.5947M14.9629 12.5177C14.2449 12.5177 13.7859 11.9297 13.7859 10.9997C13.7859 10.0697 14.2329 9.4827 14.9629 9.4827C15.6929 9.4827 16.1389 10.0707 16.1389 10.9997C16.1389 11.9287 15.6739 12.5117 14.9629 12.5117V12.5177ZM21.8349 11.7427L21.0049 8.6727H20.1349L19.3109 11.7427L18.4759 8.6727H17.3879L18.7819 13.3077H19.6989L20.5459 10.2727L21.3929 13.3077H22.3109L23.7049 8.6727H22.6579L21.8349 11.7427ZM26.0799 8.5937C25.7748 8.59949 25.474 8.66722 25.1959 8.79277C24.9177 8.91832 24.6679 9.09907 24.4617 9.32407C24.2555 9.54906 24.0972 9.81361 23.9963 10.1016C23.8955 10.3897 23.8542 10.6952 23.8749 10.9997C23.8504 11.3089 23.8907 11.6199 23.9932 11.9127C24.0957 12.2055 24.2582 12.4737 24.4702 12.7001C24.6823 12.9266 24.9392 13.1063 25.2247 13.2278C25.5101 13.3493 25.8177 13.4099 26.1279 13.4057C26.5544 13.4289 26.9774 13.3177 27.3373 13.0877C27.6972 12.8577 27.9759 12.5205 28.1339 12.1237L27.2569 11.7587C27.1883 11.986 27.0444 12.1832 26.8489 12.3178C26.6533 12.4525 26.4178 12.5166 26.1809 12.4997C26.0122 12.5038 25.8444 12.4736 25.6877 12.411C25.5309 12.3483 25.3886 12.2545 25.2692 12.1352C25.1498 12.0159 25.0558 11.8736 24.9931 11.7169C24.9303 11.5602 24.9 11.3924 24.9039 11.2237H28.1519V10.8707C28.1629 9.6007 27.4459 8.5937 26.0809 8.5937M24.9469 10.4357C24.988 10.1655 25.1257 9.9193 25.3344 9.74278C25.543 9.56627 25.8086 9.47138 26.0819 9.4757C26.2119 9.46462 26.3426 9.48138 26.4656 9.52485C26.5885 9.56832 26.7007 9.63751 26.7948 9.72779C26.8889 9.81807 26.9626 9.92738 27.0111 10.0484C27.0596 10.1695 27.0817 10.2994 27.0759 10.4297L24.9469 10.4357ZM30.0169 9.3587V8.6697H28.9569V13.2987H30.0169V10.8687C30.0076 10.7118 30.0316 10.5548 30.0875 10.4079C30.1433 10.261 30.2296 10.1276 30.3407 10.0164C30.4518 9.90532 30.5852 9.81901 30.7321 9.76321C30.879 9.70741 31.0361 9.68337 31.1929 9.6927C31.3229 9.6827 31.4523 9.6827 31.5809 9.6927V8.6347H31.2809C31.023 8.62197 30.7668 8.68351 30.5427 8.81201C30.3187 8.94052 30.1362 9.1306 30.0169 9.3597M34.0099 8.5937C33.7048 8.59949 33.404 8.66722 33.1259 8.79277C32.8477 8.91832 32.5979 9.09907 32.3917 9.32407C32.1855 9.54906 32.0272 9.81361 31.9263 10.1016C31.8255 10.3897 31.7842 10.6952 31.8049 10.9997C31.7804 11.3089 31.8207 11.6199 31.9232 11.9127C32.0257 12.2055 32.1882 12.4737 32.4002 12.7001C32.6123 12.9266 32.8692 13.1063 33.1546 13.2278C33.4401 13.3493 33.7477 13.4099 34.0579 13.4057C34.4804 13.4238 34.8981 13.3101 35.2532 13.0805C35.6083 12.8508 35.8832 12.5165 36.0399 12.1237L35.1339 11.7767C35.0645 12.0034 34.9203 12.2 34.725 12.3343C34.5296 12.4687 34.2945 12.533 34.0579 12.5167C33.8926 12.5153 33.7293 12.481 33.5773 12.4159C33.4254 12.3508 33.2879 12.2561 33.1729 12.1374C33.0579 12.0186 32.9676 11.8782 32.9074 11.7243C32.8471 11.5703 32.8181 11.406 32.8219 11.2407H36.0819V10.8877C36.0819 9.5997 35.3509 8.5937 34.0099 8.5937ZM32.8759 10.4357C32.9184 10.1676 33.056 9.92379 33.2635 9.7488C33.471 9.57381 33.7345 9.47935 34.0059 9.4827C34.1358 9.47163 34.2665 9.48837 34.3893 9.53178C34.5122 9.57519 34.6243 9.64429 34.7184 9.73446C34.8125 9.82463 34.8862 9.93382 34.9348 10.0547C34.9833 10.1756 35.0055 10.3055 34.9999 10.4357H32.8759ZM39.9419 9.1827C39.7785 8.99131 39.5741 8.83911 39.3439 8.73734C39.1136 8.63556 38.8635 8.58681 38.6119 8.5947C37.3119 8.5947 36.5719 9.6827 36.5719 11.0007C36.5719 12.3177 37.3119 13.4067 38.6119 13.4067C38.8638 13.4159 39.1144 13.3677 39.3449 13.2656C39.5753 13.1636 39.7795 13.0104 39.9419 12.8177V13.3007H40.9999V6.9697H39.9399L39.9419 9.1827ZM39.9419 11.1527C39.9657 11.3205 39.9529 11.4915 39.9045 11.6539C39.8561 11.8164 39.7732 11.9664 39.6615 12.0938C39.5497 12.2213 39.4117 12.3231 39.257 12.3922C39.1023 12.4614 38.9344 12.4964 38.7649 12.4947C37.9949 12.4947 37.5889 11.9067 37.5889 11.0127C37.5889 10.1177 37.9999 9.5297 38.7649 9.5297C39.4179 9.5297 39.9419 10.0067 39.9419 10.8767V11.1527ZM46.8519 8.5947C46.5957 8.58386 46.3404 8.63113 46.1051 8.73296C45.8697 8.83478 45.6604 8.98853 45.4929 9.1827V6.9707H44.4339V13.3007H45.4939V12.8117C45.6577 13.0038 45.8627 13.1565 46.0937 13.2585C46.3246 13.3605 46.5756 13.4091 46.8279 13.4007C48.1229 13.4007 48.8639 12.3067 48.8639 10.9947C48.8639 9.6827 48.1459 8.5947 46.8519 8.5947ZM46.6699 12.4767C46.5005 12.4787 46.3325 12.444 46.1777 12.375C46.0229 12.306 45.8849 12.2043 45.773 12.0769C45.6612 11.9495 45.5783 11.7994 45.53 11.6369C45.4816 11.4745 45.469 11.3035 45.4929 11.1357V10.8597C45.4929 9.9887 45.9869 9.5127 46.6699 9.5127C47.4339 9.5127 47.8459 10.1007 47.8459 10.9947C47.8459 11.8887 47.4049 12.4767 46.6699 12.4767ZM51.3359 11.9247L50.1999 8.6727H49.0819L50.7879 13.1367L50.6109 13.5727C50.5804 13.7214 50.4937 13.8526 50.3689 13.939C50.2441 14.0254 50.0909 14.0604 49.9409 14.0367C49.8234 14.0454 49.7054 14.0454 49.5879 14.0367V14.9247C49.7299 14.946 49.8733 14.956 50.0179 14.9547C50.3851 14.9812 50.7498 14.8778 51.0485 14.6627C51.3472 14.4475 51.5607 14.1343 51.6519 13.7777L53.5579 8.7077H52.4469L51.3359 11.9247ZM73.7299 7.6727C73.4977 7.67099 73.2674 7.71526 73.0524 7.80296C72.8373 7.89066 72.6417 8.02006 72.4769 8.1837L72.3949 7.7777H70.9889V15.3777L72.5889 15.0307V13.1907C72.9069 13.4567 73.3089 13.6027 73.7239 13.6007C74.8649 13.6007 75.9129 12.6667 75.9129 10.5957C75.9129 8.7017 74.8529 7.6727 73.7299 7.6727ZM73.3479 12.1607C73.2076 12.1686 73.0673 12.1452 72.9371 12.0923C72.8068 12.0394 72.69 11.9582 72.5949 11.8547V9.4367C72.6906 9.32959 72.8088 9.24505 72.9411 9.18919C73.0734 9.13334 73.2165 9.10755 73.3599 9.1137C73.9479 9.1137 74.3479 9.7777 74.3479 10.6307C74.3479 11.4837 73.9419 12.1607 73.3479 12.1607ZM78.8639 7.6727C77.3229 7.6727 76.3879 9.0017 76.3879 10.6777C76.3879 12.6607 77.4929 13.6667 79.0699 13.6667C79.6854 13.6766 80.293 13.5286 80.8349 13.2367V11.9137C80.3426 12.1621 79.7973 12.287 79.2459 12.2777C78.6109 12.2777 78.0699 12.0487 77.9869 11.2777H81.1519V10.6897C81.2049 9.0017 80.4049 7.6727 78.8639 7.6727ZM77.9989 10.0667C77.9989 9.3247 78.4519 9.0137 78.8519 9.0137C79.2519 9.0137 79.6759 9.3247 79.6759 10.0667H77.9989ZM66.6729 8.2197L66.5729 7.7377H65.2079V13.4487H66.7839V9.5797C66.9263 9.40685 67.1181 9.28158 67.3336 9.22065C67.5491 9.15971 67.7781 9.16601 67.9899 9.2387V7.7387C67.7493 7.64456 67.4825 7.64159 67.2397 7.73035C66.997 7.81911 66.7951 7.99349 66.6719 8.2207M58.7039 9.4547C58.7039 9.1957 58.9159 9.0957 59.2509 9.0957C59.8068 9.10882 60.3515 9.25416 60.8399 9.5197V7.9727C60.3354 7.7682 59.7953 7.66622 59.2509 7.6727C57.9509 7.6727 57.0869 8.3667 57.0869 9.5317C57.0869 11.3547 59.5219 11.0607 59.5219 11.8427C59.5219 12.1487 59.2629 12.2487 58.9339 12.2487C58.3124 12.2118 57.708 12.0303 57.1689 11.7187V13.3017C57.724 13.5508 58.3256 13.6793 58.9339 13.6787C60.2639 13.6787 61.1809 13.0017 61.1809 11.8187C61.1509 9.8427 58.7039 10.1957 58.7039 9.4547ZM63.3069 6.3827L61.7469 6.7247V11.9777C61.739 12.1991 61.7763 12.4199 61.8566 12.6264C61.9368 12.8329 62.0583 13.0209 62.2137 13.1789C62.3691 13.3369 62.555 13.4615 62.7602 13.5452C62.9653 13.6289 63.1854 13.6699 63.4069 13.6657C63.7929 13.6827 64.1779 13.6087 64.5299 13.4477V12.1247C64.3239 12.2127 63.3179 12.5127 63.3179 11.5357V9.1827H64.5299V7.8067H63.3179L63.3069 6.3827ZM68.5829 7.2427L70.1889 6.9077V5.6377L68.5829 5.9727V7.2427ZM70.1889 7.7777H68.5829V13.4477H70.1889V7.7777Z" fill="white"/>
</g>
</g>
<defs>
<clipPath id="clip0_14_1333">
<rect width="89" height="20" fill="white" transform="translate(0.199951 0.359863)"/>
</clipPath>
</defs>
</svg>
