<svg xmlns="http://www.w3.org/2000/svg" width="89" height="20" fill="none"><clipPath id="a"><path d="M0 0h88.235v20H0z"/></clipPath><g fill="#fff" clip-path="url(#a)"><path d="M85.882 0H2.194A2.194 2.194 0 0 0 0 2.194v15.612A2.194 2.194 0 0 0 2.194 20h83.688a2.353 2.353 0 0 0 2.353-2.353V2.353A2.353 2.353 0 0 0 85.882 0m1.765 17.647a1.765 1.765 0 0 1-1.765 1.765H2.194a1.61 1.61 0 0 1-1.606-1.606V2.194A1.61 1.61 0 0 1 2.194.588h83.688a1.765 1.765 0 0 1 1.765 1.765z"/><path d="M10.041 6.611h-2.53v6.33h1.13v-2.447h1.4c1.412 0 2.294-.683 2.294-1.941 0-1.26-.882-1.942-2.294-1.942m-.059 2.942h-1.34V7.61H10c.812 0 1.241.347 1.241.97s-.447.942-1.241.942zm4.782-1.318a2.22 2.22 0 0 0-2.236 2.405 2.24 2.24 0 1 0 4.465 0 2.214 2.214 0 0 0-2.23-2.405m0 3.923c-.718 0-1.177-.588-1.177-1.518s.447-1.517 1.177-1.517 1.176.588 1.176 1.517-.465 1.512-1.176 1.512zm6.872-.775-.83-3.07h-.87l-.824 3.07-.835-3.07h-1.088l1.394 4.635h.917l.847-3.035.847 3.035h.918l1.394-4.635h-1.047zm4.245-3.149a2.253 2.253 0 0 0-2.205 2.406 2.23 2.23 0 0 0 2.253 2.406 2.04 2.04 0 0 0 2.006-1.282l-.877-.365a1.046 1.046 0 0 1-1.076.741 1.247 1.247 0 0 1-1.277-1.276h3.248v-.353c.011-1.27-.706-2.277-2.071-2.277m-1.134 1.842a1.13 1.13 0 0 1 1.135-.96.917.917 0 0 1 .994.954zm5.07-1.077V8.31h-1.06v4.629h1.06v-2.43a1.112 1.112 0 0 1 1.176-1.176q.195-.015.388 0V8.275h-.3A1.35 1.35 0 0 0 29.817 9m3.993-.766a2.253 2.253 0 0 0-2.205 2.406 2.23 2.23 0 0 0 2.253 2.406 2.04 2.04 0 0 0 1.982-1.282l-.906-.347a1.05 1.05 0 0 1-1.076.74 1.247 1.247 0 0 1-1.236-1.276h3.26v-.353c0-1.288-.73-2.294-2.071-2.294m-1.135 1.842a1.13 1.13 0 0 1 1.13-.953.917.917 0 0 1 .994.953zm7.066-1.253a1.68 1.68 0 0 0-1.33-.588c-1.3 0-2.04 1.088-2.04 2.406 0 1.317.74 2.406 2.04 2.406a1.66 1.66 0 0 0 1.33-.589v.483H40.8V6.61h-1.06zm0 1.97a1.177 1.177 0 0 1-1.177 1.342c-.77 0-1.176-.588-1.176-1.482 0-.895.411-1.483 1.176-1.483.653 0 1.177.477 1.177 1.347zm6.91-2.558a1.7 1.7 0 0 0-1.359.588V6.611h-1.059v6.33h1.06v-.489a1.68 1.68 0 0 0 1.334.589c1.295 0 2.036-1.094 2.036-2.406s-.718-2.4-2.012-2.4m-.182 3.882a1.175 1.175 0 0 1-1.177-1.341V10.5c0-.871.494-1.347 1.177-1.347.764 0 1.176.588 1.176 1.482s-.441 1.482-1.176 1.482m4.666-.552L50 8.313h-1.118l1.706 4.464-.177.436a.59.59 0 0 1-.67.464 2.4 2.4 0 0 1-.353 0v.888q.213.032.43.03a1.57 1.57 0 0 0 1.634-1.177l1.906-5.07h-1.111zM73.53 7.313a1.76 1.76 0 0 0-1.253.511l-.082-.406h-1.406v7.6l1.6-.347v-1.84c.318.266.72.412 1.135.41 1.141 0 2.189-.934 2.189-3.005 0-1.894-1.06-2.923-2.183-2.923m-.382 4.488a.95.95 0 0 1-.753-.306V9.077a.97.97 0 0 1 .765-.323c.588 0 .988.664.988 1.517s-.406 1.53-1 1.53m5.516-4.488c-1.541 0-2.476 1.329-2.476 3.005 0 1.983 1.105 2.989 2.682 2.989a3.6 3.6 0 0 0 1.765-.43v-1.323a3.4 3.4 0 0 1-1.589.364c-.635 0-1.176-.229-1.259-1h3.165v-.588c.053-1.688-.747-3.017-2.288-3.017m-.865 2.394c0-.742.453-1.053.853-1.053s.824.311.824 1.053zM66.473 7.86l-.1-.482h-1.365v5.711h1.576V9.22a1.1 1.1 0 0 1 1.206-.341v-1.5a1.06 1.06 0 0 0-1.318.482m-7.968 1.234c0-.259.212-.359.547-.359a3.5 3.5 0 0 1 1.589.424V7.613a4.1 4.1 0 0 0-1.589-.3c-1.3 0-2.164.694-2.164 1.859 0 1.823 2.435 1.529 2.435 2.311 0 .306-.259.406-.588.406a4 4 0 0 1-1.765-.53v1.583a4.3 4.3 0 0 0 1.765.377c1.33 0 2.247-.677 2.247-1.86-.03-1.976-2.477-1.623-2.477-2.364m4.603-3.072-1.56.342v5.253a1.63 1.63 0 0 0 1.66 1.688c.386.017.771-.057 1.123-.218v-1.323c-.206.088-1.212.388-1.212-.589V8.823h1.212V7.447h-1.212zm5.276.86 1.606-.335v-1.27l-1.606.335zm1.606.535h-1.606v5.67h1.606z"/></g></svg>