<svg width="40" height="26" viewBox="0 0 40 26" fill="none" xmlns="http://www.w3.org/2000/svg">
<g clip-path="url(#clip0_14_1431)">
<g clip-path="url(#clip1_14_1431)">
<g clip-path="url(#clip2_14_1431)">
<mask id="mask0_14_1431" style="mask-type:luminance" maskUnits="userSpaceOnUse" x="0" y="0" width="39" height="26">
<path d="M0.199951 0.859863H38.875V25.8599H0.199951V0.859863Z" fill="white"/>
</mask>
<g mask="url(#mask0_14_1431)">
<path d="M7.77387 0.859863H17.4269C18.7729 0.859863 19.6129 1.99386 19.2969 3.39486L14.8029 23.3299C14.4859 24.7259 13.1359 25.8599 11.7899 25.8599H2.13687C0.789867 25.8599 -0.0501333 24.7259 0.266867 23.3299L4.75987 3.39486C5.07287 1.99486 6.42287 0.859863 7.77387 0.859863Z" fill="#ED171F"/>
<path d="M16.622 0.859863H27.72C29.067 0.859863 28.461 1.99386 28.145 3.39486L23.651 23.3299C23.334 24.7259 23.434 25.8599 22.083 25.8599H10.985C9.63398 25.8599 8.79798 24.7259 9.11498 23.3299L13.609 3.39486C13.925 1.99486 15.276 0.859863 16.622 0.859863Z" fill="#082F67"/>
<path d="M27.282 0.859863H36.935C38.281 0.859863 39.121 1.99386 38.805 3.39486L34.311 23.3299C33.995 24.7259 32.648 25.8599 31.293 25.8599H21.645C20.295 25.8599 19.459 24.7259 19.775 23.3299L24.269 3.39486C24.585 1.99486 25.932 0.859863 27.282 0.859863Z" fill="#006A65"/>
<path fill-rule="evenodd" clip-rule="evenodd" d="M25.6732 19.6139H26.5812L26.8432 18.7079H25.9352L25.6732 19.6139ZM26.4002 17.1209L26.0882 18.1899C26.0882 18.1899 26.4312 18.0079 26.6212 17.9519C26.8062 17.9049 27.0912 17.8719 27.0912 17.8719L27.3122 17.1259H26.4042L26.4002 17.1209ZM26.8522 15.5809L26.5492 16.6079C26.5492 16.6079 26.8882 16.4479 27.0732 16.3979C27.2582 16.3459 27.5432 16.3279 27.5432 16.3279L27.7602 15.5809H26.8522ZM28.8662 15.5809L27.6922 19.6039H28.0082L27.7642 20.4349H27.4482L27.3762 20.6919H26.2562L26.3322 20.4349H24.0552L24.2852 19.6649H24.5162L25.7092 15.5809L25.9492 14.7549H27.0912L26.9742 15.1699C26.9742 15.1699 27.2762 14.9409 27.5652 14.8669C27.8552 14.7869 29.5082 14.7589 29.5082 14.7589L29.2642 15.5759H28.8712L28.8662 15.5809Z" fill="white"/>
<path d="M29.3721 14.7601H30.5921L30.6051 15.2321C30.5961 15.3121 30.6641 15.3481 30.8041 15.3481H31.0521L30.8261 16.1231H30.1661C29.5981 16.1651 29.3811 15.9131 29.3941 15.6291L29.3721 14.7601ZM29.5271 18.4391H28.3671L28.5651 17.7491H29.8931L30.0831 17.1181H28.7731L28.9991 16.3381H32.6491L32.4191 17.1181H31.1941L31.0041 17.7481H32.2341L32.0301 18.4391H30.7021L30.4671 18.7291H31.0041L31.1351 19.5971C31.1491 19.6811 31.1541 19.7371 31.1761 19.7741C31.2031 19.8071 31.3661 19.8211 31.4561 19.8211H31.6191L31.3701 20.6651H30.9551C30.8931 20.6651 30.7964 20.6604 30.6651 20.6511C30.5391 20.6421 30.4531 20.5671 30.3681 20.5251C30.3117 20.4962 30.2627 20.4546 30.225 20.4036C30.1874 20.3526 30.1621 20.2935 30.1511 20.2311L30.0201 19.3631L29.4191 20.2171C29.2291 20.4881 28.9671 20.6931 28.5291 20.6931H27.6841L27.9061 19.9371H28.2311C28.314 19.9336 28.3948 19.9095 28.4661 19.8671C28.5403 19.8351 28.603 19.7814 28.6461 19.7131L29.5231 18.4341L29.5271 18.4391ZM16.8051 16.5481H19.8811L19.6551 17.3081H18.4271L18.2371 17.9521H19.4971L19.2671 18.7371H18.0101L17.7081 19.7871C17.6711 19.9041 18.0061 19.9171 18.1281 19.9171L18.7601 19.8291L18.5071 20.6971H17.0901C16.9816 20.6949 16.8737 20.6791 16.7691 20.6501C16.7218 20.6392 16.6774 20.6187 16.6385 20.5898C16.5996 20.5609 16.5671 20.5242 16.5431 20.4821C16.4931 20.3981 16.4131 20.3281 16.4661 20.1421L16.8731 18.7511H16.1731L16.4031 17.9531H17.1081L17.2931 17.3081H16.5931L16.8191 16.5481H16.8051ZM18.8781 15.1861H20.1381L19.9081 15.9791H18.1831L17.9971 16.1471C17.9171 16.2271 17.8891 16.1941 17.7851 16.2541C17.6851 16.3061 17.4821 16.4041 17.2151 16.4041H16.6651L16.8911 15.6381H17.0581C17.1981 15.6387 17.2928 15.6234 17.3421 15.5921C17.4219 15.5243 17.4854 15.4396 17.5281 15.3441L17.8441 14.7471H19.1001L18.8781 15.1811V15.1861Z" fill="white"/>
<path fill-rule="evenodd" clip-rule="evenodd" d="M21.297 16.4918C21.297 16.4918 21.641 16.1648 22.232 16.0618C22.368 16.0348 23.204 16.0438 23.204 16.0438L23.33 15.6098H21.555L21.297 16.4918ZM22.96 16.8228H21.198L21.09 17.1928H22.616C22.797 17.1688 22.833 17.1928 22.846 17.1878L22.96 16.8228ZM20.679 14.7598H21.754L21.596 15.3198C21.596 15.3198 21.934 15.0398 22.174 14.9418C22.409 14.8488 22.946 14.7698 22.946 14.7698L24.686 14.7598L24.094 16.7998C23.994 17.1498 23.877 17.3738 23.804 17.4768C23.7319 17.5937 23.631 17.6901 23.511 17.7568C23.3656 17.8368 23.2316 17.8834 23.109 17.8968C22.991 17.9068 22.815 17.9108 22.571 17.9108H20.895L20.421 19.5258C20.376 19.6848 20.353 19.7588 20.385 19.8058C20.4035 19.8318 20.4279 19.8529 20.4563 19.8675C20.4846 19.8822 20.5161 19.8898 20.548 19.8898L21.284 19.8198L21.031 20.7068H20.204C19.9426 20.7074 19.747 20.7011 19.617 20.6878C19.491 20.6788 19.355 20.6878 19.269 20.6178C19.192 20.5478 19.075 20.4548 19.075 20.3618C19.083 20.2718 19.1163 20.1271 19.175 19.9278L20.679 14.7648V14.7598Z" fill="white"/>
<path d="M23.8151 18.056L23.7151 18.546C23.6711 18.7 23.6351 18.816 23.5221 18.915C23.4041 19.018 23.2641 19.125 22.9431 19.125L22.3471 19.148V19.704C22.3341 19.862 22.3741 19.844 22.4011 19.872C22.4281 19.9 22.4511 19.909 22.4781 19.918L22.6681 19.909L23.2371 19.876L23.0021 20.684H22.3471C21.8911 20.684 21.5471 20.674 21.4391 20.581C21.3311 20.511 21.3171 20.418 21.3171 20.264L21.3571 18.103H22.4011L22.3881 18.542H22.6411C22.7271 18.542 22.7811 18.532 22.8211 18.509C22.8551 18.4789 22.8803 18.4402 22.8941 18.397L22.9931 18.051H23.8151V18.056ZM8.91706 7.23096L8.20706 10.601C8.06306 11.245 7.95906 11.712 7.60206 12.006C7.40419 12.1766 7.15028 12.2681 6.88906 12.263C6.45106 12.263 6.19306 12.039 6.14806 11.609L6.13806 11.465L6.27406 10.596C6.27406 10.596 6.97906 7.68396 7.10106 7.30096C7.10606 7.27796 7.11106 7.26796 7.11106 7.25896C5.74106 7.27296 5.49706 7.25896 5.48406 7.23996C5.46719 7.30954 5.45218 7.37957 5.43906 7.44996L4.72006 10.727L4.65606 11.007L4.53906 11.917C4.53906 12.188 4.58906 12.407 4.69206 12.594C5.02206 13.187 5.95206 13.276 6.48206 13.276C7.16306 13.276 7.80006 13.126 8.22906 12.856C8.97906 12.398 9.17306 11.684 9.34906 11.049L9.43106 10.723C9.43106 10.723 10.1541 7.69796 10.2811 7.30596C10.2811 7.28196 10.2851 7.27296 10.2891 7.26396C9.29506 7.27396 9.00606 7.26396 8.91106 7.24496M12.9231 13.23C12.5149 13.222 12.1066 13.2297 11.6991 13.253L11.6761 13.21C11.7261 12.986 11.7801 12.767 11.8301 12.543L11.8971 12.24C12.0011 11.763 12.1051 11.213 12.1191 11.045C12.1281 10.942 12.1591 10.69 11.8841 10.69C11.7661 10.69 11.6441 10.75 11.5181 10.807C11.4501 11.059 11.3101 11.768 11.2471 12.095C11.1071 12.776 11.0971 12.855 11.0351 13.192L10.9941 13.234C10.5769 13.2263 10.1596 13.2339 9.74306 13.257L9.71606 13.206C9.81006 12.8 9.91006 12.394 10.0001 11.988C10.2401 10.891 10.2981 10.471 10.3661 9.90996L10.4111 9.87796C10.9711 9.79796 11.1071 9.77996 11.7171 9.64896L11.7671 9.70896L11.6761 10.059C11.7801 9.99896 11.8751 9.93396 11.9831 9.87796C12.2269 9.75905 12.4938 9.69521 12.7651 9.69096C13.0311 9.69096 13.3201 9.77096 13.4421 10.088C13.5601 10.373 13.4821 10.723 13.3291 11.408L13.2521 11.758C13.0941 12.524 13.0721 12.664 12.9861 13.192L12.9271 13.234L12.9231 13.23ZM14.8921 13.23C14.5981 13.23 14.4131 13.225 14.2281 13.23C14.0481 13.23 13.8671 13.24 13.5961 13.253L13.5771 13.23L13.5591 13.207C13.6321 12.917 13.6771 12.815 13.7131 12.712C13.7491 12.609 13.7851 12.507 13.8491 12.212C13.9341 11.83 13.9841 11.559 14.0251 11.326C14.0651 11.096 14.0831 10.906 14.1151 10.682L14.1381 10.662L14.1601 10.639C14.6107 10.5752 15.0596 10.4992 15.5061 10.411L15.5201 10.439L15.5291 10.467C15.4751 10.705 15.4161 10.943 15.3621 11.186C15.3081 11.429 15.2531 11.662 15.1991 11.9C15.0911 12.404 15.0461 12.595 15.0191 12.726C14.9961 12.856 14.9871 12.926 14.9421 13.188L14.9151 13.211L14.8871 13.23H14.8921ZM17.9881 11.447C17.9611 11.577 17.8531 12.063 17.7031 12.268C17.6001 12.418 17.4781 12.511 17.3381 12.511C17.2971 12.511 17.0581 12.511 17.0531 12.142C17.0531 11.96 17.0851 11.774 17.1301 11.572C17.2561 10.989 17.4101 10.499 17.7941 10.499C18.0961 10.499 18.1141 10.863 17.9881 11.451M19.2531 11.503C19.4241 10.733 19.2931 10.369 19.1261 10.149C18.8731 9.81796 18.4261 9.70596 17.9611 9.70596C17.6811 9.70596 17.0211 9.73396 16.5021 10.228C16.1321 10.583 15.9551 11.068 15.8521 11.531C15.7481 12.002 15.6261 12.856 16.3841 13.169C16.6191 13.272 16.9541 13.299 17.1701 13.299C17.7261 13.299 18.2951 13.141 18.7201 12.674C19.0501 12.296 19.2031 11.731 19.2531 11.498M31.1221 13.28C30.69 13.2726 30.2577 13.2793 29.8261 13.3L29.7901 13.253C29.9391 12.679 30.0881 12.105 30.2141 11.521C30.3861 10.765 30.4221 10.448 30.4811 10.004L30.5261 9.96696C30.9779 9.90371 31.428 9.82902 31.8761 9.74296L31.8951 9.79396C31.7831 10.2666 31.6731 10.7413 31.5651 11.218C31.3441 12.212 31.2621 12.721 31.1771 13.238L31.1221 13.28Z" fill="white"/>
<path d="M30.2429 11.5119C30.2159 11.6329 30.1029 12.1229 29.9539 12.3289C29.8539 12.4729 29.6199 12.5669 29.4839 12.5669C29.4439 12.5669 29.2089 12.5669 29.1999 12.2029C29.1999 12.0249 29.2359 11.8329 29.2809 11.6329C29.4079 11.0589 29.5609 10.5729 29.9449 10.5729C30.2479 10.5729 30.3789 10.9279 30.2479 11.5159M31.4039 11.5719C31.5759 10.8069 30.8889 11.5069 30.7809 11.2499C30.6139 10.8539 30.7179 10.0549 30.0449 9.78491C29.7869 9.68191 29.1769 9.81691 28.6579 10.3069C28.2879 10.6619 28.1159 11.1379 28.0119 11.5999C27.9079 12.0669 27.7859 12.9169 28.5399 13.2199C28.7799 13.3229 28.9969 13.3549 29.2129 13.3459C29.9729 13.3039 30.5459 12.1229 30.9749 11.6559C31.3049 11.2879 31.3639 11.7959 31.4129 11.5719M22.5709 13.2299C22.0829 13.2249 21.9209 13.2249 21.3469 13.2529L21.3249 13.2099C21.3749 12.9859 21.4279 12.7669 21.4779 12.5429L21.5459 12.2399C21.6499 11.7629 21.7539 11.2129 21.7669 11.0449C21.7769 10.9419 21.8069 10.6899 21.5319 10.6899C21.4099 10.6899 21.2919 10.7499 21.1659 10.8069C21.0989 11.0589 20.9589 11.7679 20.8909 12.0949C20.7509 12.7759 20.7409 12.8549 20.6789 13.1919L20.6379 13.2339C20.2221 13.2263 19.8062 13.234 19.3909 13.2569L19.3639 13.2059C19.4599 12.7999 19.5533 12.3939 19.6439 11.9879C19.8839 10.8909 19.9419 10.4709 20.0099 9.90991L20.0549 9.87791C20.6149 9.79791 20.7509 9.77991 21.3609 9.64891L21.4109 9.70891L21.3249 10.0589C21.4239 9.99891 21.5279 9.93391 21.6269 9.87791C21.8692 9.75971 22.1344 9.69589 22.4039 9.69091C22.6709 9.69091 22.9599 9.77091 23.0859 10.0879C23.1989 10.3729 23.1219 10.7229 22.9689 11.4079L22.8919 11.7579C22.7339 12.5239 22.7069 12.6639 22.6249 13.1919L22.5669 13.2339L22.5709 13.2299ZM26.7779 7.21991L26.3759 7.22591C25.3279 7.23991 24.9079 7.22991 24.7319 7.21191L24.6859 7.43091L24.3109 9.23291C24.3109 9.23291 23.4119 13.0599 23.3709 13.2429C24.2889 13.2329 24.6639 13.2329 24.8209 13.2469L25.0709 11.9959C25.0709 11.9959 25.2509 11.2119 25.2639 11.1839C25.2639 11.1839 25.3189 11.1039 25.3769 11.0719H25.4589C26.2489 11.0719 27.1439 11.0719 27.8389 10.5399C28.3139 10.1759 28.6429 9.63891 28.7829 8.98491C28.8239 8.82691 28.8509 8.63091 28.8509 8.44391C28.8509 8.19191 28.8009 7.94391 28.6609 7.75291C28.3039 7.23491 27.5949 7.22991 26.7729 7.22591M27.3019 9.09691C27.2159 9.49391 26.9669 9.83491 26.6419 9.99291C26.3759 10.1329 26.0499 10.1429 25.7159 10.1429H25.4999L25.5179 10.0539C25.5179 10.0539 25.9199 8.25691 25.9159 8.26191L25.9289 8.16791L25.9389 8.09791L26.0969 8.11791C26.0969 8.11791 26.9189 8.19191 26.9409 8.19191C27.2669 8.31791 27.4019 8.65891 27.3069 9.09691M35.9189 9.73791L35.8729 9.68591C35.2769 9.80791 35.1639 9.83091 34.6129 9.90591L34.5729 9.94791C34.5729 9.94791 34.5729 9.96591 34.5679 9.97591V9.96591C34.1569 10.9459 34.1659 10.7319 33.8319 11.5019V11.4089L33.7509 9.74191L33.6959 9.69091C33.0679 9.81191 33.0549 9.83591 32.4719 9.91091L32.4269 9.95191C32.4269 9.95191 32.4229 9.99391 32.4169 10.0179V10.0269C32.4949 10.4099 32.4769 10.3259 32.5489 10.9269C32.5849 11.2219 32.6259 11.5249 32.6619 11.8149C32.7209 12.3049 32.7519 12.5469 32.8199 13.2949C32.4319 13.9619 32.3369 14.2179 31.9619 14.8019L31.9799 14.8529C32.5439 14.8299 32.6749 14.8299 33.0949 14.8299L33.1849 14.7229C33.5019 14.0179 35.9149 9.73791 35.9149 9.73791M15.4249 10.1519C15.7449 9.92291 15.7859 9.60191 15.5149 9.43791C15.2399 9.26991 14.7609 9.32591 14.4399 9.55491C14.1149 9.78291 14.0789 10.1009 14.3499 10.2689C14.6199 10.4319 15.0999 10.3849 15.4249 10.1519Z" fill="white"/>
<path d="M33.1461 14.7789L32.6761 15.6139C32.5271 15.8989 32.2521 16.1139 31.8091 16.1139L31.0591 16.0999L31.2761 15.3479H31.4211C31.4811 15.3519 31.5413 15.3424 31.5971 15.3199C31.6331 15.3059 31.6601 15.2779 31.6921 15.2309L31.9671 14.7739H33.1421L33.1461 14.7789Z" fill="white"/>
</g>
</g>
</g>
</g>
<defs>
<clipPath id="clip0_14_1431">
<rect width="39" height="25" fill="white" transform="translate(0.199951 0.859863)"/>
</clipPath>
<clipPath id="clip1_14_1431">
<rect width="39" height="25" fill="white" transform="translate(0.199951 0.859863)"/>
</clipPath>
<clipPath id="clip2_14_1431">
<rect width="39" height="25" fill="white" transform="translate(0.199951 0.859863)"/>
</clipPath>
</defs>
</svg>
