<svg width="39" height="26" viewBox="0 0 39 26" fill="none" xmlns="http://www.w3.org/2000/svg">
<g clip-path="url(#clip0_14_1341)">
<g clip-path="url(#clip1_14_1341)">
<g clip-path="url(#clip2_14_1341)">
<mask id="mask0_14_1341" style="mask-type:luminance" maskUnits="userSpaceOnUse" x="0" y="0" width="38" height="26">
<path d="M0.199951 0.859863H37.297V25.8599H0.199951V0.859863Z" fill="white"/>
</mask>
<g mask="url(#mask0_14_1341)">
<mask id="mask1_14_1341" style="mask-type:luminance" maskUnits="userSpaceOnUse" x="0" y="0" width="38" height="26">
<path d="M34.0709 0.859863H3.42595C1.64395 0.859863 0.199951 2.35186 0.199951 4.19286V22.5269C0.199951 24.3669 1.64395 25.8599 3.42595 25.8599H34.07C35.852 25.8599 37.296 24.3679 37.296 22.5269V4.19286C37.297 2.35286 35.854 0.859863 34.0709 0.859863Z" fill="white"/>
</mask>
<g mask="url(#mask1_14_1341)">
<path d="M34.0709 0.859863H3.42595C1.64395 0.859863 0.199951 2.35186 0.199951 4.19286V22.5269C0.199951 24.3669 1.64395 25.8599 3.42595 25.8599H34.07C35.852 25.8599 37.296 24.3679 37.296 22.5269V4.19286C37.297 2.35286 35.854 0.859863 34.0709 0.859863Z" fill="white" stroke="#DADBD2" stroke-width="2"/>
</g>
<path fill-rule="evenodd" clip-rule="evenodd" d="M14.042 8.55062L14.02 8.61062L9.97999 18.5356C9.93332 18.647 9.88799 18.7586 9.84399 18.8706C9.83399 18.8986 9.81999 18.9106 9.78899 18.9106H7.11999C7.08499 18.9106 7.07399 18.9016 7.06599 18.8686L5.76999 13.7016L4.98199 10.5696C4.95876 10.4879 4.93207 10.4071 4.90199 10.3276C4.82636 10.1052 4.67484 9.9165 4.47399 9.79463C4.25419 9.66564 4.02486 9.55365 3.78799 9.45963C3.16799 9.21063 2.52799 9.01263 1.87799 8.86763L1.81299 8.84962V8.82762C1.83232 8.75096 1.84999 8.67262 1.86599 8.59262C1.87199 8.55762 1.88599 8.54962 1.91799 8.54962C3.37532 8.55096 4.83299 8.55096 6.29099 8.54962C6.87399 8.54962 7.38099 8.94262 7.50399 9.60462C7.69199 10.6196 7.87399 11.6356 8.05999 12.6506L8.55799 15.3676L8.59999 15.5996L8.62499 15.5456L11.289 8.60063C11.305 8.56263 11.321 8.54962 11.362 8.54962H14.04L14.042 8.55062ZM33.958 18.5616L34.031 18.8976V18.9056L33.163 18.9076H31.673C31.645 18.9076 31.623 18.9096 31.617 18.8696L31.322 17.4106C31.314 17.3696 31.298 17.3586 31.266 17.3586H28.023C27.985 17.3586 27.968 17.3666 27.954 17.3996L27.449 18.8496C27.435 18.8836 27.419 18.8996 27.376 18.8996H24.7L24.716 18.8496L25.756 16.2836C26.7007 13.9663 27.643 11.6496 28.583 9.33362C28.777 8.84962 29.201 8.51662 29.753 8.52462C30.304 8.53362 30.854 8.52462 31.406 8.52462H31.892C31.922 8.52462 31.932 8.53362 31.941 8.56262C32.007 8.90262 32.076 9.23762 32.145 9.57662L32.58 11.7186L33.048 14.0296L33.524 16.3486L33.967 18.5316L33.958 18.5616ZM24.813 15.2496C24.873 16.0156 24.711 16.7246 24.284 17.3626C23.974 17.8246 23.564 18.1706 23.087 18.4346C22.611 18.6941 22.0959 18.8745 21.562 18.9686C21.2412 19.0243 20.9172 19.0604 20.592 19.0766C20.576 19.0766 20.56 19.0846 20.544 19.0846H20.114C20.018 19.0766 19.919 19.0766 19.821 19.0686C19.061 19.0186 18.313 18.8936 17.593 18.6186C17.5388 18.6008 17.4863 18.5784 17.436 18.5516C17.412 18.5436 17.404 18.5346 17.409 18.5016L17.732 16.9516L17.869 16.2766L17.917 16.3016C18.248 16.4656 18.587 16.6186 18.95 16.7246C19.288 16.8296 19.643 16.8986 19.998 16.9166C20.232 16.93 20.466 16.9323 20.7 16.9236C21.03 16.9066 21.345 16.8296 21.635 16.6536C21.812 16.5446 21.965 16.4036 22.038 16.1946C22.0908 16.0532 22.1014 15.8995 22.0685 15.7522C22.0357 15.6049 21.9608 15.4702 21.853 15.3646C21.6877 15.1947 21.4971 15.0513 21.288 14.9396C21.022 14.7896 20.75 14.6476 20.482 14.5056C20.058 14.2756 19.655 14.0186 19.304 13.6836C18.982 13.3796 18.724 13.0296 18.579 12.5996C18.4715 12.2752 18.4317 11.9321 18.462 11.5916C18.498 11.1116 18.638 10.666 18.882 10.2546C19.152 9.80463 19.512 9.45262 19.942 9.17062C20.423 8.8632 20.9561 8.64598 21.515 8.52962C21.8644 8.45475 22.2198 8.41125 22.577 8.39962C22.597 8.39896 22.6157 8.39596 22.633 8.39062H23.064C23.142 8.39796 23.2173 8.40362 23.29 8.40762C23.957 8.45362 24.614 8.59762 25.242 8.83462C25.274 8.84462 25.288 8.85563 25.279 8.89363C25.131 9.60029 24.9843 10.3056 24.839 11.0096L24.83 11.0416L24.677 10.9666C24.2151 10.7659 23.7256 10.6361 23.225 10.5816C22.9061 10.5431 22.5838 10.5431 22.265 10.5816C21.97 10.6236 21.688 10.7066 21.451 10.9046C21.3735 10.9637 21.3087 11.0376 21.2603 11.1221C21.2118 11.2066 21.1808 11.3 21.169 11.3966C21.1523 11.5425 21.1896 11.6894 21.274 11.8096C21.364 11.9506 21.492 12.0596 21.623 12.1536C21.875 12.3366 22.15 12.4786 22.423 12.6286C22.81 12.8366 23.2 13.0466 23.56 13.3116C23.899 13.5546 24.205 13.8386 24.431 14.2036C24.6403 14.5283 24.7613 14.8866 24.794 15.2786L24.813 15.2496ZM17.763 8.55463L17.703 8.84462C17.5137 9.75863 17.3237 10.6723 17.133 11.5856L16.556 14.3656L16 17.0596L15.629 18.8706C15.629 18.8956 15.62 18.9106 15.589 18.9106H13.016L13.064 18.6846L13.653 15.8596L14.225 13.1266L14.774 10.4846L15.161 8.60162C15.169 8.56862 15.177 8.55962 15.209 8.55962H17.725C17.741 8.55962 17.75 8.55962 17.765 8.56862L17.763 8.55463ZM28.716 15.2396H30.879L30.094 11.3626H30.083L28.717 15.2376L28.716 15.2396Z" fill="url(#paint0_linear_14_1341)"/>
</g>
</g>
</g>
</g>
<defs>
<linearGradient id="paint0_linear_14_1341" x1="98.048" y1="487.618" x2="34.031" y2="487.618" gradientUnits="userSpaceOnUse">
<stop stop-color="#10155F"/>
<stop offset="1" stop-color="#00229B"/>
</linearGradient>
<clipPath id="clip0_14_1341">
<rect width="38" height="25" fill="white" transform="translate(0.199951 0.859863)"/>
</clipPath>
<clipPath id="clip1_14_1341">
<rect width="38" height="25" fill="white" transform="translate(0.199951 0.859863)"/>
</clipPath>
<clipPath id="clip2_14_1341">
<rect width="38" height="25" fill="white" transform="translate(0.199951 0.859863)"/>
</clipPath>
</defs>
</svg>
