<svg xmlns="http://www.w3.org/2000/svg" width="38" height="25" fill="none"><linearGradient id="d" x1="97.848" x2="33.831" y1="486.758" y2="486.758" gradientUnits="userSpaceOnUse"><stop offset="0" stop-color="#10155f"/><stop offset="1" stop-color="#00229b"/></linearGradient><clipPath id="a"><path d="M0 0h37.097v25H0z"/></clipPath><mask id="b" width="38" height="25" x="0" y="0" maskUnits="userSpaceOnUse"><path fill="#fff" d="M33.871 0H3.226C1.444 0 0 1.492 0 3.333v18.334C0 23.507 1.444 25 3.226 25H33.87c1.782 0 3.226-1.492 3.226-3.333V3.333C37.097 1.493 35.653 0 33.87 0"/></mask><g clip-path="url(#a)"><g mask="url(#b)"><path fill="#fff" stroke="#dadbd2" stroke-width="2" d="M33.871 0H3.226C1.444 0 0 1.492 0 3.333v18.334C0 23.507 1.444 25 3.226 25H33.87c1.782 0 3.226-1.492 3.226-3.333V3.333C37.097 1.493 35.653 0 33.87 0z"/></g><path fill="url(#d)" fill-rule="evenodd" d="m13.842 7.691-.022.06-4.04 9.925q-.07.167-.136.335c-.01.028-.024.04-.055.04H6.92c-.035 0-.046-.009-.054-.042L5.57 12.842 4.782 9.71a3 3 0 0 0-.08-.242 1 1 0 0 0-.428-.533 5 5 0 0 0-.686-.335c-.62-.249-1.26-.447-1.91-.592l-.065-.018v-.022q.029-.115.053-.235c.006-.035.02-.043.052-.043q2.186.002 4.373 0c.583 0 1.09.393 1.213 1.055.188 1.015.37 2.031.556 3.046l.498 2.717.042.232.025-.054 2.664-6.945c.016-.038.032-.051.073-.051h2.678zm19.916 10.011.073.336v.008l-.868.002h-1.49c-.028 0-.05.002-.056-.038l-.295-1.459c-.008-.041-.024-.052-.056-.052h-3.243c-.038 0-.055.008-.069.041l-.505 1.45c-.014.034-.03.05-.073.05H24.5l.016-.05 1.04-2.566q1.417-3.476 2.827-6.95c.194-.484.618-.817 1.17-.809.551.009 1.101 0 1.653 0h.486c.03 0 .04.009.049.038.066.34.135.675.204 1.014l.435 2.142.468 2.311.476 2.319.443 2.183zm-9.145-3.312c.06.766-.102 1.475-.529 2.113-.31.462-.72.808-1.197 1.072a5 5 0 0 1-1.525.534 8 8 0 0 1-.97.108c-.016 0-.032.008-.048.008h-.43c-.096-.008-.195-.008-.293-.016-.76-.05-1.508-.175-2.228-.45a1 1 0 0 1-.157-.067c-.024-.008-.032-.017-.027-.05l.323-1.55.137-.675.048.025c.331.164.67.317 1.033.423.338.105.693.174 1.048.192q.351.02.702.007c.33-.017.645-.094.935-.27.177-.109.33-.25.403-.459a.78.78 0 0 0-.185-.83 2.3 2.3 0 0 0-.565-.425c-.266-.15-.538-.292-.806-.434-.424-.23-.827-.487-1.178-.822-.322-.304-.58-.654-.725-1.084a2.5 2.5 0 0 1-.117-1.008q.054-.72.42-1.337c.27-.45.63-.802 1.06-1.084a4.7 4.7 0 0 1 1.573-.641 6 6 0 0 1 1.062-.13q.03-.001.056-.009h.431q.117.011.226.017c.667.046 1.324.19 1.952.427.032.01.046.021.037.059q-.222 1.06-.44 2.116l-.009.032-.153-.075a5 5 0 0 0-1.452-.385 4 4 0 0 0-.96 0c-.295.042-.577.125-.814.323a.73.73 0 0 0-.282.492.6.6 0 0 0 .105.413c.09.141.218.25.349.344.252.183.527.325.8.475.387.208.777.418 1.137.683.339.243.645.527.871.892q.314.487.363 1.075zm-7.05-6.695-.06.29q-.284 1.371-.57 2.741l-.577 2.78L15.8 16.2l-.371 1.811c0 .025-.009.04-.04.04h-2.573l.048-.226.589-2.825.572-2.733.549-2.642.387-1.883c.008-.033.016-.042.048-.042h2.516c.016 0 .025 0 .04.009zm10.953 6.685h2.163l-.785-3.877h-.011l-1.366 3.875z" clip-rule="evenodd"/></g></svg>